<svg width="187" height="70" viewBox="0 0 187 70" fill="none" xmlns="http://www.w3.org/2000/svg">
<path fill-rule="evenodd" clip-rule="evenodd" d="M172.499 46.1149C176.785 46.1149 178.477 44.671 178.477 41.7833C178.477 39.1365 176.56 37.3321 172.329 37.3321H162.797V46.1149H172.499ZM162.797 23.736V31.0748H172.611C175.995 31.0748 177.18 29.39 177.18 27.4661C177.18 25.4208 175.658 23.736 172.048 23.736H162.797ZM155.803 52.9737C155.464 52.9737 155.127 52.6114 155.127 52.2508V17.6C155.127 17.2377 155.464 16.8772 155.803 16.8772H173.119C180.79 16.8772 184.852 21.2088 184.852 26.8031C184.852 29.6908 183.779 31.977 181.918 33.602V33.7216C184.569 35.5278 186.148 38.4137 186.148 42.1438C186.148 49.0624 181.411 52.9737 173.289 52.9737H155.803Z" fill="white"/>
<path fill-rule="evenodd" clip-rule="evenodd" d="M124.553 23.7355V46.1144H131.942C139.105 46.1144 142.884 41.7828 142.884 34.9258C142.884 28.0671 138.259 23.7355 131.83 23.7355H124.553ZM117.56 52.9732C117.221 52.9732 116.882 52.6126 116.882 52.2521V17.5995C116.882 17.239 117.221 16.8767 117.56 16.8767H131.83C142.545 16.8767 150.556 23.9166 150.556 34.9258C150.556 45.8137 143.786 52.9732 131.942 52.9732H117.56Z" fill="white"/>
<path fill-rule="evenodd" clip-rule="evenodd" d="M90.317 37.9332V46.1145H110.172C110.509 46.1145 110.96 46.5964 110.96 46.9569V52.1309C110.96 52.4914 110.509 52.9733 110.172 52.9733H83.3235C82.9845 52.9733 82.6455 52.6128 82.6455 52.2505V17.5996C82.6455 17.2391 82.9845 16.8768 83.3235 16.8768H109.833C110.172 16.8768 110.623 17.3587 110.623 17.7192V22.8932C110.623 23.2537 110.172 23.7356 109.833 23.7356H90.317V31.0745H108.14C108.479 31.0745 108.929 31.5564 108.929 31.9169V37.0908C108.929 37.4514 108.479 37.9332 108.14 37.9332H90.317Z" fill="white"/>
<path d="M35 70C54.33 70 70 54.33 70 35C70 15.67 54.33 0 35 0C15.67 0 0 15.67 0 35C0 54.33 15.67 70 35 70Z" fill="#FF3E00"/>
<path fill-rule="evenodd" clip-rule="evenodd" d="M56.8755 28.1179C56.8755 24.7462 54.0533 22.2913 50.573 22.6366L45.2797 23.1612C44.7215 23.2162 44.2695 23.6991 44.2695 24.24V33.3414V34.4945V43.5959C44.2695 44.1358 44.7215 44.53 45.2797 44.4739L50.573 43.9494C54.0533 43.6051 56.8755 40.592 56.8755 37.2193C56.8755 35.4112 56.0631 33.867 54.7732 32.8769C56.0631 31.6311 56.8755 29.9259 56.8755 28.1179Z" fill="white"/>
<path fill-rule="evenodd" clip-rule="evenodd" d="M24.7208 23.1606L19.4285 22.6365C15.9471 22.2915 13.125 24.7453 13.125 28.1172C13.125 29.9258 13.9374 31.6305 15.2272 32.8763C13.9374 33.8666 13.125 35.4106 13.125 37.2191C13.125 40.591 15.9471 43.6046 19.4285 43.9497L24.7208 44.4738C25.279 44.5298 25.7309 44.1359 25.7309 43.5955V34.4935V33.3414V24.2395C25.7309 23.699 25.279 23.2156 24.7208 23.1606" fill="white"/>
<path fill-rule="evenodd" clip-rule="evenodd" d="M34.9986 28.4376H29.7074C29.1492 28.4376 28.6973 28.8711 28.6973 29.4063V42.584V43.922C28.6973 44.4878 29.1035 45.0555 29.6904 45.0555H34.9997C34.9444 46.1117 33.4323 46.9094 29.8871 47.2869L29.4852 47.3215C29.246 47.346 28.6973 47.3215 28.6973 48.3146V48.5782C28.6973 49.1134 29.1354 49.5835 29.6936 49.5835H34.9848C38.4662 49.5835 41.3032 46.8403 41.3032 43.5008V34.4847C41.3032 31.1452 38.4811 28.4376 34.9986 28.4376" fill="white"/>
</svg>
