<svg width="427" height="90" viewBox="0 0 427 90" fill="none" xmlns="http://www.w3.org/2000/svg">
<g opacity="0.9">
<path d="M398.131 80.8613C381.791 80.8613 370.12 69.1897 370.12 53.2739C370.12 37.3581 381.791 25.6865 398.131 25.6865C414.365 25.6865 426.037 37.3581 426.037 53.2739C426.037 69.1897 414.365 80.8613 398.131 80.8613ZM398.131 69.6141C406.938 69.6141 412.88 62.9295 412.88 53.2739C412.88 43.6183 406.938 36.9337 398.131 36.9337C389.219 36.9337 383.277 43.6183 383.277 53.2739C383.277 62.9295 389.219 69.6141 398.131 69.6141Z" fill="#111111"/>
<path d="M223.051 80.0125V26.5354H236.102V34.7055C238.648 29.4002 244.272 25.6865 251.805 25.6865C259.445 25.6865 265.917 29.5063 268.252 35.9787C270.904 30.0368 278.332 25.6865 285.971 25.6865C297.537 25.6865 304.964 33.9627 304.964 45.4221V80.0125H291.913V49.348C291.913 41.8145 288.093 36.8276 281.727 36.8276C274.724 36.8276 270.48 42.9817 270.48 50.5152V80.0125H257.535V49.348C257.535 41.8145 253.609 36.8276 247.349 36.8276C240.346 36.8276 236.102 42.9817 236.102 50.5152V80.0125H223.051Z" fill="#111111"/>
<path d="M191.264 80.861C173.757 80.861 164.101 67.0673 164.101 53.0614C164.101 38.9494 173.757 25.6865 191.264 25.6865C209.09 25.6865 217.154 38.7375 217.154 51.4701C217.154 53.2739 217.048 54.9716 216.941 56.0326L176.728 56.0324C177.789 64.5208 183.094 70.0383 191.264 70.0383C197.949 70.0383 202.405 67.2795 203.678 62.1865H216.411C214.501 73.5398 204.527 80.861 191.264 80.861ZM177.046 47.1195L204.209 47.1198C203.678 40.3291 199.01 35.5543 191.264 35.5543C184.049 35.5543 178.531 39.5861 177.046 47.1195Z" fill="#111111"/>
<path d="M341.146 80.857C334.249 80.857 328.095 79.7486 324.912 75.1861L324.912 80.0082H311.861V9.13867H324.912L324.912 31.8231C328.201 27.3667 334.249 25.6823 340.933 25.6823C356.425 25.6823 365.762 37.0355 365.762 53.2697C365.762 69.5038 356.425 80.857 341.146 80.857ZM338.493 69.6099C347.088 69.6099 353.09 63.1375 353.09 53.2697C353.09 43.4019 347.088 36.9294 338.493 36.9294C329.792 36.9294 324.063 43.4019 324.063 53.2697C324.063 63.1375 329.792 69.6099 338.493 69.6099Z" fill="#111111"/>
<path d="M129.66 9.13867H142.498L142.498 28.3848H157.455L157.455 40.2707H142.498C142.498 40.2707 142.298 49.01 142.498 53.5044C142.698 57.9989 144.065 61.8095 147.919 64.8579C151.327 67.5545 158.647 67.8172 158.647 67.8172V80.8315C158.647 80.8315 142.823 78.931 136.607 72.0629C131.707 66.6481 129.747 60.0059 129.66 54.7002C129.573 49.3946 129.66 40.2707 129.66 40.2707H119.201L119.2 28.3848H129.659L129.66 9.13867Z" fill="#111111"/>
<path fill-rule="evenodd" clip-rule="evenodd" d="M40.8578 40.2793C43.1163 12.7634 20.5067 -1.99363 0.593716 0.217172V19.2416C13.5593 16.2928 24.9372 27.4298 21.7951 40.2793H40.8578Z" fill="#111111"/>
<path fill-rule="evenodd" clip-rule="evenodd" d="M50.7282 40.2793C48.4697 12.7634 71.0794 -1.99363 90.9923 0.217172V19.2416C78.0267 16.2928 66.6489 27.4298 69.7909 40.2793H50.7282Z" fill="#111111"/>
<path fill-rule="evenodd" clip-rule="evenodd" d="M36.5731 49.7207C34.3146 77.2366 56.9242 91.9936 76.8372 89.7828V70.7584C63.8716 73.7072 52.4938 62.5702 55.6358 49.7207H36.5731Z" fill="#111111"/>
</g>
</svg>
