<?xml version="1.0" encoding="UTF-8"?>
<svg xmlns="http://www.w3.org/2000/svg" version="1.1" viewBox="0 0 355.3 81.4">
  <defs>
    <style>
      .cls-1 {
        fill: #fff;
      }

      .cls-2 {
        fill: #009bac;
      }

      .cls-3 {
        fill: #000050;
      }
    </style>
  </defs>
  <!-- Generator: Adobe Illustrator 28.7.1, SVG Export Plug-In . SVG Version: 1.2.0 Build 142)  -->
  <g>
    <g id="Ebene_1">
      <rect class="cls-2" width="270.1" height="81.4"/>
      <g>
        <g>
          <path class="cls-1" d="M38.7,61.9c-.3,0-.5-.2-.5-.5s0-.3.2-.4l10-7.4h-26.3c-.3,0-.5-.2-.5-.5s0-.3.2-.4l13.7-10.1c0,0,.2-.1.3-.1h10.7c2.4,0,3.7.3,4.4.8.9.6,1.2,1.3,1.3,1.7,1.2,3.3,2.7,13.7,2.8,14.2,0-.5,1.6-10.9,2.8-14.2.2-.5.4-1.1,1.3-1.7.7-.5,2-.7,4.4-.8h26.1c.3,0,.5.2.5.5s0,.3-.2.4l-24.9,18.4c0,0-.2.1-.3.1h-26.1Z"/>
          <path class="cls-1" d="M88.1,27.7c.3,0,.5.2.5.5s0,.3-.2.4l-13.8,10.2c0,0-.2,0-.3,0h-10.7c-2.4,0-3.7-.3-4.4-.8-.9-.6-1.2-1.3-1.3-1.7-1.2-3.3-2.7-13.7-2.8-14.2,0,.5-1.6,10.9-2.8,14.2-.2.5-.4,1.1-1.3,1.7-.7.5-2,.7-4.4.8h-26.1c-.3,0-.5-.2-.5-.5s0-.3.2-.4l.8-.6,24.2-17.9c0,0,.2-.1.3-.1h26.1c.3,0,.5.2.5.5s0,.3-.2.4l-10,7.4h26.3Z"/>
        </g>
        <path class="cls-1" d="M130.7,54.4l-6.9-14.1-6.8,14.1h-.9l-11.6-26.7h8.3l4.9,11.2h.2l5.6-11.7h.9l5.9,11.7h.2l4.8-11.2h8.2l-11.6,26.7h-.9Z"/>
        <path class="cls-1" d="M152.9,27.7v26h-7.7v-26h7.7Z"/>
        <path class="cls-1" d="M165.3,47.8h11.2v5.8h-18.9v-26h18.3v5.8h-10.6v4h9.2v5.6h-9.2v4.8Z"/>
        <path class="cls-1" d="M225.8,27.7v26h-7.7v-26h7.7Z"/>
        <path class="cls-1" d="M250.2,27.7v5.8h-7.1v20.2h-7.7v-20.2h-7.1v-5.8h21.9Z"/>
        <polygon class="cls-1" points="196.4 27.7 196.4 39.5 196.2 39.5 181.6 27 180.3 27 180.3 53.7 188 53.7 188 41.8 188.2 41.8 202.8 54.3 204.1 54.3 204.1 27.7 196.4 27.7"/>
      </g>
      <g>
        <path class="cls-3" d="M292.2,69.9c.2,0,.3,0,.5-.1.2,0,.3-.2.4-.3,0-.1.1-.3.1-.6s0-.4-.1-.5c0-.1-.2-.2-.3-.3-.1,0-.3-.1-.5-.1-.2,0-.3,0-.5,0h-1.1v1.9h1c.2,0,.4,0,.5,0Z"/>
        <path class="cls-3" d="M332.5,56.8c.2,0,.3,0,.5-.1.2,0,.3-.2.4-.3,0-.1.1-.3.1-.6s0-.4-.1-.5c0-.1-.2-.2-.3-.3-.1,0-.3-.1-.5-.1-.2,0-.3,0-.5,0h-1.1v1.9h1c.2,0,.4,0,.5,0Z"/>
        <path class="cls-3" d="M318.2,43.6c.2,0,.3,0,.5-.1.2,0,.3-.2.4-.3,0-.1.1-.3.1-.6s0-.4-.1-.5-.2-.2-.3-.3c-.1,0-.3-.1-.5-.1-.2,0-.3,0-.5,0h-1.1v1.9h1c.2,0,.4,0,.5,0Z"/>
        <path class="cls-3" d="M312.1,70c.2,0,.4,0,.5-.1.2,0,.3-.2.4-.3s.2-.3.2-.6,0-.4-.1-.5c0-.1-.2-.2-.4-.3-.1,0-.3-.1-.5-.1-.2,0-.4,0-.5,0h-.9v2h.8c.2,0,.4,0,.6,0Z"/>
        <path class="cls-3" d="M306.6,68.2c-.1,0-.3-.1-.5-.1-.2,0-.4,0-.5,0h-.9v2h.8c.2,0,.4,0,.6,0,.2,0,.4,0,.5-.1.2,0,.3-.2.4-.3.1-.1.2-.3.2-.6s0-.4-.1-.5c0-.1-.2-.2-.4-.3Z"/>
        <path class="cls-3" d="M340.3,33.8l-2.4,12.1-2.4-12.1c-.3-1.6-1.7-2.7-3.3-2.7h-58.3v50.3h81.4V31h-11.6c-1.6,0-3,1.1-3.3,2.7ZM336,53.8h1.3v3h0l3-3h1.7l-3.3,3.3,3.6,3.9h-1.8l-3.1-3.5h0v3.5h-1.3v-7.2ZM329.5,53.8h2.5c.3,0,.7,0,1,0,.3,0,.6.2.9.3.2.2.4.4.6.6.1.3.2.6.2,1s-.1,1-.4,1.3c-.3.4-.7.6-1.2.6l1.9,3.2h-1.5l-1.7-3h-.9v3h-1.3v-7.2ZM323.2,53.8h4.7v1.2h-3.5v1.8h3.3v1.2h-3.3v1.9h3.7v1.2h-4.9v-7.2ZM315.2,40.6h2.5c.3,0,.7,0,1,0,.3,0,.6.2.9.3.2.2.4.4.6.6.1.3.2.6.2,1s-.1,1-.4,1.3c-.3.4-.7.6-1.2.6l1.9,3.2h-1.5l-1.7-3h-.9v3h-1.3v-7.2ZM315.1,58.9l1.6-5.2h1.3l1.6,5.2h0l1.4-5.2h1.3l-2.1,7.2h-1.2l-1.7-5.5h0l-1.7,5.5h-1.2l-2.1-7.2h1.4l1.3,5.2h0ZM320.4,69.8v1.2h-3.3v1.9h3.7v1.2h-4.9v-7.2h4.7v1.2h-3.5v1.8h3.3ZM306.3,54.9v-1.2h5.7v1.2h-2.2v6h-1.3v-6h-2.2ZM308.3,69c0,.5,0,.8-.2,1.1-.2.3-.4.5-.6.6-.3.2-.6.3-.9.3-.3,0-.7,0-1.1,0h-.9v3h-1.3v-7.2h2.4c.3,0,.7,0,1,.1.3,0,.6.2.8.3.2.2.4.4.6.6.1.3.2.6.2,1ZM309.5,66.9h2.4c.3,0,.7,0,1,.1.3,0,.6.2.8.3.2.2.4.4.6.6.1.3.2.6.2,1s0,.8-.2,1.1c-.2.3-.4.5-.6.6-.3.2-.6.3-.9.3-.3,0-.7,0-1.1,0h-.9v3h-1.3v-7.2ZM308.9,40.6h4.7v1.2h-3.5v1.8h3.3v1.2h-3.3v1.9h3.7v1.2h-4.9v-7.2ZM300.7,40.6h1.7l3.5,5.3h0v-5.3h1.3v7.2h-1.6l-3.5-5.5h0v5.5h-1.3v-7.2ZM299.7,53.8h2.8c.5,0,.9,0,1.4.2.4.1.8.4,1.2.7.3.3.6.7.8,1.1.2.4.3,1,.3,1.6s-.1,1.1-.3,1.6c-.2.4-.5.8-.9,1.1-.4.3-.8.5-1.2.7-.4.1-.9.2-1.3.2h-2.7v-7.2ZM300,72.5c.1-.2.2-.3.3-.5,0-.2,0-.4,0-.6v-4.5h1.3v4.5c0,.4,0,.8-.2,1.2-.1.3-.4.6-.6.9-.3.2-.6.4-.9.6-.4.1-.7.2-1.1.2s-.8,0-1.1-.2c-.4-.1-.7-.3-.9-.6-.3-.2-.5-.5-.6-.9-.1-.3-.2-.7-.2-1.2v-4.5h1.3v4.5c0,.2,0,.4,0,.6,0,.2.1.4.3.5s.3.3.5.4c.2.1.5.2.8.2s.6,0,.8-.2c.2-.1.4-.2.5-.4ZM286.6,54.9v-1.2h5.7v1.2h-2.2v6h-1.3v-6h-2.2ZM284.3,58.4c-.2-.1-.4-.3-.6-.4s-.5-.2-.8-.3c-.3,0-.6-.2-.8-.4-.2-.2-.5-.4-.6-.6-.2-.3-.3-.6-.3-1s0-.7.2-1c.2-.3.4-.5.6-.7.2-.2.5-.3.8-.4.3,0,.6-.1,1-.1s.7,0,1.1.2c.4.1.7.3,1,.6l-.9,1c-.1-.2-.3-.3-.5-.4-.2,0-.5-.1-.7-.1s-.3,0-.4,0c-.1,0-.3,0-.4.2-.1,0-.2.2-.3.3,0,.1-.1.3-.1.4,0,.2,0,.4.3.6s.4.2.6.3c.2,0,.5.2.8.3.3,0,.6.2.8.4.2.2.5.4.6.6s.3.6.3,1,0,.7-.2,1c-.1.3-.3.5-.6.7-.2.2-.5.3-.8.4-.3,0-.7.1-1,.1s-.9,0-1.3-.2c-.4-.1-.8-.4-1.1-.7l1-.9c.2.2.4.4.6.6.3.1.5.2.8.2s.3,0,.4,0c.1,0,.3-.1.4-.2.1,0,.2-.2.3-.3,0-.1.1-.3.1-.4,0-.3,0-.5-.3-.6ZM281.3,68.9c.2-.5.4-.9.8-1.2.3-.3.7-.6,1.2-.8.5-.2,1-.3,1.5-.3s1.1,0,1.5.2c.5.1.9.4,1.3.7l-.9.9c-.2-.2-.5-.4-.8-.5-.3-.1-.7-.2-1-.2s-.7,0-1,.2c-.3.1-.6.3-.8.5-.2.2-.4.5-.5.8-.1.3-.2.6-.2,1s0,.7.2,1.1c.1.3.3.6.5.8.2.2.5.4.8.6.3.1.6.2,1,.2s.6,0,.9,0c.3,0,.5-.2.8-.3v-1.7h-1.5v-1.2h2.7v3.7c-.9.5-1.9.7-3,.7s-1.1,0-1.5-.3c-.5-.2-.9-.4-1.2-.8-.3-.3-.6-.7-.8-1.2-.2-.5-.3-1-.3-1.5s0-1.1.3-1.6ZM289.4,66.9h2.5c.3,0,.7,0,1,0,.3,0,.6.2.9.3.2.2.4.4.6.6.1.3.2.6.2,1s-.1,1-.4,1.3c-.3.4-.7.6-1.2.6l1.9,3.2h-1.5l-1.7-3h-.9v3h-1.3v-7.2ZM293.6,59.3l-.6,1.6h-1.4l3.1-7.2h1.1l3.1,7.2h-1.5l-.7-1.6h-3.1ZM294.4,40.6h4.7v1.2h-3.5v1.8h3.3v1.2h-3.3v1.9h3.7v1.2h-4.9v-7.2ZM291.4,40.6h1.3v7.2h-1.3v-7.2ZM282,40.6l1.3,5.2h0l1.6-5.2h1.3l1.6,5.2h0l1.4-5.2h1.3l-2.1,7.2h-1.2l-1.7-5.5h0l-1.7,5.5h-1.2l-2.1-7.2h1.4ZM347.6,56.7v1.2h-3.3v1.9h3.7v1.2h-4.9v-7.2h4.7v1.2h-3.5v1.8h3.3Z"/>
        <polygon class="cls-3" points="294.2 58.2 296.4 58.2 295.3 55.3 294.2 58.2"/>
        <path class="cls-3" d="M304.1,59.2c.3-.2.5-.4.6-.7.2-.3.2-.7.2-1.1s0-.8-.2-1.1c-.1-.3-.3-.6-.6-.8-.2-.2-.5-.3-.9-.4-.3,0-.7-.1-1.1-.1h-1.2v4.9h1c.4,0,.8,0,1.1-.1s.7-.2.9-.4Z"/>
        <path class="cls-3" d="M273.9,0v27.5h58.3c1.6,0,3-1.1,3.3-2.7l2.4-12.1,2.4,12.1c.3,1.6,1.7,2.7,3.3,2.7h11.6V0h-81.4Z"/>
        <path class="cls-1" d="M340.3,24.7l-2.4-12.1-2.4,12.1c-.3,1.6-1.7,2.7-3.3,2.7h-58.3v3.6h58.3c1.6,0,3,1.1,3.3,2.7l2.4,12.1,2.4-12.1c.3-1.6,1.7-2.7,3.3-2.7h11.6v-3.6h-11.6c-1.6,0-3-1.1-3.3-2.7Z"/>
        <path class="cls-1" d="M290.6,71h.9l1.7,3h1.5l-1.9-3.2c.5,0,.9-.3,1.2-.6.3-.4.4-.8.4-1.3s0-.7-.2-1c-.1-.3-.3-.5-.6-.6-.2-.2-.5-.3-.9-.3-.3,0-.7,0-1,0h-2.5v7.2h1.3v-3ZM290.6,68h1.1c.2,0,.3,0,.5,0,.2,0,.3,0,.5.1.1,0,.3.2.3.3,0,.1.1.3.1.5s0,.4-.1.6c0,.1-.2.2-.4.3-.2,0-.3.1-.5.1-.2,0-.4,0-.5,0h-1v-1.9Z"/>
        <path class="cls-1" d="M282.1,73.2c.3.3.7.6,1.2.8.5.2,1,.3,1.5.3,1.1,0,2.1-.2,3-.7v-3.7h-2.7v1.2h1.5v1.7c-.2.1-.5.2-.8.3-.3,0-.6,0-.9,0s-.7,0-1-.2c-.3-.1-.6-.3-.8-.6-.2-.2-.4-.5-.5-.8-.1-.3-.2-.7-.2-1.1s0-.7.2-1c.1-.3.3-.6.5-.8.2-.2.5-.4.8-.5.3-.1.6-.2,1-.2s.7,0,1,.2c.3.1.6.3.8.5l.9-.9c-.4-.3-.8-.6-1.3-.7-.5-.1-1-.2-1.5-.2s-1.1,0-1.5.3c-.5.2-.9.4-1.2.8-.3.3-.6.7-.8,1.2-.2.5-.3,1-.3,1.6s0,1.1.3,1.5c.2.5.4.9.8,1.2Z"/>
        <polygon class="cls-1" points="320.6 68 320.6 66.9 315.8 66.9 315.8 74.1 320.7 74.1 320.7 72.9 317.1 72.9 317.1 71 320.4 71 320.4 69.8 317.1 69.8 317.1 68 320.6 68"/>
        <path class="cls-1" d="M307.5,67.3c-.2-.2-.5-.3-.8-.3-.3,0-.7-.1-1-.1h-2.4v7.2h1.3v-3h.9c.4,0,.7,0,1.1,0,.3,0,.7-.2.9-.3.3-.2.5-.4.6-.6.2-.3.2-.6.2-1.1s0-.7-.2-1c-.1-.3-.3-.5-.6-.6ZM306.8,69.6c-.1.1-.2.2-.4.3-.2,0-.3.1-.5.1-.2,0-.4,0-.6,0h-.8v-2h.9c.2,0,.3,0,.5,0,.2,0,.3,0,.5.1.1,0,.3.2.4.3,0,.1.1.3.1.5s0,.4-.2.6Z"/>
        <path class="cls-1" d="M310.8,71.1h.9c.4,0,.7,0,1.1,0,.3,0,.7-.2.9-.3.3-.2.5-.4.6-.6.2-.3.2-.6.2-1.1s0-.7-.2-1c-.1-.3-.3-.5-.6-.6-.2-.2-.5-.3-.8-.3-.3,0-.7-.1-1-.1h-2.4v7.2h1.3v-3ZM310.8,68h.9c.2,0,.3,0,.5,0,.2,0,.3,0,.5.1.1,0,.3.2.4.3,0,.1.1.3.1.5s0,.4-.2.6-.2.2-.4.3c-.2,0-.3.1-.5.1-.2,0-.4,0-.6,0h-.8v-2Z"/>
        <path class="cls-1" d="M297.9,72.9c-.2-.1-.4-.2-.5-.4s-.2-.3-.3-.5c0-.2,0-.4,0-.6v-4.5h-1.3v4.5c0,.4,0,.8.2,1.2.1.3.3.6.6.9.3.2.6.4.9.6.4.1.7.2,1.1.2s.8,0,1.1-.2c.4-.1.7-.3.9-.6.3-.2.5-.5.6-.9.1-.3.2-.7.2-1.2v-4.5h-1.3v4.5c0,.2,0,.4,0,.6,0,.2-.1.4-.3.5s-.3.3-.5.4c-.2.1-.5.2-.8.2s-.6,0-.8-.2Z"/>
        <polygon class="cls-1" points="312.4 53.8 314.5 60.9 315.7 60.9 317.3 55.5 317.3 55.5 319 60.9 320.2 60.9 322.3 53.8 321 53.8 319.6 58.9 319.6 58.9 318 53.8 316.7 53.8 315.1 58.9 315.1 58.9 313.8 53.8 312.4 53.8"/>
        <path class="cls-1" d="M303.7,60.7c.4-.1.9-.4,1.2-.7.4-.3.7-.7.9-1.1.2-.4.3-1,.3-1.6s-.1-1.1-.3-1.6c-.2-.4-.5-.8-.8-1.1-.3-.3-.7-.5-1.2-.7-.4-.1-.9-.2-1.4-.2h-2.8v7.2h2.7c.4,0,.9,0,1.3-.2ZM301,59.8v-4.9h1.2c.4,0,.7,0,1.1.1.3,0,.6.2.9.4.2.2.4.4.6.8.1.3.2.7.2,1.1s0,.8-.2,1.1c-.2.3-.4.6-.6.7-.3.2-.6.3-.9.4s-.7.1-1.1.1h-1Z"/>
        <path class="cls-1" d="M297.3,60.9h1.5l-3.1-7.2h-1.1l-3.1,7.2h1.4l.6-1.6h3.1l.7,1.6ZM294,58.2l1.1-2.9,1.1,2.9h-2.2Z"/>
        <polygon class="cls-1" points="309.8 60.9 309.8 54.9 312 54.9 312 53.8 306.3 53.8 306.3 54.9 308.5 54.9 308.5 60.9 309.8 60.9"/>
        <path class="cls-1" d="M330.8,57.9h.9l1.7,3h1.5l-1.9-3.2c.5,0,.9-.3,1.2-.6.3-.4.4-.8.4-1.3s0-.7-.2-1c-.1-.3-.3-.5-.6-.6-.2-.2-.5-.3-.9-.3-.3,0-.7,0-1,0h-2.5v7.2h1.3v-3ZM330.8,54.9h1.1c.2,0,.3,0,.5,0,.2,0,.3,0,.5.1.1,0,.3.2.3.3,0,.1.1.3.1.5s0,.4-.1.6c0,.1-.2.2-.4.3-.2,0-.3.1-.5.1-.2,0-.4,0-.5,0h-1v-1.9Z"/>
        <polygon class="cls-1" points="347.7 54.9 347.7 53.8 343 53.8 343 60.9 347.9 60.9 347.9 59.8 344.3 59.8 344.3 57.8 347.6 57.8 347.6 56.7 344.3 56.7 344.3 54.9 347.7 54.9"/>
        <polygon class="cls-1" points="290.1 60.9 290.1 54.9 292.2 54.9 292.2 53.8 286.6 53.8 286.6 54.9 288.8 54.9 288.8 60.9 290.1 60.9"/>
        <polygon class="cls-1" points="328.1 59.8 324.5 59.8 324.5 57.8 327.8 57.8 327.8 56.7 324.5 56.7 324.5 54.9 327.9 54.9 327.9 53.8 323.2 53.8 323.2 60.9 328.1 60.9 328.1 59.8"/>
        <path class="cls-1" d="M284.1,59.7c-.1,0-.3.1-.4.2-.1,0-.3,0-.4,0-.3,0-.6,0-.8-.2-.3-.1-.5-.3-.6-.6l-1,.9c.3.4.7.6,1.1.7.4.1.8.2,1.3.2s.7,0,1-.1c.3,0,.6-.2.8-.4.2-.2.4-.4.6-.7.1-.3.2-.6.2-1s0-.8-.3-1-.4-.5-.6-.6c-.2-.2-.5-.3-.8-.4-.3,0-.6-.2-.8-.3-.2,0-.5-.2-.6-.3s-.3-.3-.3-.6,0-.3.1-.4c0-.1.2-.2.3-.3.1,0,.2-.1.4-.2.1,0,.3,0,.4,0,.2,0,.5,0,.7.1.2,0,.4.2.5.4l.9-1c-.3-.3-.6-.5-1-.6-.4-.1-.7-.2-1.1-.2s-.7,0-1,.1c-.3,0-.6.2-.8.4-.2.2-.4.4-.6.7-.2.3-.2.6-.2,1s0,.8.3,1c.2.3.4.5.6.6.2.2.5.3.8.4.3,0,.6.2.8.3s.5.2.6.4c.2.1.3.3.3.6s0,.3-.1.4c0,.1-.2.2-.3.3Z"/>
        <polygon class="cls-1" points="337.2 57.4 337.3 57.4 340.4 60.9 342.2 60.9 338.6 57.1 342 53.8 340.3 53.8 337.3 56.8 337.2 56.8 337.2 53.8 336 53.8 336 60.9 337.2 60.9 337.2 57.4"/>
        <polygon class="cls-1" points="313.8 46.6 310.2 46.6 310.2 44.7 313.5 44.7 313.5 43.6 310.2 43.6 310.2 41.8 313.6 41.8 313.6 40.6 308.9 40.6 308.9 47.8 313.8 47.8 313.8 46.6"/>
        <polygon class="cls-1" points="302 42.3 302 42.3 305.6 47.8 307.2 47.8 307.2 40.6 305.9 40.6 305.9 46 305.9 46 302.4 40.6 300.7 40.6 300.7 47.8 302 47.8 302 42.3"/>
        <path class="cls-1" d="M316.5,44.8h.9l1.7,3h1.5l-1.9-3.2c.5,0,.9-.3,1.2-.6.3-.4.4-.8.4-1.3s0-.7-.2-1c-.1-.3-.3-.5-.6-.6-.2-.2-.5-.3-.9-.3-.3,0-.7,0-1,0h-2.5v7.2h1.3v-3ZM316.5,41.7h1.1c.2,0,.3,0,.5,0,.2,0,.3,0,.5.1.1,0,.3.2.3.3s.1.3.1.5,0,.4-.1.6c0,.1-.2.2-.4.3-.2,0-.3.1-.5.1-.2,0-.4,0-.5,0h-1v-1.9Z"/>
        <polygon class="cls-1" points="283.9 47.8 285.6 42.4 285.6 42.4 287.2 47.8 288.4 47.8 290.5 40.6 289.2 40.6 287.8 45.8 287.8 45.8 286.2 40.6 285 40.6 283.4 45.8 283.3 45.8 282 40.6 280.6 40.6 282.7 47.8 283.9 47.8"/>
        <polygon class="cls-1" points="299.3 46.6 295.7 46.6 295.7 44.7 299 44.7 299 43.6 295.7 43.6 295.7 41.8 299.1 41.8 299.1 40.6 294.4 40.6 294.4 47.8 299.3 47.8 299.3 46.6"/>
        <rect class="cls-1" x="291.4" y="40.6" width="1.3" height="7.2"/>
      </g>
    </g>
  </g>
</svg>