<svg width="125" height="125" viewBox="0 0 125 125" fill="none" xmlns="http://www.w3.org/2000/svg">
<path d="M108.398 83.0078H101.807V65.918H66.6504V54.6875H95.7031C96.7773 54.6875 97.6562 53.8086 97.6562 52.7344V20.5078C97.6562 19.4336 96.7773 18.5547 95.7031 18.5547H29.2969C28.2227 18.5547 27.3438 19.4336 27.3438 20.5078V52.7344C27.3438 53.8086 28.2227 54.6875 29.2969 54.6875H58.3496V65.918H23.1934V83.0078H16.6016C16.0645 83.0078 15.625 83.4473 15.625 83.9844V105.469C15.625 106.006 16.0645 106.445 16.6016 106.445H38.0859C38.623 106.445 39.0625 106.006 39.0625 105.469V83.9844C39.0625 83.4473 38.623 83.0078 38.0859 83.0078H31.4941V74.2188H58.3496V83.0078H51.7578C51.2207 83.0078 50.7812 83.4473 50.7812 83.9844V105.469C50.7812 106.006 51.2207 106.445 51.7578 106.445H73.2422C73.7793 106.445 74.2188 106.006 74.2188 105.469V83.9844C74.2188 83.4473 73.7793 83.0078 73.2422 83.0078H66.6504V74.2188H93.5059V83.0078H86.9141C86.377 83.0078 85.9375 83.4473 85.9375 83.9844V105.469C85.9375 106.006 86.377 106.445 86.9141 106.445H108.398C108.936 106.445 109.375 106.006 109.375 105.469V83.9844C109.375 83.4473 108.936 83.0078 108.398 83.0078ZM31.25 98.3032C31.25 98.4863 31.1035 98.6328 30.9204 98.6328H23.7549C23.5718 98.6328 23.4253 98.4863 23.4253 98.3032V91.1377C23.4253 90.9546 23.5718 90.8081 23.7549 90.8081H30.9204C31.1035 90.8081 31.25 90.9546 31.25 91.1377V98.3032ZM66.4062 98.3032C66.4062 98.4863 66.2598 98.6328 66.0767 98.6328H58.9111C58.728 98.6328 58.5815 98.4863 58.5815 98.3032V91.1377C58.5815 90.9546 58.728 90.8081 58.9111 90.8081H66.0767C66.2598 90.8081 66.4062 90.9546 66.4062 91.1377V98.3032ZM35.1562 46.875V26.3672H89.8438V46.875H35.1562ZM101.562 98.3032C101.562 98.4863 101.416 98.6328 101.233 98.6328H94.0674C93.8843 98.6328 93.7378 98.4863 93.7378 98.3032V91.1377C93.7378 90.9546 93.8843 90.8081 94.0674 90.8081H101.233C101.416 90.8081 101.562 90.9546 101.562 91.1377V98.3032ZM43.9453 36.6211C43.9453 37.9161 44.4598 39.1581 45.3755 40.0738C46.2912 40.9895 47.5331 41.5039 48.8281 41.5039C50.1231 41.5039 51.3651 40.9895 52.2808 40.0738C53.1965 39.1581 53.7109 37.9161 53.7109 36.6211C53.7109 35.3261 53.1965 34.0841 52.2808 33.1684C51.3651 32.2527 50.1231 31.7383 48.8281 31.7383C47.5331 31.7383 46.2912 32.2527 45.3755 33.1684C44.4598 34.0841 43.9453 35.3261 43.9453 36.6211Z" fill="#ACADBE"/>
</svg>
