<svg width="140" height="129" viewBox="0 0 140 129" fill="none" xmlns="http://www.w3.org/2000/svg">
<path d="M37.0332 13.7808H109.708L121.363 59.9659L113.479 81.9214H37.0332V13.7808Z" fill="white"/>
<path d="M93.3952 27.3481C92.6178 27.3481 91.8578 27.5771 91.2113 28.0059C90.5649 28.4348 90.0611 29.0444 89.7636 29.7576C89.4661 30.4708 89.3882 31.2556 89.5399 32.0127C89.6916 32.7699 90.0659 33.4653 90.6157 34.0112C91.1654 34.5571 91.8658 34.9288 92.6283 35.0794C93.3908 35.23 94.1812 35.1527 94.8995 34.8573C95.6178 34.5619 96.2317 34.0616 96.6636 33.4197C97.0955 32.7779 97.3261 32.0232 97.3261 31.2513C97.3261 30.2161 96.9119 29.2233 96.1747 28.4913C95.4376 27.7594 94.4377 27.3481 93.3952 27.3481V27.3481Z" fill="#EA008A"/>
<path d="M64.4157 69.8887C62.8282 69.8886 61.2563 70.2004 59.7907 70.8061C58.325 71.4118 56.9945 72.2993 55.8757 73.4177C54.757 74.5361 53.8721 75.8632 53.272 77.3226C52.6719 78.782 52.3685 80.3448 52.3792 81.9211H76.4794C76.4865 80.3435 76.1798 78.7801 75.5767 77.3205C74.9736 75.861 74.0862 74.5342 72.9652 73.4161C71.8443 72.2981 70.512 71.411 69.0448 70.8056C67.5777 70.2003 66.0045 69.8887 64.4157 69.8887Z" fill="#EA008A"/>
<path d="M117.453 34.2811C117.475 27.2658 115.321 20.4139 111.286 14.6557C107.25 8.89744 101.528 4.51175 94.8954 2.09398C88.2631 -0.323795 81.0422 -0.656525 74.2129 1.14096C67.3836 2.93844 61.2767 6.77906 56.7214 12.1414C53.8372 10.9895 50.7575 10.3965 47.6487 10.3943C44.4945 10.3907 41.3705 11.0045 38.4553 12.2006C35.5402 13.3966 32.891 15.1515 30.6594 17.3649C28.4277 19.5783 26.6573 22.2067 25.4494 25.1C24.2415 27.9932 23.6198 31.0945 23.6198 34.2265V34.2265C17.2506 34.3314 11.1843 36.9444 6.7553 41.4906C2.32635 46.0368 -0.102415 52.1438 0.00331276 58.4681C0.109041 64.7924 2.7406 70.816 7.31907 75.2137C11.8975 79.6114 18.0479 82.0231 24.4171 81.9181H37.7237V48.8861C37.7237 45.0369 37.7237 29.0123 57.7112 28.985V35.7552C57.8307 39.0383 58.8218 42.2317 60.584 45.0121C62.3462 47.7925 64.8169 50.0613 67.7461 51.5887L88.3933 61.4164C89.1827 61.787 89.8556 62.3639 90.3399 63.0853C90.8242 63.8066 91.1017 64.6453 91.1427 65.5113V81.8908H115.886C122.121 81.9197 128.123 79.5384 132.621 75.2509C137.118 70.9634 139.759 65.1062 139.984 58.9192C140.209 52.7323 138.001 46.7012 133.826 42.1026C129.652 37.504 123.839 34.6989 117.618 34.2811H117.453ZM109.755 62.5357C108.453 63.2231 107.053 63.7109 105.604 63.9825V76.0488H97.4935V65.5386C97.3722 63.483 96.7254 61.492 95.6142 59.7534C94.503 58.0148 92.9641 56.586 91.1427 55.6017L70.5229 45.7467C68.6989 44.7542 67.1606 43.3153 66.054 41.5667C64.9473 39.818 64.3089 37.8176 64.1995 35.7552V21.8599C64.1995 20.0065 64.941 18.2289 66.2609 16.9183C67.5809 15.6077 69.3711 14.8714 71.2377 14.8714H85.6441C105.686 14.8714 105.686 30.9233 105.686 34.7724V58.8776L106.951 59.0687C110.196 59.3373 113.451 58.704 116.354 57.2396C114.627 59.5177 112.361 61.3369 109.755 62.5357Z" fill="#EA008A"/>
<path fill-rule="evenodd" clip-rule="evenodd" d="M0.600098 89.603H10.8934C13.3714 89.603 14.5723 90.7496 14.5723 93.2012V95.4384C14.5723 97.0044 14.1434 98.0205 12.6661 98.5145C14.2959 98.8874 14.801 100.164 14.801 101.6V104.257C14.801 106.68 13.6096 107.855 11.1221 107.855H0.638222L0.600098 89.603ZM9.6353 96.8273C10.0165 96.8273 10.15 96.6968 10.15 96.3333V93.6952C10.15 93.3037 10.0165 93.2012 9.6353 93.2012H5.02239V96.8273H9.6353ZM9.85451 104.285C10.2262 104.285 10.3596 104.154 10.3596 103.791V100.705C10.3596 100.314 10.2262 100.211 9.85451 100.211H5.02239V104.257L9.85451 104.285ZM17.8603 89.603H22.2826V107.864H17.8603V89.603ZM25.6747 93.2012V104.257C25.6747 106.68 26.8661 107.864 29.3536 107.855H36.2539C38.7319 107.855 39.9328 106.68 39.9328 104.257V97.4985H32.3844V101.078H35.5296V103.632C35.5296 103.996 35.4057 104.126 35.034 104.126H30.6022C30.2304 104.126 30.097 103.996 30.097 103.632V93.8257C30.097 93.4342 30.2304 93.3317 30.6022 93.3317H35.034C35.4057 93.3317 35.5296 93.4342 35.5296 93.8257V95.6248H39.9328V93.2012C39.9328 90.7496 38.7319 89.603 36.2539 89.603H29.3536C26.8661 89.603 25.6747 90.7496 25.6747 93.2012Z" fill="#EA008A"/>
<path fill-rule="evenodd" clip-rule="evenodd" d="M47.5263 103.664H53.3645L54.4259 107.434H59.0815L53.4948 89.603H47.5263L42.0327 107.443H46.5114L47.5263 103.664ZM50.5152 93.0454L52.3775 100.021H48.5785L50.5152 93.0454ZM65.5342 89.603H61.13V107.443H65.3293V96.3876L72.1451 107.443H76.1583V89.603H71.9682V100.067L65.5342 89.603ZM79.8171 89.603H84.1375V107.443H79.8171V89.603ZM92.6015 89.603H87.7876V107.443H91.9031V96.6062L95.5718 105.167H98.4303L102.099 96.6062V107.443H106.317V89.603H101.531L97.0895 99.5386L92.6015 89.603ZM119.725 103.664H113.915L112.881 107.443H108.393L113.915 89.6122H119.883L125.47 107.443H120.815L119.725 103.664ZM118.738 100.021L116.876 93.0455L114.948 100.021H118.738ZM131.821 89.603H127.491V107.443H139.4V103.71H131.821V89.603Z" fill="#121646"/>
<path d="M25.2771 126.554H26.2131L26.8371 123.018H30.2691C31.4261 123.018 32.1671 122.381 32.3751 121.198L32.7131 119.274C32.9211 118.091 32.4011 117.454 31.2441 117.454H26.8761L25.2771 126.554ZM26.9931 122.16L27.6691 118.312H31.0491C31.6341 118.312 31.8811 118.637 31.7771 119.248L31.4261 121.224C31.3221 121.835 30.9581 122.16 30.3731 122.16H26.9931ZM34.3288 126.554H36.2398C37.4098 126.554 38.0728 125.982 38.2808 124.786L38.8918 121.302C39.0998 120.106 38.6448 119.534 37.4748 119.534H35.5638C34.3938 119.534 33.7308 120.106 33.5228 121.302L32.9118 124.786C32.7038 125.982 33.1588 126.554 34.3288 126.554ZM34.4978 125.748C33.8738 125.748 33.6658 125.488 33.7828 124.838L34.4198 121.25C34.5368 120.6 34.8228 120.34 35.4468 120.34H37.3058C37.9298 120.34 38.1378 120.6 38.0208 121.25L37.3838 124.838C37.2668 125.488 36.9808 125.748 36.3568 125.748H34.4978ZM40.5711 126.554H41.5721L44.2371 120.704L44.8611 126.554H45.8361L48.9431 119.534H48.0331L45.4851 125.657L44.8481 119.534H43.9901L41.2081 125.657L40.8181 119.534H39.9341L40.5711 126.554ZM53.228 119.534H51.408C50.238 119.534 49.575 120.106 49.367 121.302L48.756 124.786C48.548 125.982 49.003 126.554 50.173 126.554H51.993C53.163 126.554 53.826 125.982 54.034 124.786L54.112 124.357H53.228L53.137 124.864C53.02 125.514 52.734 125.774 52.11 125.774H50.342C49.718 125.774 49.51 125.514 49.627 124.864L49.913 123.226H54.307L54.645 121.302C54.853 120.106 54.398 119.534 53.228 119.534ZM53.774 121.224L53.553 122.498H50.043L50.264 121.224C50.381 120.574 50.68 120.314 51.304 120.314H53.072C53.709 120.314 53.891 120.574 53.774 121.224ZM55.272 126.554H56.156L57.092 121.211C57.846 120.769 58.548 120.392 59.432 120.392H59.926L60.069 119.534H59.575C58.587 119.534 57.924 120.028 57.209 120.548L57.391 119.534H56.507L55.272 126.554ZM64.375 119.534H62.555C61.385 119.534 60.722 120.106 60.514 121.302L59.903 124.786C59.695 125.982 60.15 126.554 61.32 126.554H63.14C64.31 126.554 64.973 125.982 65.181 124.786L65.259 124.357H64.375L64.284 124.864C64.167 125.514 63.881 125.774 63.257 125.774H61.489C60.865 125.774 60.657 125.514 60.774 124.864L61.06 123.226H65.454L65.792 121.302C66 120.106 65.545 119.534 64.375 119.534ZM64.921 121.224L64.7 122.498H61.19L61.411 121.224C61.528 120.574 61.827 120.314 62.451 120.314H64.219C64.856 120.314 65.038 120.574 64.921 121.224ZM68.3039 126.606C69.6169 126.606 70.2279 126.177 70.9949 125.592L70.8259 126.554H71.7099L73.3869 117.064H72.5029L71.8919 120.496C71.3329 119.911 70.8779 119.482 69.5649 119.482C68.0569 119.482 67.3939 120.054 67.1859 121.25L66.5489 124.838C66.3409 126.034 66.7959 126.606 68.3039 126.606ZM68.4599 125.8C67.5109 125.8 67.3159 125.54 67.4329 124.89L68.0829 121.198C68.1869 120.548 68.4859 120.288 69.4349 120.288C70.6309 120.288 71.1379 120.587 71.7879 121.133L71.1119 124.955C70.2669 125.501 69.6559 125.8 68.4599 125.8ZM79.6383 126.606C81.1333 126.606 81.7963 126.034 82.0043 124.838L82.6413 121.25C82.8493 120.054 82.3943 119.482 80.8993 119.482C79.5863 119.482 78.9753 119.911 78.1953 120.496L78.8063 117.064H77.9223L76.2453 126.554H77.1293L77.2983 125.592C77.8703 126.177 78.3253 126.606 79.6383 126.606ZM79.7683 125.8C78.5593 125.8 78.0653 125.501 77.4153 124.955L78.0913 121.133C78.9363 120.587 79.5343 120.288 80.7433 120.288C81.6793 120.288 81.8743 120.548 81.7703 121.198L81.1203 124.89C81.0033 125.54 80.7043 125.8 79.7683 125.8ZM83.794 128.634H84.678L89.631 119.534H88.708L85.536 125.462L84.561 119.534H83.703L84.925 126.554L83.794 128.634ZM92.4317 126.554H98.0867L98.2427 125.696H93.5237L94.1087 122.329H98.0867L98.2427 121.471H94.2647L94.8237 118.312H99.5427L99.6857 117.454H94.0307L92.4317 126.554ZM99.7635 126.554H104.223C105.432 126.554 106.108 125.969 106.329 124.734L107.291 119.274C107.499 118.039 107.031 117.454 105.822 117.454H101.363L99.7635 126.554ZM100.856 125.696L102.156 118.312H105.627C106.277 118.312 106.472 118.572 106.355 119.248L105.38 124.76C105.263 125.436 104.977 125.696 104.327 125.696H100.856ZM107.971 126.554H112.391C113.6 126.554 114.276 125.969 114.497 124.734L114.744 123.278C114.887 122.511 114.653 122.082 114.055 121.9C114.588 121.705 114.991 121.302 115.134 120.535L115.355 119.274C115.563 118.039 115.095 117.454 113.886 117.454H109.57L107.971 126.554ZM109.804 121.471L110.363 118.312H113.691C114.341 118.312 114.536 118.572 114.419 119.248L114.198 120.535C114.068 121.211 113.782 121.471 113.132 121.471H109.804ZM109.063 125.696L109.648 122.316H113.08C113.73 122.316 113.938 122.576 113.821 123.252L113.548 124.76C113.431 125.436 113.145 125.696 112.495 125.696H109.063Z" fill="#121646"/>
</svg>
