<svg width="125" height="126" viewBox="0 0 125 126" fill="none" xmlns="http://www.w3.org/2000/svg">
<path d="M99.0482 45.261C93.4574 30.5027 79.2118 20.0046 62.5248 20.0046C45.8378 20.0046 31.5922 30.4905 26.0013 45.2488C15.4911 48.0198 7.75182 57.6267 7.81286 69.0281C7.8861 81.7722 17.7738 92.136 30.225 93.2468C30.7987 93.2957 31.287 92.844 31.287 92.2703V84.8972C31.287 84.4089 30.9208 83.9939 30.4325 83.9329C27.1366 83.5178 24.0238 82.0774 21.6312 79.7214C18.7015 76.8528 17.0902 72.9954 17.0902 68.906C17.0902 65.488 18.201 62.2654 20.2884 59.5798C22.327 56.9675 25.1957 55.0754 28.3573 54.2454L32.9838 53.0247L34.6805 48.5447C35.7303 45.7615 37.1952 43.1492 39.0384 40.7932C40.8573 38.4495 43.0179 36.3987 45.4349 34.6897C50.452 31.1619 56.3602 29.2942 62.5248 29.2942C68.6893 29.2942 74.5975 31.1619 79.6146 34.7019C82.0438 36.4109 84.1923 38.4617 86.0111 40.8054C87.8544 43.1614 89.3192 45.7737 90.369 48.5569L92.0536 53.0247L96.6678 54.2454C103.284 56.0032 107.911 62.0212 107.911 68.8938C107.911 72.9954 106.299 76.8406 103.369 79.7092C100.989 82.053 97.8885 83.5056 94.5927 83.9207C94.1044 83.9817 93.7504 84.3967 93.7504 84.885V92.2703C93.7504 92.844 94.2508 93.2957 94.8246 93.2468C107.239 92.1238 117.102 81.7722 117.188 69.0525C117.261 57.6511 109.534 48.0442 99.0482 45.261Z" fill="#ACADBE"/>
<path d="M46.0088 80.3562C46.2285 76.2668 47.9253 72.4583 50.8306 69.5408C53.9312 66.428 58.1548 64.6824 62.5493 64.6824C66.9683 64.6824 71.1309 66.4036 74.2681 69.5408C74.439 69.7117 74.5977 69.8826 74.7686 70.0657L71.7168 72.4583C71.5714 72.5707 71.4607 72.722 71.3974 72.8946C71.3342 73.0672 71.3209 73.2541 71.3592 73.4339C71.3974 73.6137 71.4856 73.7791 71.6137 73.9109C71.7417 74.0428 71.9044 74.1359 72.083 74.1794L84.0703 77.1091C84.6807 77.2556 85.2788 76.7917 85.2788 76.1692L85.3399 63.8035C85.3399 62.9856 84.4121 62.5217 83.7651 63.0344L80.9331 65.2561C76.4653 60.1292 69.898 56.8821 62.5615 56.8821C49.4512 56.8821 38.7578 67.2703 38.2207 80.283C38.1963 80.8323 38.6357 81.2961 39.1973 81.2961H45.0444C45.5571 81.2839 45.9844 80.8811 46.0088 80.3562ZM85.8159 81.2839H79.9688C79.4561 81.2839 79.0288 81.6868 78.9922 82.2117C78.7725 86.301 77.0757 90.1096 74.1704 93.0271C71.0698 96.1399 66.8462 97.8855 62.4517 97.8855C58.0327 97.8855 53.8701 96.1643 50.7329 93.0271C50.562 92.8562 50.4033 92.6853 50.2324 92.5022L53.2842 90.1096C53.4296 89.9971 53.5403 89.8459 53.6035 89.6733C53.6668 89.5007 53.6801 89.3138 53.6418 89.134C53.6036 88.9542 53.5153 88.7888 53.3873 88.6569C53.2592 88.525 53.0966 88.432 52.918 88.3884L40.9307 85.4587C40.3203 85.3123 39.7222 85.7761 39.7222 86.3987L39.6733 98.7766C39.6733 99.5945 40.6011 100.058 41.248 99.5457L44.0801 97.324C48.5478 102.451 55.1152 105.698 62.4517 105.698C75.562 105.698 86.2554 95.3098 86.7925 82.2971C86.8169 81.7478 86.3775 81.2839 85.8159 81.2839Z" fill="#ACADBE"/>
</svg>
