<svg width="125" height="125" viewBox="0 0 125 125" fill="none" xmlns="http://www.w3.org/2000/svg">
<path d="M101.819 57.2754C99.449 51.9416 96.004 47.1542 91.6992 43.2129L88.147 39.9536C88.0264 39.846 87.8812 39.7696 87.7242 39.7311C87.5672 39.6927 87.4031 39.6934 87.2464 39.7332C87.0898 39.773 86.9452 39.8506 86.8256 39.9593C86.7059 40.0679 86.6147 40.2043 86.5601 40.3564L84.9731 44.9096C83.9844 47.7661 82.1655 50.6836 79.5898 53.5522C79.4189 53.7353 79.2236 53.7842 79.0894 53.7964C78.9551 53.8086 78.7476 53.7842 78.5645 53.6133C78.3936 53.4668 78.3081 53.247 78.3203 53.0273C78.772 45.6787 76.5747 37.3901 71.7651 28.3691C67.7856 20.874 62.2559 15.0268 55.3467 10.9497L50.3052 7.98338C49.646 7.59275 48.8037 8.10545 48.8403 8.87449L49.1089 14.7339C49.292 18.7378 48.8281 22.2778 47.7295 25.2197C46.3867 28.8208 44.458 32.1655 41.9922 35.1684C40.2762 37.2554 38.3312 39.143 36.1938 40.7959C31.0462 44.753 26.8605 49.8234 23.9502 55.6274C21.047 61.4821 19.5348 67.9279 19.5312 74.4629C19.5313 80.2246 20.6665 85.8032 22.9126 91.0644C25.0814 96.1299 28.2112 100.727 32.1289 104.602C36.084 108.508 40.6738 111.584 45.7886 113.721C51.0864 115.942 56.7017 117.065 62.5 117.065C68.2983 117.065 73.9136 115.942 79.2114 113.733C84.3136 111.609 88.9532 108.512 92.8711 104.614C96.8262 100.708 99.9268 96.1425 102.087 91.0766C104.33 85.8298 105.481 80.1811 105.469 74.4751C105.469 68.518 104.248 62.7319 101.819 57.2754V57.2754ZM87.0361 98.6938C80.481 105.188 71.7773 108.752 62.5 108.752C53.2227 108.752 44.519 105.188 37.9639 98.6938C31.4331 92.2119 27.832 83.6181 27.832 74.4751C27.832 69.165 29.0283 64.0747 31.3843 59.3383C33.6792 54.7119 37.0972 50.5737 41.2476 47.3877C43.8945 45.3637 46.2953 43.0366 48.4009 40.4541C51.4526 36.7309 53.8452 32.5805 55.5054 28.125C56.1864 26.2871 56.6812 24.3854 56.9824 22.4487C59.9243 25.1587 62.3901 28.4301 64.4531 32.2632C68.5303 39.9048 70.4102 46.7041 70.0439 52.4902C69.9565 53.853 70.179 55.2178 70.6949 56.4822C71.2108 57.7465 72.0066 58.8775 73.0225 59.79C73.9028 60.5852 74.9324 61.1976 76.0514 61.5916C77.1705 61.9856 78.3566 62.1533 79.541 62.0849C81.9458 61.9629 84.1553 60.9008 85.7666 59.1064C87.3901 57.2876 88.7939 55.4321 89.9658 53.54C91.6748 55.7251 93.103 58.1054 94.2383 60.6689C96.1792 65.039 97.168 69.6899 97.168 74.4751C97.168 83.6181 93.5669 92.2241 87.0361 98.6938Z" fill="#ACADBE"/>
</svg>
