<svg width="125" height="125" viewBox="0 0 125 125" fill="none" xmlns="http://www.w3.org/2000/svg">
<path d="M62.5 7.8125C32.2998 7.8125 7.8125 32.2998 7.8125 62.5C7.8125 92.7002 32.2998 117.188 62.5 117.188C92.7002 117.188 117.188 92.7002 117.188 62.5C117.188 32.2998 92.7002 7.8125 62.5 7.8125ZM62.5 107.91C37.4268 107.91 17.0898 87.5732 17.0898 62.5C17.0898 37.4268 37.4268 17.0898 62.5 17.0898C87.5732 17.0898 107.91 37.4268 107.91 62.5C107.91 87.5732 87.5732 107.91 62.5 107.91Z" fill="#ACADBE"/>
<path d="M83.8257 77.9541L66.4185 65.3686V35.1562C66.4185 34.6191 65.979 34.1797 65.4419 34.1797H59.5703C59.0332 34.1797 58.5938 34.6191 58.5938 35.1562V68.7744C58.5938 69.0918 58.7402 69.3847 58.9966 69.5679L79.187 84.2895C79.6265 84.6069 80.2368 84.5092 80.5542 84.082L84.0454 79.3213C84.3628 78.8696 84.2651 78.2592 83.8257 77.9541V77.9541Z" fill="#ACADBE"/>
</svg>
