<svg width="125" height="125" viewBox="0 0 125 125" fill="none" xmlns="http://www.w3.org/2000/svg">
<path d="M115.014 59.3506C103.442 34.9731 85.9495 22.7051 62.4998 22.7051C39.0379 22.7051 21.5574 34.9731 9.98517 59.3628C9.521 60.3457 9.28027 61.4191 9.28027 62.5061C9.28027 63.5931 9.521 64.6665 9.98517 65.6494C21.5574 90.0269 39.0501 102.295 62.4998 102.295C85.9617 102.295 103.442 90.0269 115.014 65.6372C115.954 63.6597 115.954 61.3647 115.014 59.3506V59.3506ZM62.4998 93.5059C42.8099 93.5059 28.3934 83.5205 18.2249 62.5C28.3934 41.4795 42.8099 31.4941 62.4998 31.4941C82.1898 31.4941 96.6063 41.4795 106.775 62.5C96.6185 83.5205 82.202 93.5059 62.4998 93.5059ZM62.0115 41.0156C50.1463 41.0156 40.5272 50.6348 40.5272 62.5C40.5272 74.3652 50.1463 83.9844 62.0115 83.9844C73.8768 83.9844 83.4959 74.3652 83.4959 62.5C83.4959 50.6348 73.8768 41.0156 62.0115 41.0156ZM62.0115 76.1719C54.4554 76.1719 48.3397 70.0562 48.3397 62.5C48.3397 54.9438 54.4554 48.8281 62.0115 48.8281C69.5677 48.8281 75.6834 54.9438 75.6834 62.5C75.6834 70.0562 69.5677 76.1719 62.0115 76.1719Z" fill="#ACADBE"/>
</svg>
