<svg width="125" height="125" viewBox="0 0 125 125" fill="none" xmlns="http://www.w3.org/2000/svg">
<path d="M107.422 13.6719H17.5781C15.4175 13.6719 13.6719 15.4175 13.6719 17.5781V107.422C13.6719 109.583 15.4175 111.328 17.5781 111.328H107.422C109.583 111.328 111.328 109.583 111.328 107.422V17.5781C111.328 15.4175 109.583 13.6719 107.422 13.6719ZM102.539 102.539H22.4609V22.4609H102.539V102.539ZM41.5039 83.374V92.7734C41.5039 93.3105 41.9434 93.75 42.4805 93.75H48.3398C48.877 93.75 49.3164 93.3105 49.3164 92.7734V83.374C48.0835 83.7769 46.7773 83.9844 45.4102 83.9844C44.043 83.9844 42.7368 83.7646 41.5039 83.374ZM49.3164 59.2041V32.2266C49.3164 31.6895 48.877 31.25 48.3398 31.25H42.4805C41.9434 31.25 41.5039 31.6895 41.5039 32.2266V59.2041C42.7368 58.8013 44.043 58.5938 45.4102 58.5938C46.7773 58.5938 48.0835 58.8135 49.3164 59.2041ZM41.5039 83.374C42.7368 83.7769 44.043 83.9844 45.4102 83.9844C46.7773 83.9844 48.0835 83.7646 49.3164 83.374C54.4189 81.7261 58.1055 76.9409 58.1055 71.2891C58.1055 65.6372 54.4189 60.8521 49.3164 59.2041C48.0835 58.8013 46.7773 58.5938 45.4102 58.5938C44.043 58.5938 42.7368 58.8135 41.5039 59.2041C36.4014 60.8521 32.7148 65.6372 32.7148 71.2891C32.7148 76.9409 36.4014 81.7261 41.5039 83.374ZM41.5161 69.2505C41.5527 69.1772 41.6016 69.104 41.6382 69.0308V69.0186L41.7847 68.7988C41.7969 68.7744 41.8091 68.7622 41.8213 68.7378C41.8579 68.6768 41.9067 68.6279 41.9434 68.5669C41.9556 68.5547 41.9678 68.5303 41.98 68.5181C42.041 68.4448 42.0898 68.3838 42.1509 68.3228L42.1875 68.2861L42.334 68.1396L42.3828 68.0908C42.4438 68.0298 42.5049 67.981 42.5781 67.9199C42.6514 67.8589 42.7124 67.8101 42.7856 67.7612C42.8101 67.749 42.8223 67.7368 42.8467 67.7246C42.9077 67.688 42.9565 67.6392 43.0176 67.6025C43.0298 67.5903 43.0542 67.5781 43.0664 67.5659C43.1396 67.5171 43.2129 67.4805 43.2983 67.4316C43.3105 67.4194 43.335 67.4194 43.3472 67.4072C43.4082 67.3706 43.4692 67.3462 43.5425 67.3096L43.6157 67.2729C43.7012 67.2363 43.7744 67.1997 43.8599 67.1753C43.9453 67.1387 44.0308 67.1143 44.1162 67.0898C44.1406 67.0776 44.165 67.0776 44.1895 67.0654C44.2627 67.041 44.3237 67.0288 44.397 67.0166C44.4214 67.0166 44.4336 67.0044 44.458 67.0044C44.5435 66.98 44.6411 66.9678 44.7266 66.9556C44.751 66.9556 44.7632 66.9556 44.7876 66.9434C44.8608 66.9312 44.9341 66.9312 45.0073 66.9189H45.0806C45.1782 66.9189 45.2637 66.9067 45.3613 66.9067C45.459 66.9067 45.5444 66.9067 45.6421 66.9189H45.7153C45.7886 66.9189 45.8618 66.9312 45.9351 66.9434C45.9595 66.9434 45.9717 66.9434 45.9961 66.9556C46.0815 66.9678 46.1792 66.98 46.2646 67.0044C46.2891 67.0044 46.3013 67.0166 46.3257 67.0166C46.3989 67.0288 46.4722 67.0532 46.5332 67.0654C46.5576 67.0776 46.582 67.0776 46.6064 67.0898C46.6919 67.1143 46.7773 67.1387 46.8628 67.1753C46.9482 67.1997 47.0215 67.2363 47.1069 67.2729L47.1802 67.3096C47.2412 67.334 47.3145 67.3706 47.3755 67.4072C47.3877 67.4194 47.4121 67.4194 47.4243 67.4316C47.4976 67.4683 47.583 67.5171 47.6562 67.5659C47.6685 67.5781 47.6929 67.5903 47.7051 67.6025C47.7661 67.6392 47.8271 67.6758 47.876 67.7246C47.9004 67.7368 47.9126 67.749 47.937 67.7612C48.0103 67.8101 48.0835 67.8711 48.1445 67.9199C48.2056 67.9688 48.2788 68.0298 48.3398 68.0908L48.3887 68.1396L48.5352 68.2861L48.5718 68.3228C48.6328 68.3838 48.6938 68.457 48.7427 68.5181C48.7549 68.5303 48.7671 68.5547 48.7793 68.5669C48.8281 68.6157 48.8647 68.6768 48.9014 68.7378C48.9136 68.7622 48.9258 68.7744 48.938 68.7988L49.0845 69.0186C49.0845 69.0186 49.0845 69.0308 49.0967 69.0308C49.5037 69.7138 49.7188 70.494 49.7192 71.2891C49.7192 72.0215 49.5361 72.7173 49.2188 73.3276C49.1821 73.4009 49.1333 73.4741 49.0967 73.5474C49.0967 73.5474 49.0967 73.5596 49.0845 73.5596L48.938 73.7793C48.9258 73.8037 48.9136 73.8159 48.9014 73.8403C48.8647 73.9014 48.8159 73.9502 48.7793 74.0112C48.7671 74.0234 48.7549 74.0479 48.7427 74.0601C48.6816 74.1333 48.6328 74.1943 48.5718 74.2554L48.5352 74.292L48.3887 74.4385L48.3398 74.4873C48.2788 74.5483 48.2178 74.5972 48.1445 74.6582C48.0713 74.7192 48.0103 74.7681 47.937 74.8169C47.9126 74.8291 47.9004 74.8413 47.876 74.8535C47.8149 74.8901 47.7661 74.939 47.7051 74.9756C47.6929 74.9878 47.6685 75 47.6562 75.0122C47.583 75.061 47.5098 75.0977 47.4243 75.1465C47.4121 75.1587 47.3877 75.1587 47.3755 75.1709C47.3145 75.2075 47.2534 75.2319 47.1802 75.2686L47.1069 75.3052C47.0215 75.3418 46.9482 75.3784 46.8628 75.4028C46.7773 75.4395 46.6919 75.4639 46.6064 75.4883C46.582 75.5005 46.5576 75.5005 46.5332 75.5127C46.46 75.5371 46.3989 75.5493 46.3257 75.5615C46.3013 75.5615 46.2891 75.5737 46.2646 75.5737C46.1792 75.5981 46.0815 75.6104 45.9961 75.6226C45.9717 75.6226 45.9595 75.6226 45.9351 75.6348C45.8618 75.647 45.7886 75.647 45.7153 75.6592H45.6421C45.5444 75.6592 45.459 75.6714 45.3613 75.6714C45.2637 75.6714 45.1782 75.6714 45.0806 75.6592H45.0073C44.9341 75.6592 44.8608 75.647 44.7876 75.6348C44.7632 75.6348 44.751 75.6348 44.7266 75.6226C44.6411 75.6104 44.5435 75.5981 44.458 75.5737C44.4336 75.5737 44.4214 75.5615 44.397 75.5615C44.3237 75.5493 44.2505 75.5249 44.1895 75.5127C44.165 75.5005 44.1406 75.5005 44.1162 75.4883C44.0308 75.4639 43.9453 75.4395 43.8599 75.4028C43.7744 75.3784 43.7012 75.3418 43.6157 75.3052L43.5425 75.2686C43.4814 75.2441 43.4082 75.2075 43.3472 75.1709C43.335 75.1587 43.3105 75.1587 43.2983 75.1465C43.2251 75.1099 43.1396 75.061 43.0664 75.0122C43.0542 75 43.0298 74.9878 43.0176 74.9756C42.9565 74.939 42.8955 74.9023 42.8467 74.8535C42.8223 74.8413 42.8101 74.8291 42.7856 74.8169C42.7124 74.7681 42.6392 74.707 42.5781 74.6582C42.5171 74.6094 42.4438 74.5483 42.3828 74.4873L42.334 74.4385L42.1875 74.292L42.1509 74.2554C42.0898 74.1943 42.0288 74.1211 41.98 74.0601C41.9678 74.0479 41.9556 74.0234 41.9434 74.0112C41.8945 73.9624 41.8579 73.9014 41.8213 73.8403C41.8091 73.8159 41.7969 73.8037 41.7847 73.7793L41.6382 73.5596V73.5474C41.5894 73.4741 41.5527 73.4009 41.5161 73.3276C41.1987 72.7173 41.0156 72.0215 41.0156 71.2891C41.0156 70.5566 41.1987 69.8608 41.5161 69.2505ZM75.6836 65.7959V92.7734C75.6836 93.3105 76.123 93.75 76.6602 93.75H82.5195C83.0566 93.75 83.4961 93.3105 83.4961 92.7734V65.7959C82.2632 66.1987 80.957 66.4062 79.5898 66.4062C78.2227 66.4062 76.9165 66.1865 75.6836 65.7959ZM83.4961 41.626V32.2266C83.4961 31.6895 83.0566 31.25 82.5195 31.25H76.6602C76.123 31.25 75.6836 31.6895 75.6836 32.2266V41.626C76.9165 41.2231 78.2227 41.0156 79.5898 41.0156C80.957 41.0156 82.2632 41.2354 83.4961 41.626ZM75.6836 65.7959C76.9165 66.1987 78.2227 66.4062 79.5898 66.4062C80.957 66.4062 82.2632 66.1865 83.4961 65.7959C88.5986 64.1479 92.2852 59.3628 92.2852 53.7109C92.2852 48.0591 88.5986 43.2739 83.4961 41.626C82.2632 41.2231 80.957 41.0156 79.5898 41.0156C78.2227 41.0156 76.9165 41.2354 75.6836 41.626C70.5811 43.2739 66.8945 48.0591 66.8945 53.7109C66.8945 59.3628 70.5811 64.1479 75.6836 65.7959ZM75.6958 51.6724C75.7324 51.5991 75.7812 51.5259 75.8179 51.4526V51.4404L75.9644 51.2207C75.9766 51.1963 75.9888 51.1841 76.001 51.1597C76.0376 51.0986 76.0864 51.0498 76.123 50.9888C76.1353 50.9766 76.1475 50.9521 76.1597 50.9399C76.2207 50.8667 76.2695 50.8057 76.3306 50.7446L76.3672 50.708L76.5137 50.5615L76.5625 50.5127C76.6235 50.4517 76.6846 50.4028 76.7578 50.3418C76.8311 50.2808 76.8921 50.2319 76.9653 50.1831C76.9897 50.1709 77.002 50.1587 77.0264 50.1465C77.0874 50.1099 77.1362 50.061 77.1973 50.0244C77.2095 50.0122 77.2339 50 77.2461 49.9878C77.3193 49.939 77.3926 49.9023 77.478 49.8535C77.4902 49.8413 77.5146 49.8413 77.5269 49.8291C77.5879 49.7925 77.6489 49.7681 77.7222 49.7314L77.7954 49.6948C77.8809 49.6582 77.9541 49.6216 78.0395 49.5972C78.125 49.5605 78.2105 49.5361 78.2959 49.5117C78.3203 49.4995 78.3447 49.4995 78.3691 49.4873C78.4424 49.4629 78.5034 49.4507 78.5767 49.4385C78.6011 49.4385 78.6133 49.4263 78.6377 49.4263C78.7231 49.4019 78.8208 49.3896 78.9063 49.3774C78.9307 49.3774 78.9429 49.3774 78.9673 49.3652C79.0405 49.353 79.1138 49.353 79.187 49.3408H79.2603C79.3579 49.3408 79.4434 49.3286 79.541 49.3286C79.6387 49.3286 79.7241 49.3286 79.8218 49.3408H79.895C79.9683 49.3408 80.0415 49.353 80.1147 49.3652C80.1392 49.3652 80.1514 49.3652 80.1758 49.3774C80.2612 49.3896 80.3589 49.4019 80.4443 49.4263C80.4688 49.4263 80.481 49.4385 80.5054 49.4385C80.5786 49.4507 80.6519 49.4751 80.7129 49.4873C80.7373 49.4995 80.7617 49.4995 80.7861 49.5117C80.8716 49.5361 80.957 49.5605 81.0425 49.5972C81.1279 49.6216 81.2012 49.6582 81.2866 49.6948L81.3599 49.7314C81.4209 49.7559 81.4941 49.7925 81.5552 49.8291C81.5674 49.8413 81.5918 49.8413 81.604 49.8535C81.6772 49.8901 81.7627 49.939 81.8359 49.9878C81.8481 50 81.8726 50.0122 81.8848 50.0244C81.9458 50.061 82.0068 50.0977 82.0557 50.1465C82.0801 50.1587 82.0923 50.1709 82.1167 50.1831C82.1899 50.2319 82.2632 50.293 82.3242 50.3418C82.3853 50.3906 82.4585 50.4517 82.5195 50.5127L82.5684 50.5615L82.7148 50.708L82.7515 50.7446C82.8125 50.8057 82.8735 50.8789 82.9224 50.9399C82.9346 50.9521 82.9468 50.9766 82.959 50.9888C83.0078 51.0376 83.0444 51.0986 83.0811 51.1597C83.0933 51.1841 83.1055 51.1963 83.1177 51.2207L83.2642 51.4404V51.4526C83.6712 52.1356 83.8863 52.9159 83.8867 53.7109C83.8867 54.4434 83.7036 55.1392 83.3862 55.7495C83.3496 55.8228 83.3008 55.896 83.2642 55.9692V55.9814L83.1177 56.2012C83.1055 56.2256 83.0933 56.2378 83.0811 56.2622C83.0444 56.3232 82.9956 56.3721 82.959 56.4331C82.9468 56.4453 82.9346 56.4697 82.9224 56.4819C82.8613 56.5552 82.8125 56.6162 82.7515 56.6772L82.7148 56.7139L82.5684 56.8604L82.5195 56.9092C82.4585 56.9702 82.3975 57.019 82.3242 57.0801C82.251 57.1411 82.1899 57.1899 82.1167 57.2388C82.0923 57.251 82.0801 57.2632 82.0557 57.2754C81.9946 57.312 81.9458 57.3608 81.8848 57.3975C81.8726 57.4097 81.8481 57.4219 81.8359 57.4341C81.7627 57.4829 81.6895 57.5195 81.604 57.5684C81.5918 57.5806 81.5674 57.5806 81.5552 57.5928C81.4941 57.6294 81.4331 57.6538 81.3599 57.6904L81.2866 57.7271C81.2012 57.7637 81.1279 57.8003 81.0425 57.8247C80.957 57.8613 80.8716 57.8857 80.7861 57.9102C80.7617 57.9224 80.7373 57.9224 80.7129 57.9346C80.6396 57.959 80.5786 57.9712 80.5054 57.9834C80.481 57.9834 80.4688 57.9956 80.4443 57.9956C80.3589 58.02 80.2612 58.0322 80.1758 58.0444C80.1514 58.0444 80.1392 58.0444 80.1147 58.0566C80.0415 58.0688 79.9683 58.0688 79.895 58.0811H79.8218C79.7241 58.0811 79.6387 58.0933 79.541 58.0933C79.4434 58.0933 79.3579 58.0933 79.2603 58.0811H79.187C79.1138 58.0811 79.0405 58.0688 78.9673 58.0566C78.9429 58.0566 78.9307 58.0566 78.9063 58.0444C78.8208 58.0322 78.7231 58.02 78.6377 57.9956C78.6133 57.9956 78.6011 57.9834 78.5767 57.9834C78.5034 57.9712 78.4302 57.9468 78.3691 57.9346C78.3447 57.9224 78.3203 57.9224 78.2959 57.9102C78.2105 57.8857 78.125 57.8613 78.0395 57.8247C77.9541 57.8003 77.8809 57.7637 77.7954 57.7271L77.7222 57.6904C77.6611 57.666 77.5879 57.6294 77.5269 57.5928C77.5146 57.5806 77.4902 57.5806 77.478 57.5684C77.4048 57.5317 77.3193 57.4829 77.2461 57.4341C77.2339 57.4219 77.2095 57.4097 77.1973 57.3975C77.1362 57.3608 77.0752 57.3242 77.0264 57.2754C77.002 57.2632 76.9897 57.251 76.9653 57.2388C76.8921 57.1899 76.8188 57.1289 76.7578 57.0801C76.6968 57.0313 76.6235 56.9702 76.5625 56.9092L76.5137 56.8604L76.3672 56.7139L76.3306 56.6772C76.2695 56.6162 76.2085 56.543 76.1597 56.4819C76.1475 56.4697 76.1353 56.4453 76.123 56.4331C76.0742 56.3843 76.0376 56.3232 76.001 56.2622C75.9888 56.2378 75.9766 56.2256 75.9644 56.2012L75.8179 55.9814V55.9692C75.769 55.896 75.7324 55.8228 75.6958 55.7495C75.3784 55.1392 75.1953 54.4434 75.1953 53.7109C75.1953 52.9785 75.3784 52.2827 75.6958 51.6724Z" fill="#ACADBE"/>
</svg>
