<svg width="125" height="125" viewBox="0 0 125 125" fill="none" xmlns="http://www.w3.org/2000/svg">
<path d="M101.562 56.6406H93.2617V29.2969C93.2617 20.6665 86.2671 13.6719 77.6367 13.6719H47.3633C38.7329 13.6719 31.7383 20.6665 31.7383 29.2969V56.6406H23.4375C21.2769 56.6406 19.5312 58.3862 19.5312 60.5469V107.422C19.5312 109.583 21.2769 111.328 23.4375 111.328H101.562C103.723 111.328 105.469 109.583 105.469 107.422V60.5469C105.469 58.3862 103.723 56.6406 101.562 56.6406ZM40.5273 29.2969C40.5273 25.5249 43.5913 22.4609 47.3633 22.4609H77.6367C81.4087 22.4609 84.4727 25.5249 84.4727 29.2969V56.6406H40.5273V29.2969ZM96.6797 102.539H28.3203V65.4297H96.6797V102.539ZM59.082 85.5713V92.041C59.082 92.5781 59.5215 93.0176 60.0586 93.0176H64.9414C65.4785 93.0176 65.918 92.5781 65.918 92.041V85.5713C66.9256 84.8478 67.6777 83.8233 68.066 82.6452C68.4544 81.4671 68.4588 80.1961 68.0788 79.0153C67.6989 77.8345 66.954 76.8047 65.9515 76.0742C64.9489 75.3436 63.7405 74.95 62.5 74.95C61.2595 74.95 60.0511 75.3436 59.0485 76.0742C58.046 76.8047 57.3011 77.8345 56.9212 79.0153C56.5412 80.1961 56.5456 81.4671 56.934 82.6452C57.3223 83.8233 58.0744 84.8478 59.082 85.5713Z" fill="#ACADBE"/>
</svg>
