<?xml version="1.0" encoding="UTF-8" standalone="no"?>
<svg
   xmlns:dc="http://purl.org/dc/elements/1.1/"
   xmlns:cc="http://creativecommons.org/ns#"
   xmlns:rdf="http://www.w3.org/1999/02/22-rdf-syntax-ns#"
   xmlns:svg="http://www.w3.org/2000/svg"
   xmlns="http://www.w3.org/2000/svg"
   xmlns:sodipodi="http://sodipodi.sourceforge.net/DTD/sodipodi-0.dtd"
   xmlns:inkscape="http://www.inkscape.org/namespaces/inkscape"
   version="1.1"
   id="svg2"
   xml:space="preserve"
   width="1239.72"
   height="366.03333"
   viewBox="0 0 1239.72 366.03333"
   sodipodi:docname="Log_AXIANS_CRVB.pdf"><metadata
     id="metadata8"><rdf:RDF><cc:Work
         rdf:about=""><dc:format>image/svg+xml</dc:format><dc:type
           rdf:resource="http://purl.org/dc/dcmitype/StillImage" /></cc:Work></rdf:RDF></metadata><defs
     id="defs6"><clipPath
       clipPathUnits="userSpaceOnUse"
       id="clipPath18"><path
         d="M 0,274.525 H 929.79 V 0 H 0 Z"
         id="path16" /></clipPath></defs><sodipodi:namedview
     pagecolor="#ffffff"
     bordercolor="#666666"
     borderopacity="1"
     objecttolerance="10"
     gridtolerance="10"
     guidetolerance="10"
     inkscape:pageopacity="0"
     inkscape:pageshadow="2"
     inkscape:window-width="640"
     inkscape:window-height="480"
     id="namedview4" /><g
     id="g10"
     inkscape:groupmode="layer"
     inkscape:label="Log_AXIANS_CRVB"
     transform="matrix(1.3333333,0,0,-1.3333333,0,366.03333)"><g
       id="g12"><g
         id="g14"
         clip-path="url(#clipPath18)"><g
           id="g20"
           transform="translate(735.0616,90.7162)"><path
             d="m 0,0 c -4.433,2.477 -1.562,5.8 -1.562,5.8 l 8.373,10.338 c 1.804,2.184 4.231,1.953 5.998,1.036 C 32.085,7.368 57.93,4.944 76.541,7.463 92.695,9.649 95.515,16.6 95.515,22.619 c 0,8.574 -8.198,11.384 -8.198,11.384 -4.906,2.63 -24.547,3.819 -48.788,6.294 C 14.288,42.773 0.331,54.624 0.331,73.23 c 0,11.535 4.672,19.396 15.327,26.405 11.192,7.363 56.29,18.11 101.074,-6.266 4.138,-2.119 1.564,-5.795 1.564,-5.795 L 109.924,77.235 C 108.042,75.158 105.636,75.37 103.925,76.198 90.815,83.275 71.163,86.953 52.632,86.871 24.25,86.045 24.227,77.141 24.227,73.23 c 0,-4.376 0,-9.823 17.624,-11.868 L 75.262,57.738 C 106.54,54.365 119.885,42.11 119.292,21.591 118.698,1.072 105.615,-7.043 88.448,-11.734 88.448,-11.734 43.198,-24.135 0,0"
             style="fill:#005eb8;fill-opacity:1;fill-rule:nonzero;stroke:none"
             id="path22" /></g><g
           id="g24"
           transform="translate(443.4256,75.9207)"><path
             d="m 0,0 h -16.34 c -2.111,0 -3.823,1.712 -3.823,3.824 v 115.365 c 0,2.111 1.712,3.823 3.823,3.823 H 0 c 2.112,0 3.824,-1.712 3.824,-3.823 V 3.824 C 3.824,1.712 2.112,0 0,0"
             style="fill:#005eb8;fill-opacity:1;fill-rule:nonzero;stroke:none"
             id="path26" /></g><g
           id="g28"
           transform="translate(308.5954,120.7101)"><path
             d="m 0,0 c 48.255,-52.551 92.544,-44.352 92.544,-44.352 2.112,0 3.824,1.699 3.824,3.794 v 14.806 c 0,2.095 -1.712,3.794 -3.824,3.794 0,0 -26.981,-1.06 -46.642,11.178 -19.6,12.201 -30.647,27.388 -30.715,27.482 0.068,0.093 11.115,15.28 30.715,27.481 19.661,12.238 46.642,11.178 46.642,11.178 2.112,0 3.824,1.699 3.824,3.794 v 14.806 c 0,2.095 -1.712,3.794 -3.824,3.794 0,0 -44.286,8.199 -92.54,-44.348 -48.255,52.551 -92.544,44.352 -92.544,44.352 -2.112,0 -3.824,-1.698 -3.824,-3.794 V 59.159 c 0,-2.095 1.712,-3.793 3.824,-3.793 0,0 26.981,1.06 46.642,-11.179 19.6,-12.201 30.647,-27.387 30.715,-27.481 -0.068,-0.094 -11.115,-15.28 -30.715,-27.481 -19.661,-12.239 -46.642,-11.179 -46.642,-11.179 -2.112,0 -3.824,-1.698 -3.824,-3.793 v -14.806 c 0,-2.096 1.712,-3.794 3.824,-3.794 0,0 44.287,-8.199 92.54,44.347"
             style="fill:#a20067;fill-opacity:1;fill-rule:nonzero;stroke:none"
             id="path30" /></g><g
           id="g32"
           transform="translate(546.9022,97.0251)"><path
             d="m 0,0 h -48.957 c -8.737,0 -15.842,7.408 -15.842,16.516 0,9.098 7.105,16.505 15.842,16.505 H 0 c 8.726,0 15.831,-7.407 15.831,-16.505 C 15.831,7.408 8.726,0 0,0 m 21.056,91.875 c -11.19,7.44 -54.164,20.153 -98.944,-4.487 -4.14,-2.14 -1.56,-5.86 -1.56,-5.86 l 8.37,-10.45 c 1.88,-2.1 4.29,-1.89 6,-1.05 13.11,7.15 30.634,10.303 49.164,10.223 28.38,-0.84 29.73,-11.115 29.73,-15.065 V 50.995 c -4.6,2.01 -9.69,3.13 -15.04,3.13 h -46.51 c -20.78,0 -37.62,-16.839 -37.62,-37.609 0,-10.39 4.21,-19.8 11.02,-26.6 6.8,-6.81 16.21,-11.02 26.6,-11.02 h 46.51 c 20.77,0 37.61,16.84 37.61,37.62 v 48.67 c 0,11.66 -4.67,19.61 -15.33,26.689"
             style="fill:#005eb8;fill-opacity:1;fill-rule:nonzero;stroke:none"
             id="path34" /></g><g
           id="g36"
           transform="translate(160.3968,97.0251)"><path
             d="m 0,0 h -48.957 c -8.737,0 -15.842,7.408 -15.842,16.516 0,9.098 7.105,16.505 15.842,16.505 H 0 c 8.726,0 15.831,-7.407 15.831,-16.505 C 15.831,7.408 8.726,0 0,0 m 21.056,91.875 c -11.19,7.44 -54.164,20.153 -98.944,-4.487 -4.14,-2.14 -1.56,-5.86 -1.56,-5.86 l 8.37,-10.45 c 1.88,-2.1 4.29,-1.89 6,-1.05 13.11,7.15 30.634,10.303 49.164,10.223 28.38,-0.84 29.73,-11.115 29.73,-15.065 V 50.995 c -4.6,2.01 -9.69,3.13 -15.04,3.13 h -46.51 c -20.78,0 -37.62,-16.839 -37.62,-37.609 0,-10.39 4.21,-19.8 11.02,-26.6 6.8,-6.81 16.21,-11.02 26.6,-11.02 h 46.51 c 20.77,0 37.61,16.84 37.61,37.62 v 48.67 c 0,11.66 -4.67,19.61 -15.33,26.689"
             style="fill:#005eb8;fill-opacity:1;fill-rule:nonzero;stroke:none"
             id="path38" /></g><g
           id="g40"
           transform="translate(659.8928,198.9591)"><path
             d="m 0,0 c 13.525,0 21.505,-1.295 21.505,-1.295 39.27,-4.977 38.088,-34.496 38.088,-34.496 v -83.219 c 0,-2.112 -1.712,-3.824 -3.824,-3.824 H 40.847 c -2.112,0 -3.824,1.712 -3.824,3.824 v 83.219 c 0,0 0.471,10.831 -20.378,12.661 C 4.366,-22.052 0,-22.302 0,-22.302 c 0,0 -4.366,0.25 -16.645,-0.828 -20.849,-1.83 -20.378,-12.661 -20.378,-12.661 v -83.219 c 0,-2.112 -1.712,-3.824 -3.824,-3.824 h -14.922 c -2.112,0 -3.824,1.712 -3.824,3.824 v 83.219 c 0,0 -1.182,29.519 38.088,34.496 0,0 7.98,1.295 21.505,1.295"
             style="fill:#005eb8;fill-opacity:1;fill-rule:nonzero;stroke:none"
             id="path42" /></g></g></g></g></svg>
