<?xml version="1.0" encoding="UTF-8" standalone="no"?>
<!-- Created with Inkscape (http://www.inkscape.org/) -->

<svg
   width="436.24695"
   height="143.03406"
   id="svg3428"
   version="1.1"
   inkscape:version="1.4 (e7c3feb100, 2024-10-09)"
   sodipodi:docname="b1_logo_claim_display.svg"
   xmlns:inkscape="http://www.inkscape.org/namespaces/inkscape"
   xmlns:sodipodi="http://sodipodi.sourceforge.net/DTD/sodipodi-0.dtd"
   xmlns="http://www.w3.org/2000/svg"
   xmlns:svg="http://www.w3.org/2000/svg"
   xmlns:rdf="http://www.w3.org/1999/02/22-rdf-syntax-ns#"
   xmlns:cc="http://creativecommons.org/ns#"
   xmlns:dc="http://purl.org/dc/elements/1.1/">
  <defs
     id="defs3430" />
  <sodipodi:namedview
     id="base"
     pagecolor="#ffffff"
     bordercolor="#666666"
     borderopacity="1.0"
     inkscape:pageopacity="1"
     inkscape:pageshadow="2"
     inkscape:zoom="1.2277768"
     inkscape:cx="219.50244"
     inkscape:cy="15.067885"
     inkscape:document-units="px"
     inkscape:current-layer="layer1"
     showgrid="false"
     units="cm"
     inkscape:window-width="1918"
     inkscape:window-height="1038"
     inkscape:window-x="1920"
     inkscape:window-y="20"
     inkscape:window-maximized="1"
     inkscape:showpageshadow="0"
     inkscape:pagecheckerboard="0"
     inkscape:deskcolor="#d1d1d1"
     showguides="true"
     inkscape:export-bgcolor="#ffffffff">
    <sodipodi:guide
       position="561.15266,72.303742"
       orientation="1,0"
       id="guide7"
       inkscape:locked="false" />
  </sodipodi:namedview>
  <metadata
     id="metadata3433">
    <rdf:RDF>
      <cc:Work
         rdf:about="">
        <dc:format>image/svg+xml</dc:format>
        <dc:type
           rdf:resource="http://purl.org/dc/dcmitype/StillImage" />
      </cc:Work>
    </rdf:RDF>
  </metadata>
  <g
     inkscape:label="Ebene 1"
     inkscape:groupmode="layer"
     id="layer1"
     transform="translate(9.9525375,-924.31305)">
    <g
       id="g4554"
       transform="matrix(0.53249592,0,0,0.53249592,-7.131183,927.16749)"
       inkscape:export-filename="g45542.png"
       inkscape:export-xdpi="90"
       inkscape:export-ydpi="90">
      <path
         inkscape:connector-curvature="0"
         id="path4556"
         d="M 18.114411,82.269777 V 124.3781 c 0,0 0,42.07272 0,63.11463 42.090714,0 79.981884,0.0239 79.981884,0.0239 21.044985,0 21.030225,-21.05416 21.030225,-21.05416 0,0 0,-42.09205 0,-63.13856 0,0 0.0178,-21.054164 -21.030225,-21.054163 -4.20777,0 -63.14469,-10e-7 -79.981884,0 z m 21.054164,21.054163 c 0,0 35.77427,0 46.29523,0 12.62637,0 12.63249,12.6325 12.63249,12.6325 V 153.83 c 0,-1e-5 -0.0061,12.6325 -12.63249,12.6325 h -46.29523 z"
         style="fill:#224779" />
      <path
         inkscape:connector-curvature="0"
         id="path4558"
         d="m 18.114411,19.131217 v 63.13856 c 0,21.041913 0,16.843328 0,16.843328 0,0 46.295224,0 63.138554,0 21.044975,0 21.054165,-16.843329 21.054165,-16.843328 0,-4.210833 0,-21.039425 0,-42.084399 0,0 -0.009,-21.054161 -21.054165,-21.054161 -4.2139,0 -46.30136,0 -63.138554,0 z m 21.054164,21.054161 h 33.66273 c 8.42166,0 8.42166,8.421665 8.42166,8.421665 0.0031,11.573663 0.0031,13.664343 0,25.241068 0,0 0,8.421666 -8.42166,8.421666 -2.43463,-1e-6 -17.85699,0 -21.05417,0 -12.6233,-0.0031 -12.60856,0 -12.60856,0 z"
         style="fill:#224779;fill-opacity:1" />
      <polyline
         points="214.426,33.712 126.457,55.704    214.426,55.704  "
         id="polyline4560"
         style="fill:#f7b234;stroke:#1a171b;stroke-width:1.4547;stroke-linejoin:round"
         transform="matrix(0.7656059,0,0,0.7656059,18.114421,18.580938)" />
      <polyline
         points="   214.426,33.712 126.457,55.704 214.422,0.728  "
         id="polyline4562"
         style="fill:#1a171b;stroke:#1a171b;stroke-width:1.4547;stroke-linecap:round;stroke-linejoin:round"
         transform="matrix(0.7656059,0,0,0.7656059,18.114421,18.580938)" />
      <path
         inkscape:connector-curvature="0"
         d="M 182.28023,187.50958 V 19.138299 h 16.84026 c 0,0 25.25883,0 25.25577,25.252744 0,16.837204 0,143.119297 0,143.119297 h -42.09603 z"
         id="path4564"
         style="fill:#1a171b;stroke:#1a171b;stroke-width:1.11373;stroke-linecap:round;stroke-linejoin:round" />
      <polygon
         points="214.426,220.647 269.41,220.647 236.422,132.677 236.422,83.196 214.426,55.704 214.426,220.647 "
         id="polygon4566"
         style="fill:#ffffff;stroke:#1a171b;stroke-width:0.9698"
         transform="matrix(0.7656059,0,0,0.7656059,18.114421,18.580938)" />
      <path
         inkscape:connector-curvature="0"
         d="m 19.265895,221.02321 c 1.45923,0.92715 3.54398,1.63916 5.78721,1.63916 3.32273,0 5.2666,-1.71649 5.2666,-4.29428 0,-2.31443 -1.34593,-3.69635 -4.74599,-4.96419 -4.10288,-1.49523 -6.64546,-3.66037 -6.64546,-7.16531 0,-3.92372 3.24464,-6.83686 8.14068,-6.83686 2.54181,0 4.44435,0.59182 5.52998,1.23186 l -0.89729,2.65589 c -0.77786,-0.49075 -2.45836,-1.202 -4.73986,-1.202 -3.43911,0 -4.74293,2.05795 -4.74293,3.77443 0,2.35042 1.53427,3.51108 4.99711,4.85701 4.26136,1.67515 6.38821,3.69022 6.38821,7.39269 0,3.87549 -2.83503,7.27938 -8.77155,7.27938 -2.4285,0 -5.08439,-0.74187 -6.42956,-1.64452 z"
         id="path4568"
         style="fill:#1a171b" />
      <path
         inkscape:connector-curvature="0"
         d="m 54.896415,224.97679 v -10.67637 l -7.98832,-14.48679 h 3.73232 l 3.54399,6.94404 c 0.9394,1.90177 1.71955,3.43298 2.50353,5.18545 h 0.07503 c 0.67603,-1.63916 1.57026,-3.28368 2.54488,-5.18545 l 3.62744,-6.94404 h 3.64581 l -8.40405,14.45081 v 10.71235 z"
         id="path4570"
         style="fill:#1a171b" />
      <path
         inkscape:connector-curvature="0"
         d="m 79.817655,221.02321 c 1.45619,0.92715 3.55318,1.63916 5.78951,1.63916 3.33192,0 5.26048,-1.71649 5.26048,-4.29428 0,-2.31443 -1.34288,-3.69635 -4.73451,-4.96419 -4.11206,-1.49523 -6.65388,-3.66037 -6.65388,-7.16531 0,-3.92372 3.2477,-6.83686 8.14988,-6.83686 2.53032,0 4.4474,0.59182 5.51772,1.23186 l -0.89423,2.65589 c -0.78092,-0.49075 -2.45836,-1.202 -4.7345,-1.202 -3.44217,0 -4.75212,2.05795 -4.75212,3.77443 0,2.35042 1.53427,3.51108 5.0063,4.85701 4.25829,1.67515 6.37903,3.69022 6.37903,7.39269 0,3.87549 -2.83811,7.27938 -8.76543,7.27938 -2.4285,0 -5.08133,-0.74187 -6.42114,-1.64452 z"
         id="path4572"
         style="fill:#1a171b" />
      <path
         inkscape:connector-curvature="0"
         d="m 114.63434,202.57671 h -7.65912 v -2.76308 h 18.64098 v 2.76308 h -7.69816 v 22.40008 h -3.2837 z"
         id="path4574"
         style="fill:#1a171b" />
      <path
         inkscape:connector-curvature="0"
         d="m 152.61911,213.17575 h -9.74386 v 9.07932 h 10.89764 v 2.72172 h -14.18744 v -25.16316 h 13.6316 v 2.72173 h -10.3418 v 7.95541 h 9.74386 z"
         id="path4576"
         style="fill:#1a171b" />
      <path
         inkscape:connector-curvature="0"
         d="m 190.42091,213.92298 c -0.19447,-3.50494 -0.41572,-7.764 -0.41572,-10.86241 h -0.072 c -0.89731,2.91312 -1.91097,6.08273 -3.17344,9.55782 l -4.44129,12.20759 h -2.47062 l -4.10286,-11.98021 c -1.19359,-3.58916 -2.16514,-6.80087 -2.87103,-9.7852 h -0.075 c -0.0781,3.13439 -0.26645,7.32072 -0.49076,11.12501 l -0.67298,10.79045 h -3.09533 l 1.75247,-25.16317 h 4.14499 l 4.29122,12.16624 c 1.04351,3.10454 1.86348,5.86149 2.53568,8.48139 h 0.0781 c 0.66378,-2.54181 1.57027,-5.29952 2.69187,-8.48139 l 4.47727,-12.16624 h 4.14805 l 1.57026,25.16317 h -3.21478 z"
         id="path4578"
         style="fill:#1a171b" />
      <path
         inkscape:connector-curvature="0"
         d="m 210.03648,221.02321 c 1.45619,0.92715 3.54706,1.63916 5.78417,1.63916 3.32576,0 5.26963,-1.71649 5.26963,-4.29428 0,-2.31443 -1.34592,-3.69635 -4.73983,-4.96419 -4.109,-1.49523 -6.65389,-3.66037 -6.65389,-7.16531 0,-3.92372 3.25689,-6.83686 8.14985,-6.83686 2.5334,0 4.43822,0.59182 5.52385,1.23186 l -0.89423,2.65589 c -0.78629,-0.49075 -2.4706,-1.202 -4.74906,-1.202 -3.42988,0 -4.73754,2.05795 -4.73754,3.77443 0,2.35042 1.52509,3.51108 5.00322,4.85701 4.25829,1.67515 6.38514,3.69022 6.38514,7.39269 0,3.87549 -2.84116,7.27938 -8.77764,7.27938 -2.42544,0 -5.07521,-0.74187 -6.42114,-1.64452 z"
         id="path4580"
         style="fill:#1a171b" />
      <path
         inkscape:connector-curvature="0"
         d="m 203.32519,35.975503 c 0,4.647227 -3.76525,8.41554 -8.41553,8.41554 -4.65029,0 -8.41861,-3.768313 -8.41861,-8.41554 0,-4.65029 3.76832,-8.421664 8.41861,-8.421664 4.65028,0 8.41553,3.771374 8.41553,8.421664 z"
         id="path4582"
         style="fill:#ffffff" />
      <path
         inkscape:connector-curvature="0"
         d="m 199.12049,35.975503 c 0,2.320551 -1.8811,4.20777 -4.21083,4.20777 -2.32057,0 -4.20471,-1.887219 -4.20471,-4.20777 0,-2.326676 1.88414,-4.213894 4.20471,-4.213894 2.32973,0 4.21083,1.887218 4.21083,4.213894 z"
         id="path4584"
         style="fill:#1a171b" />
    </g>
    <path
       style="fill:none;stroke:#224779;stroke-width:0.5;stroke-linecap:butt;stroke-linejoin:miter;stroke-dasharray:none;stroke-opacity:1"
       d="M 139.66169,935.96576 V 1048.7552"
       id="path6" />
    <g
       id="text2-9"
       style="font-weight:bold;font-size:26.6667px;line-height:1.25;font-family:'PT Sans';-inkscape-font-specification:'PT Sans, Bold';text-align:center;letter-spacing:0px;word-spacing:0px;white-space:pre;fill:#224779;stroke-width:1.29185"
       transform="matrix(0.77408131,0,0,0.77408131,1836.42,7006.0789)"
       aria-label="Linux/Open Source Consulting, Training, Managed Service &amp; Support">
      <path
         d="m -2097.1767,-7821.2075 h -11.8134 v -18.6667 h 3.6534 v 15.4133 h 8.16 z m 2.1066,-13.3334 h 3.4667 v 13.3334 h -3.4667 z m -0.5066,-3.76 q 0,-0.7733 0.56,-1.3066 0.5867,-0.56 1.6,-0.56 1.0133,0 1.6267,0.56 0.64,0.5333 0.64,1.3066 0,0.7734 -0.64,1.3067 -0.6134,0.5067 -1.6267,0.5067 -1.0133,0 -1.6,-0.5067 -0.56,-0.5333 -0.56,-1.3067 z m 15.5466,17.0934 v -7.5734 q 0,-1.6266 -0.48,-2.3466 -0.4533,-0.72 -1.5733,-0.72 -0.9867,0 -1.68,0.5866 -0.6667,0.56 -0.96,1.4134 v 8.64 h -3.4667 v -13.3334 h 2.7467 l 0.4,1.76 h 0.1067 q 0.6133,-0.8533 1.6266,-1.4933 1.0134,-0.64 2.6134,-0.64 0.9866,0 1.76,0.2667 0.7733,0.2666 1.3066,0.88 0.5334,0.6133 0.8,1.68 0.2667,1.04 0.2667,2.5866 v 8.2934 z m 9.7067,-13.3334 v 7.5734 q 0,1.6266 0.3734,2.3466 0.4,0.72 1.52,0.72 0.9866,0 1.6266,-0.5866 0.6667,-0.5867 0.9867,-1.44 v -8.6134 h 3.4667 v 9.28 q 0,1.0934 0.1066,2.16 0.1067,1.04 0.32,1.8934 h -2.6133 l -0.6133,-1.9734 h -0.1067 q -0.6133,1.0134 -1.7067,1.68 -1.0933,0.6667 -2.5866,0.6667 -1.0134,0 -1.8134,-0.2667 -0.8,-0.2666 -1.3333,-0.88 -0.5333,-0.6133 -0.8267,-1.6533 -0.2666,-1.04 -0.2666,-2.6133 v -8.2934 z m 14.0267,6.5067 -4,-6.5067 h 4.1333 l 1.7334,2.8534 0.7466,1.8666 0.8,-1.8666 1.8134,-2.8534 h 3.76 l -4.0267,6.4 4.2934,6.9334 h -4.0267 l -2.0534,-3.2 -0.8,-1.9734 -0.8533,1.9734 -2.0533,3.2 h -3.7867 z m 18.3467,-12.16 2.6133,1.1733 -9.52,21.5467 -2.6133,-1.2267 z m 3.0134,9.6533 q 0,-4.6666 2.0533,-7.1733 2.0533,-2.5333 5.8667,-2.5333 2,0 3.4933,0.6933 1.4933,0.6933 2.48,1.9733 0.9867,1.28 1.4667,3.0667 0.48,1.7867 0.48,3.9733 0,4.6667 -2.08,7.2 -2.0534,2.5067 -5.84,2.5067 -2.0267,0 -3.52,-0.6933 -1.4934,-0.6934 -2.48,-1.9734 -0.96,-1.28 -1.44,-3.0666 -0.48,-1.7867 -0.48,-3.9734 z m 3.84,0 q 0,1.4134 0.24,2.6134 0.24,1.1733 0.72,2.0266 0.5066,0.8534 1.28,1.3334 0.7733,0.48 1.84,0.48 1.9466,0 3.0133,-1.52 1.0667,-1.52 1.0667,-4.9334 0,-1.36 -0.24,-2.5333 -0.2134,-1.1733 -0.6934,-2.0533 -0.48,-0.88 -1.2533,-1.36 -0.7733,-0.5067 -1.8933,-0.5067 -1.9467,0 -3.0134,1.5733 -1.0666,1.5467 -1.0666,4.88 z m 14.5333,-4 h 2.5334 l 0.4,1.6 h 0.1066 q 0.6934,-1.0133 1.6267,-1.4933 0.96,-0.48 2.32,-0.48 2.5067,0 3.76,1.6 1.2533,1.5733 1.2533,5.0933 0,1.7067 -0.4,3.0934 -0.4,1.36 -1.2,2.32 -0.7733,0.96 -1.92,1.4666 -1.12,0.5067 -2.5866,0.5067 -0.8267,0 -1.36,-0.1333 -0.5334,-0.1067 -1.0667,-0.3734 v 5.4667 h -3.4667 z m 5.9467,2.56 q -1.0133,0 -1.6,0.5067 -0.56,0.5067 -0.88,1.52 v 5.5467 q 0.3733,0.2933 0.8,0.48 0.4533,0.16 1.1733,0.16 1.4934,0 2.24,-1.04 0.7467,-1.0667 0.7467,-3.4934 0,-1.76 -0.5867,-2.72 -0.5866,-0.96 -1.8933,-0.96 z m 19.12,9.6267 q -0.8,0.64 -2.1866,1.0933 -1.36,0.4267 -2.9067,0.4267 -3.2267,0 -4.72,-1.8667 -1.4933,-1.8933 -1.4933,-5.1733 0,-3.52 1.68,-5.28 1.68,-1.76 4.72,-1.76 1.0133,0 1.9733,0.2667 0.96,0.2666 1.7067,0.88 0.7466,0.6133 1.2,1.6533 0.4533,1.04 0.4533,2.5867 0,0.56 -0.08,1.2 -0.053,0.64 -0.1867,1.3333 h -8 q 0.08,1.68 0.8534,2.5333 0.8,0.8534 2.56,0.8534 1.0933,0 1.9466,-0.32 0.88,-0.3467 1.3334,-0.6934 z m -4.96,-9.7867 q -1.36,0 -2.0266,0.8267 -0.64,0.8 -0.7734,2.16 h 4.96 q 0.1067,-1.44 -0.4533,-2.2133 -0.5333,-0.7734 -1.7067,-0.7734 z m 16,10.9334 v -7.5734 q 0,-1.6266 -0.48,-2.3466 -0.4533,-0.72 -1.5733,-0.72 -0.9867,0 -1.68,0.5866 -0.6667,0.56 -0.96,1.4134 v 8.64 h -3.4667 v -13.3334 h 2.7467 l 0.4,1.76 h 0.1067 q 0.6133,-0.8533 1.6266,-1.4933 1.0134,-0.64 2.6134,-0.64 0.9866,0 1.76,0.2667 0.7733,0.2666 1.3066,0.88 0.5334,0.6133 0.8,1.68 0.2667,1.04 0.2667,2.5866 v 8.2934 z m 21.2534,-5.0134 q 0,-0.8533 -0.64,-1.3866 -0.6133,-0.5334 -1.5733,-0.96 -0.9334,-0.4534 -2.0534,-0.9067 -1.0933,-0.48 -2.0533,-1.1467 -0.9333,-0.6933 -1.5733,-1.7066 -0.6134,-1.0134 -0.6134,-2.5867 0,-1.36 0.4534,-2.3467 0.4533,-1.0133 1.28,-1.68 0.8533,-0.6666 2,-0.9866 1.1466,-0.32 2.56,-0.32 1.6266,0 3.0666,0.2933 1.44,0.2667 2.3734,0.8 l -1.1467,3.0667 q -0.5867,-0.3734 -1.76,-0.6667 -1.1733,-0.32 -2.5333,-0.32 -1.28,0 -1.9734,0.5067 -0.6666,0.5066 -0.6666,1.36 0,0.8 0.6133,1.3333 0.64,0.5333 1.5733,0.9867 0.96,0.4533 2.0534,0.9333 1.12,0.48 2.0533,1.1733 0.96,0.6667 1.5733,1.68 0.64,0.9867 0.64,2.48 0,1.4934 -0.5066,2.5867 -0.48,1.0667 -1.3867,1.7867 -0.88,0.72 -2.16,1.0666 -1.2533,0.3467 -2.7733,0.3467 -2,0 -3.52,-0.3733 -1.52,-0.3734 -2.24,-0.7467 l 1.1733,-3.12 q 0.2933,0.16 0.7467,0.3467 0.48,0.1866 1.0666,0.3466 0.5867,0.16 1.2267,0.2667 0.6667,0.1067 1.36,0.1067 1.6267,0 2.48,-0.5334 0.88,-0.56 0.88,-1.68 z m 5.36,-1.6533 q 0,-3.3867 1.6534,-5.2 1.6533,-1.84 4.64,-1.84 1.6,0 2.7733,0.5067 1.1733,0.5066 1.9467,1.44 0.7733,0.9066 1.1466,2.2133 0.4,1.3067 0.4,2.88 0,3.3867 -1.6533,5.2267 -1.6267,1.8133 -4.6133,1.8133 -1.6,0 -2.7734,-0.5067 -1.1733,-0.5066 -1.9733,-1.4133 -0.7733,-0.9333 -1.1733,-2.24 -0.3734,-1.3067 -0.3734,-2.88 z m 3.5734,0 q 0,0.88 0.16,1.6267 0.16,0.7466 0.48,1.3066 0.32,0.56 0.8266,0.88 0.5334,0.2934 1.2534,0.2934 1.36,0 2.0266,-0.9867 0.6667,-0.9867 0.6667,-3.12 0,-1.84 -0.6133,-2.96 -0.6134,-1.1467 -2.08,-1.1467 -1.28,0 -2,0.96 -0.72,0.96 -0.72,3.1467 z m 14.72,-6.6667 v 7.5734 q 0,1.6266 0.3733,2.3466 0.4,0.72 1.52,0.72 0.9867,0 1.6267,-0.5866 0.6667,-0.5867 0.9867,-1.44 v -8.6134 h 3.4667 v 9.28 q 0,1.0934 0.1066,2.16 0.1067,1.04 0.32,1.8934 h -2.6133 l -0.6134,-1.9734 h -0.1066 q -0.6134,1.0134 -1.7067,1.68 -1.0933,0.6667 -2.5867,0.6667 -1.0133,0 -1.8133,-0.2667 -0.8,-0.2666 -1.3333,-0.88 -0.5334,-0.6133 -0.8267,-1.6533 -0.2667,-1.04 -0.2667,-2.6133 v -8.2934 z m 18.3734,3.2534 q -0.8267,-0.2934 -1.4934,-0.2934 -0.9333,0 -1.5733,0.5067 -0.6133,0.48 -0.8267,1.2533 v 8.6134 h -3.4667 v -13.3334 h 2.6934 l 0.4,1.76 h 0.1067 q 0.4533,-0.9866 1.2266,-1.52 0.7734,-0.5333 1.8134,-0.5333 0.6933,0 1.5733,0.2933 z m 11.44,9.2533 q -0.8,0.5867 -1.9467,0.88 -1.12,0.32 -2.32,0.32 -1.6,0 -2.72,-0.5067 -1.0933,-0.5066 -1.7867,-1.4133 -0.6933,-0.9333 -1.0133,-2.24 -0.2933,-1.3067 -0.2933,-2.88 0,-3.3867 1.52,-5.2 1.52,-1.84 4.4266,-1.84 1.4667,0 2.3467,0.24 0.9067,0.24 1.6267,0.6133 l -0.8267,2.8267 q -0.6133,-0.2933 -1.2267,-0.4533 -0.5866,-0.16 -1.36,-0.16 -1.44,0 -2.1866,0.96 -0.7467,0.9333 -0.7467,3.0133 0,0.8533 0.1867,1.5733 0.1866,0.72 0.56,1.2534 0.3733,0.5333 0.96,0.8533 0.6133,0.2933 1.4133,0.2933 0.88,0 1.4933,-0.2133 0.6134,-0.24 1.0934,-0.56 z m 12.32,-0.32 q -0.8,0.64 -2.1867,1.0933 -1.36,0.4267 -2.9066,0.4267 -3.2267,0 -4.72,-1.8667 -1.4934,-1.8933 -1.4934,-5.1733 0,-3.52 1.68,-5.28 1.68,-1.76 4.72,-1.76 1.0134,0 1.9734,0.2667 0.96,0.2666 1.7066,0.88 0.7467,0.6133 1.2,1.6533 0.4534,1.04 0.4534,2.5867 0,0.56 -0.08,1.2 -0.053,0.64 -0.1867,1.3333 h -8 q 0.08,1.68 0.8533,2.5333 0.8,0.8534 2.56,0.8534 1.0934,0 1.9467,-0.32 0.88,-0.3467 1.3333,-0.6934 z m -4.96,-9.7867 q -1.36,0 -2.0267,0.8267 -0.64,0.8 -0.7733,2.16 h 4.96 q 0.1067,-1.44 -0.4533,-2.2133 -0.5334,-0.7734 -1.7067,-0.7734 z"
         id="path1" />
      <path
         d="m -2101.9501,-7788.6474 q -0.8533,0.6134 -2.1867,0.88 -1.3066,0.2667 -2.6933,0.2667 -1.68,0 -3.2,-0.5067 -1.4933,-0.5333 -2.64,-1.68 -1.1467,-1.1733 -1.84,-3.0133 -0.6667,-1.8667 -0.6667,-4.5067 0,-2.7466 0.7467,-4.5866 0.7733,-1.8667 1.9733,-2.9867 1.2267,-1.1467 2.72,-1.6267 1.4934,-0.5066 2.9867,-0.5066 1.6,0 2.6933,0.2133 1.12,0.2133 1.84,0.5067 l -0.72,3.0933 q -0.6133,-0.2933 -1.4666,-0.4267 -0.8267,-0.1333 -2.0267,-0.1333 -2.2133,0 -3.5733,1.5733 -1.3334,1.5734 -1.3334,4.88 0,1.44 0.32,2.64 0.32,1.1734 0.96,2.0267 0.6667,0.8267 1.6267,1.3067 0.9867,0.4533 2.2667,0.4533 1.2,0 2.0266,-0.24 0.8267,-0.24 1.44,-0.6133 z m 0.5867,-5.8933 q 0,-3.3867 1.6533,-5.2 1.6534,-1.84 4.64,-1.84 1.6,0 2.7734,0.5067 1.1733,0.5066 1.9466,1.44 0.7734,0.9066 1.1467,2.2133 0.4,1.3067 0.4,2.88 0,3.3867 -1.6533,5.2267 -1.6267,1.8133 -4.6134,1.8133 -1.6,0 -2.7733,-0.5067 -1.1733,-0.5066 -1.9733,-1.4133 -0.7734,-0.9333 -1.1734,-2.24 -0.3733,-1.3067 -0.3733,-2.88 z m 3.5733,0 q 0,0.88 0.16,1.6267 0.16,0.7466 0.48,1.3066 0.32,0.56 0.8267,0.88 0.5333,0.2934 1.2533,0.2934 1.36,0 2.0267,-0.9867 0.6667,-0.9867 0.6667,-3.12 0,-1.84 -0.6134,-2.96 -0.6133,-1.1467 -2.08,-1.1467 -1.28,0 -2,0.96 -0.72,0.96 -0.72,3.1467 z m 19.5467,6.6667 v -7.5734 q 0,-1.6266 -0.48,-2.3466 -0.4533,-0.72 -1.5733,-0.72 -0.9867,0 -1.68,0.5866 -0.6667,0.56 -0.96,1.4134 v 8.64 h -3.4667 v -13.3334 h 2.7467 l 0.4,1.76 h 0.1067 q 0.6133,-0.8533 1.6266,-1.4933 1.0134,-0.64 2.6134,-0.64 0.9866,0 1.76,0.2667 0.7733,0.2666 1.3067,0.88 0.5333,0.6133 0.8,1.68 0.2666,1.04 0.2666,2.5866 v 8.2934 z m 11.8934,-3.68 q 0,-0.5334 -0.4533,-0.8534 -0.4534,-0.32 -1.12,-0.5866 -0.6667,-0.2667 -1.4667,-0.5334 -0.8,-0.2933 -1.4667,-0.7733 -0.6666,-0.5067 -1.12,-1.2533 -0.4533,-0.7734 -0.4533,-1.9734 0,-1.9733 1.1733,-3.0133 1.1734,-1.04 3.3867,-1.04 1.52,0 2.7467,0.32 1.2266,0.32 1.92,0.72 l -0.7734,2.5067 q -0.6133,-0.24 -1.5466,-0.5067 -0.9334,-0.2667 -1.8934,-0.2667 -1.5466,0 -1.5466,1.2 0,0.48 0.4533,0.7734 0.4533,0.2933 1.12,0.56 0.6667,0.24 1.4667,0.5333 0.8,0.2933 1.4666,0.7733 0.6667,0.4534 1.12,1.2 0.4534,0.7467 0.4534,1.92 0,2.0267 -1.3067,3.2 -1.28,1.1467 -3.8667,1.1467 -1.4133,0 -2.6666,-0.3733 -1.2267,-0.3467 -2,-0.8267 l 0.96,-2.5867 q 0.6133,0.3467 1.6266,0.6934 1.0134,0.32 2.08,0.32 0.7734,0 1.2267,-0.2934 0.48,-0.2933 0.48,-0.9866 z m 9.0667,-9.6534 v 7.5734 q 0,1.6266 0.3733,2.3466 0.4,0.72 1.52,0.72 0.9867,0 1.6267,-0.5866 0.6667,-0.5867 0.9867,-1.44 v -8.6134 h 3.4666 v 9.28 q 0,1.0934 0.1067,2.16 0.1067,1.04 0.32,1.8934 h -2.6133 l -0.6134,-1.9734 h -0.1066 q -0.6134,1.0134 -1.7067,1.68 -1.0933,0.6667 -2.5867,0.6667 -1.0133,0 -1.8133,-0.2667 -0.8,-0.2666 -1.3333,-0.88 -0.5334,-0.6133 -0.8267,-1.6533 -0.2667,-1.04 -0.2667,-2.6133 v -8.2934 z m 14.5867,8.8534 q 0,0.9333 0.24,1.36 0.24,0.4266 0.7733,0.4266 0.32,0 0.6134,-0.053 0.32,-0.053 0.7733,-0.24 l 0.3733,2.72 q -0.4266,0.2133 -1.3066,0.4267 -0.88,0.2133 -1.8134,0.2133 -1.52,0 -2.32,-0.6933 -0.8,-0.72 -0.8,-2.3467 v -16 h 3.4667 z m 2.88,-8.8534 h 1.84 v -2.5066 l 3.4667,-0.9867 v 3.4933 h 3.2533 v 2.9334 h -3.2533 v 5.12 q 0,1.3866 0.2667,2 0.2933,0.5866 1.0666,0.5866 0.5334,0 0.9067,-0.1066 0.4,-0.1067 0.88,-0.32 l 0.6133,2.6666 q -0.72,0.3467 -1.68,0.5867 -0.96,0.24 -1.9466,0.24 -1.84,0 -2.7201,-0.9333 -0.8533,-0.96 -0.8533,-3.12 v -6.72 h -1.84 z m 10.9867,0 h 3.4667 v 13.3334 h -3.4667 z m -0.5067,-3.76 q 0,-0.7733 0.56,-1.3066 0.5867,-0.56 1.6001,-0.56 1.0133,0 1.6266,0.56 0.64,0.5333 0.64,1.3066 0,0.7734 -0.64,1.3067 -0.6133,0.5067 -1.6266,0.5067 -1.0134,0 -1.6001,-0.5067 -0.56,-0.5333 -0.56,-1.3067 z m 15.5467,17.0934 v -7.5734 q 0,-1.6266 -0.48,-2.3466 -0.4533,-0.72 -1.5733,-0.72 -0.9867,0 -1.68,0.5866 -0.6667,0.56 -0.96,1.4134 v 8.64 h -3.4667 v -13.3334 h 2.7467 l 0.4,1.76 h 0.1066 q 0.6134,-0.8533 1.6267,-1.4933 1.0133,-0.64 2.6133,-0.64 0.9867,0 1.76,0.2667 0.7734,0.2666 1.3067,0.88 0.5333,0.6133 0.8,1.68 0.2667,1.04 0.2667,2.5866 v 8.2934 z m 17.6534,0 q 0,2.9066 -1.5734,4.2666 -1.5733,1.3867 -4.4,1.3867 -1.92,0 -3.04,-0.2667 -1.0933,-0.2666 -1.6533,-0.56 l 0.72,-2.7466 q 0.6133,0.24 1.4133,0.48 0.8267,0.24 2.0267,0.24 1.8133,0 2.4533,-0.8 0.6667,-0.7734 0.6667,-2.1867 v -0.8533 h -0.1067 q -0.9333,1.2533 -3.3066,1.2533 -2.5867,0 -3.8667,-1.6 -1.2533,-1.6 -1.2533,-5.0133 0,-3.5734 1.7066,-5.4134 1.7067,-1.84 4.96,-1.84 1.7067,0 3.04,0.24 1.36,0.24 2.2134,0.56 z m -5.8667,-2.56 q 1.0133,0 1.5467,-0.4534 0.56,-0.4533 0.8533,-1.36 v -6 q -0.8267,-0.3466 -2.0533,-0.3466 -1.3334,0 -2.08,1.0133 -0.7467,0.9867 -0.7467,3.1733 0,1.9467 0.64,2.96 0.64,1.0134 1.84,1.0134 z m 8.48,0.8533 q 0,-0.9067 0.5867,-1.44 0.6133,-0.5333 1.4933,-0.5333 1.12,0 1.76,0.7466 0.64,0.7467 0.64,1.9734 0,1.2 -0.3733,2.0533 -0.3734,0.88 -0.9334,1.44 -0.5333,0.5867 -1.1733,0.9067 -0.6133,0.3466 -1.12,0.5066 l -1.0133,-1.44 q 0.72,-0.2933 1.2533,-0.96 0.5333,-0.6666 0.5867,-1.4133 -0.6134,0.08 -1.1734,-0.3733 -0.5333,-0.4534 -0.5333,-1.4667 z m 24.4001,-13.7067 h -5.44 v 15.4134 h -3.6534 v -15.4134 h -5.4667 v -3.2533 h 14.5601 z m 6.3733,5.3334 q -0.8266,-0.2934 -1.4933,-0.2934 -0.9333,0 -1.5733,0.5067 -0.6134,0.48 -0.8267,1.2533 v 8.6134 h -3.4667 v -13.3334 h 2.6934 l 0.4,1.76 h 0.1066 q 0.4534,-0.9866 1.2267,-1.52 0.7733,-0.5333 1.8133,-0.5333 0.6934,0 1.5734,0.2933 z m 1.92,-2.48 q 1.0667,-0.48 2.5334,-0.7467 1.4666,-0.2933 3.0666,-0.2933 1.3867,0 2.32,0.3466 0.9334,0.32 1.4667,0.9334 0.56,0.6133 0.7733,1.4666 0.24,0.8534 0.24,1.92 0,1.1734 -0.08,2.3734 -0.08,1.1733 -0.1066,2.32 0,1.1466 0.08,2.24 0.08,1.0666 0.4,2.0266 h -2.8267 l -0.56,-1.84 h -0.1333 q -0.5334,0.8267 -1.4934,1.44 -0.9333,0.5867 -2.4266,0.5867 -0.9334,0 -1.68,-0.2667 -0.7467,-0.2933 -1.28,-0.8 -0.5334,-0.5333 -0.8267,-1.2266 -0.2933,-0.72 -0.2933,-1.6 0,-1.2267 0.5333,-2.0534 0.56,-0.8533 1.5733,-1.36 1.04,-0.5333 2.4534,-0.72 1.44,-0.2133 3.2,-0.1333 0.1866,-1.4933 -0.2134,-2.1333 -0.4,-0.6667 -1.7866,-0.6667 -1.04,0 -2.2134,0.2133 -1.1466,0.2134 -1.8933,0.56 z m 4.4,9.92 q 1.04,0 1.6534,-0.4534 0.6133,-0.48 0.9066,-1.0133 v -1.7333 q -0.8266,-0.08 -1.6,-0.027 -0.7466,0.053 -1.3333,0.24 -0.5867,0.1867 -0.9333,0.5333 -0.3467,0.3467 -0.3467,0.88 0,0.7467 0.4267,1.1734 0.4533,0.4 1.2266,0.4 z m 9.2001,-10.6934 h 3.4666 v 13.3334 h -3.4666 z m -0.5067,-3.76 q 0,-0.7733 0.56,-1.3066 0.5867,-0.56 1.6,-0.56 1.0133,0 1.6267,0.56 0.64,0.5333 0.64,1.3066 0,0.7734 -0.64,1.3067 -0.6134,0.5067 -1.6267,0.5067 -1.0133,0 -1.6,-0.5067 -0.56,-0.5333 -0.56,-1.3067 z m 15.5467,17.0934 v -7.5734 q 0,-1.6266 -0.48,-2.3466 -0.4534,-0.72 -1.5734,-0.72 -0.9867,0 -1.68,0.5866 -0.6667,0.56 -0.96,1.4134 v 8.64 h -3.4667 v -13.3334 h 2.7467 l 0.4,1.76 h 0.1067 q 0.6133,-0.8533 1.6266,-1.4933 1.0134,-0.64 2.6134,-0.64 0.9867,0 1.76,0.2667 0.7733,0.2666 1.3067,0.88 0.5333,0.6133 0.8,1.68 0.2666,1.04 0.2666,2.5866 v 8.2934 z m 6.6666,-13.3334 h 3.4667 v 13.3334 h -3.4667 z m -0.5066,-3.76 q 0,-0.7733 0.56,-1.3066 0.5866,-0.56 1.6,-0.56 1.0133,0 1.6266,0.56 0.64,0.5333 0.64,1.3066 0,0.7734 -0.64,1.3067 -0.6133,0.5067 -1.6266,0.5067 -1.0134,0 -1.6,-0.5067 -0.56,-0.5333 -0.56,-1.3067 z m 15.5466,17.0934 v -7.5734 q 0,-1.6266 -0.48,-2.3466 -0.4533,-0.72 -1.5733,-0.72 -0.9867,0 -1.68,0.5866 -0.6667,0.56 -0.96,1.4134 v 8.64 h -3.4667 v -13.3334 h 2.7467 l 0.4,1.76 h 0.1066 q 0.6134,-0.8533 1.6267,-1.4933 1.0133,-0.64 2.6134,-0.64 0.9866,0 1.76,0.2667 0.7733,0.2666 1.3066,0.88 0.5334,0.6133 0.8,1.68 0.2667,1.04 0.2667,2.5866 v 8.2934 z m 17.6534,0 q 0,2.9066 -1.5734,4.2666 -1.5733,1.3867 -4.4,1.3867 -1.92,0 -3.04,-0.2667 -1.0933,-0.2666 -1.6533,-0.56 l 0.72,-2.7466 q 0.6133,0.24 1.4133,0.48 0.8267,0.24 2.0267,0.24 1.8133,0 2.4533,-0.8 0.6667,-0.7734 0.6667,-2.1867 v -0.8533 h -0.1067 q -0.9333,1.2533 -3.3066,1.2533 -2.5867,0 -3.8667,-1.6 -1.2533,-1.6 -1.2533,-5.0133 0,-3.5734 1.7066,-5.4134 1.7067,-1.84 4.96,-1.84 1.7067,0 3.04,0.24 1.36,0.24 2.2134,0.56 z m -5.8667,-2.56 q 1.0133,0 1.5467,-0.4534 0.56,-0.4533 0.8533,-1.36 v -6 q -0.8267,-0.3466 -2.0533,-0.3466 -1.3334,0 -2.08,1.0133 -0.7467,0.9867 -0.7467,3.1733 0,1.9467 0.64,2.96 0.64,1.0134 1.84,1.0134 z m 8.48,0.8533 q 0,-0.9067 0.5867,-1.44 0.6133,-0.5333 1.4933,-0.5333 1.12,0 1.76,0.7466 0.64,0.7467 0.64,1.9734 0,1.2 -0.3733,2.0533 -0.3734,0.88 -0.9334,1.44 -0.5333,0.5867 -1.1733,0.9067 -0.6133,0.3466 -1.12,0.5066 l -1.0133,-1.44 q 0.72,-0.2933 1.2533,-0.96 0.5333,-0.6666 0.5867,-1.4133 -0.6134,0.08 -1.1734,-0.3733 -0.5333,-0.4534 -0.5333,-1.4667 z"
         id="path2" />
      <path
         d="m -2144.8034,-7764.2205 0.4,-3.7067 h -0.16 l -1.1467,2.9867 -3.9733,6.96 h -1.1734 l -4.1866,-6.9867 -1.1734,-2.96 h -0.1333 l 0.5333,3.68 v 9.7067 h -3.4667 v -18.6667 h 3.3334 l 4.9867,8.5333 0.88,2.1334 h 0.1066 l 0.8,-2.1867 4.72,-8.48 h 3.3067 v 18.6667 h -3.6533 z m 6.6933,-2.88 q 1.0667,-0.48 2.5333,-0.7467 1.4667,-0.2933 3.0667,-0.2933 1.3867,0 2.32,0.3466 0.9333,0.32 1.4667,0.9334 0.56,0.6133 0.7733,1.4666 0.24,0.8534 0.24,1.92 0,1.1734 -0.08,2.3734 -0.08,1.1733 -0.1067,2.32 0,1.1466 0.08,2.24 0.08,1.0666 0.4,2.0266 h -2.8266 l -0.56,-1.84 h -0.1334 q -0.5333,0.8267 -1.4933,1.44 -0.9333,0.5867 -2.4267,0.5867 -0.9333,0 -1.68,-0.2667 -0.7466,-0.2933 -1.28,-0.8 -0.5333,-0.5333 -0.8266,-1.2266 -0.2934,-0.72 -0.2934,-1.6 0,-1.2267 0.5334,-2.0534 0.56,-0.8533 1.5733,-1.36 1.04,-0.5333 2.4533,-0.72 1.44,-0.2133 3.2,-0.1333 0.1867,-1.4933 -0.2133,-2.1333 -0.4,-0.6667 -1.7867,-0.6667 -1.04,0 -2.2133,0.2133 -1.1467,0.2134 -1.8933,0.56 z m 4.4,9.92 q 1.04,0 1.6533,-0.4534 0.6134,-0.48 0.9067,-1.0133 v -1.7333 q -0.8267,-0.08 -1.6,-0.027 -0.7467,0.053 -1.3333,0.24 -0.5867,0.1867 -0.9334,0.5333 -0.3466,0.3467 -0.3466,0.88 0,0.7467 0.4266,1.1734 0.4534,0.4 1.2267,0.4 z m 17.0667,2.64 v -7.5734 q 0,-1.6266 -0.48,-2.3466 -0.4533,-0.72 -1.5733,-0.72 -0.9867,0 -1.6801,0.5866 -0.6666,0.56 -0.96,1.4134 v 8.64 h -3.4666 v -13.3334 h 2.7466 l 0.4,1.76 h 0.1067 q 0.6133,-0.8533 1.6267,-1.4933 1.0133,-0.64 2.6133,-0.64 0.9867,0 1.76,0.2667 0.7734,0.2666 1.3067,0.88 0.5333,0.6133 0.8,1.68 0.2667,1.04 0.2667,2.5866 v 8.2934 z m 6.2933,-12.56 q 1.0667,-0.48 2.5334,-0.7467 1.4666,-0.2933 3.0666,-0.2933 1.3867,0 2.32,0.3466 0.9334,0.32 1.4667,0.9334 0.56,0.6133 0.7733,1.4666 0.24,0.8534 0.24,1.92 0,1.1734 -0.08,2.3734 -0.08,1.1733 -0.1066,2.32 0,1.1466 0.08,2.24 0.08,1.0666 0.4,2.0266 h -2.8267 l -0.56,-1.84 h -0.1333 q -0.5334,0.8267 -1.4934,1.44 -0.9333,0.5867 -2.4266,0.5867 -0.9334,0 -1.68,-0.2667 -0.7467,-0.2933 -1.28,-0.8 -0.5334,-0.5333 -0.8267,-1.2266 -0.2933,-0.72 -0.2933,-1.6 0,-1.2267 0.5333,-2.0534 0.56,-0.8533 1.5733,-1.36 1.04,-0.5333 2.4534,-0.72 1.44,-0.2133 3.2,-0.1333 0.1866,-1.4933 -0.2134,-2.1333 -0.4,-0.6667 -1.7866,-0.6667 -1.04,0 -2.2134,0.2133 -1.1466,0.2134 -1.8933,0.56 z m 4.4,9.92 q 1.04,0 1.6534,-0.4534 0.6133,-0.48 0.9066,-1.0133 v -1.7333 q -0.8266,-0.08 -1.6,-0.027 -0.7466,0.053 -1.3333,0.24 -0.5867,0.1867 -0.9333,0.5333 -0.3467,0.3467 -0.3467,0.88 0,0.7467 0.4267,1.1734 0.4533,0.4 1.2266,0.4 z m 20.1867,2.64 q 0,2.9066 -1.5733,4.2666 -1.5733,1.3867 -4.4,1.3867 -1.92,0 -3.04,-0.2667 -1.0933,-0.2666 -1.6533,-0.56 l 0.72,-2.7466 q 0.6133,0.24 1.4133,0.48 0.8267,0.24 2.0267,0.24 1.8133,0 2.4533,-0.8 0.6667,-0.7734 0.6667,-2.1867 v -0.8533 h -0.1067 q -0.9333,1.2533 -3.3067,1.2533 -2.5866,0 -3.8666,-1.6 -1.2534,-1.6 -1.2534,-5.0133 0,-3.5734 1.7067,-5.4134 1.7067,-1.84 4.96,-1.84 1.7067,0 3.04,0.24 1.36,0.24 2.2133,0.56 z m -5.8666,-2.56 q 1.0133,0 1.5466,-0.4534 0.56,-0.4533 0.8534,-1.36 v -6 q -0.8267,-0.3466 -2.0534,-0.3466 -1.3333,0 -2.08,1.0133 -0.7466,0.9867 -0.7466,3.1733 0,1.9467 0.64,2.96 0.64,1.0134 1.84,1.0134 z m 19.5466,1.4133 q -0.8,0.64 -2.1866,1.0933 -1.36,0.4267 -2.9067,0.4267 -3.2267,0 -4.72,-1.8667 -1.4933,-1.8933 -1.4933,-5.1733 0,-3.52 1.68,-5.28 1.68,-1.76 4.72,-1.76 1.0133,0 1.9733,0.2667 0.96,0.2666 1.7067,0.88 0.7466,0.6133 1.2,1.6533 0.4533,1.04 0.4533,2.5867 0,0.56 -0.08,1.2 -0.053,0.64 -0.1867,1.3333 h -8 q 0.08,1.68 0.8534,2.5333 0.8,0.8534 2.56,0.8534 1.0933,0 1.9466,-0.32 0.88,-0.3467 1.3334,-0.6934 z m -4.96,-9.7867 q -1.36,0 -2.0266,0.8267 -0.64,0.8 -0.7734,2.16 h 4.96 q 0.1067,-1.44 -0.4533,-2.2133 -0.5333,-0.7734 -1.7067,-0.7734 z m 19.1734,6.24 q 0,1.12 0.027,2.24 0.027,1.12 0.24,2.48 h -2.48 l -0.48,-1.7333 h -0.1066 q -0.5334,0.9333 -1.5467,1.52 -0.9867,0.56 -2.3467,0.56 -2.5066,0 -3.8933,-1.6533 -1.3867,-1.6534 -1.3867,-5.1734 0,-3.4133 1.5467,-5.3066 1.5467,-1.8934 4.5333,-1.8934 0.8267,0 1.36,0.1067 0.5334,0.08 1.0667,0.2933 v -5.4133 h 3.4667 z m -5.8934,2.1334 q 1.0134,0 1.6,-0.48 0.5867,-0.5067 0.8267,-1.44 v -5.6534 q -0.3733,-0.2933 -0.8267,-0.4266 -0.4533,-0.16 -1.1733,-0.16 -1.4667,0 -2.2133,0.9866 -0.72,0.9867 -0.72,3.3867 0,1.7067 0.5866,2.7467 0.6134,1.04 1.92,1.04 z m 23.8134,-2.4534 q 0,-0.8533 -0.64,-1.3866 -0.6133,-0.5334 -1.5733,-0.96 -0.9334,-0.4534 -2.0534,-0.9067 -1.0933,-0.48 -2.0533,-1.1467 -0.9334,-0.6933 -1.5734,-1.7066 -0.6133,-1.0134 -0.6133,-2.5867 0,-1.36 0.4533,-2.3467 0.4534,-1.0133 1.28,-1.68 0.8534,-0.6667 2,-0.9867 1.1467,-0.32 2.5601,-0.32 1.6266,0 3.0666,0.2934 1.44,0.2666 2.3734,0.8 l -1.1467,3.0667 q -0.5867,-0.3734 -1.76,-0.6667 -1.1733,-0.32 -2.5333,-0.32 -1.2801,0 -1.9734,0.5067 -0.6667,0.5066 -0.6667,1.36 0,0.8 0.6134,1.3333 0.64,0.5333 1.5733,0.9867 0.96,0.4533 2.0534,0.9333 1.12,0.48 2.0533,1.1733 0.96,0.6667 1.5733,1.68 0.64,0.9867 0.64,2.48 0,1.4934 -0.5066,2.5867 -0.48,1.0667 -1.3867,1.7867 -0.88,0.72 -2.16,1.0666 -1.2533,0.3467 -2.7734,0.3467 -2,0 -3.52,-0.3733 -1.52,-0.3734 -2.24,-0.7467 l 1.1734,-3.12 q 0.2933,0.16 0.7466,0.3467 0.48,0.1866 1.0667,0.3466 0.5867,0.16 1.2267,0.2667 0.6666,0.1067 1.36,0.1067 1.6267,0 2.48,-0.5334 0.88,-0.56 0.88,-1.68 z m 16.6667,3.8667 q -0.8,0.64 -2.1867,1.0933 -1.36,0.4267 -2.9066,0.4267 -3.2267,0 -4.7201,-1.8667 -1.4933,-1.8933 -1.4933,-5.1733 0,-3.52 1.68,-5.28 1.68,-1.76 4.72,-1.76 1.0134,0 1.9734,0.2667 0.96,0.2666 1.7066,0.88 0.7467,0.6133 1.2,1.6533 0.4534,1.04 0.4534,2.5867 0,0.56 -0.08,1.2 -0.053,0.64 -0.1867,1.3333 h -8 q 0.08,1.68 0.8533,2.5333 0.8,0.8534 2.56,0.8534 1.0934,0 1.9467,-0.32 0.88,-0.3467 1.3333,-0.6934 z m -4.96,-9.7867 q -1.36,0 -2.0267,0.8267 -0.64,0.8 -0.7733,2.16 h 4.96 q 0.1067,-1.44 -0.4533,-2.2133 -0.5334,-0.7734 -1.7067,-0.7734 z m 15.2,0.8534 q -0.8267,-0.2934 -1.4933,-0.2934 -0.9334,0 -1.5734,0.5067 -0.6133,0.48 -0.8266,1.2533 v 8.6134 h -3.4667 v -13.3334 h 2.6933 l 0.4,1.76 h 0.1067 q 0.4533,-0.9866 1.2267,-1.52 0.7733,-0.5333 1.8133,-0.5333 0.6933,0 1.5733,0.2933 z m 6.6133,3.7333 0.4534,2.0533 h 0.1333 l 0.3733,-2.1066 2.2667,-6.9334 h 3.7333 l -5.5733,13.4667 h -2.1067 l -5.7866,-13.4667 h 4.0266 z m 8.4,-6.9867 h 3.4667 v 13.3334 h -3.4667 z m -0.5066,-3.76 q 0,-0.7733 0.56,-1.3067 0.5866,-0.56 1.6,-0.56 1.0133,0 1.6266,0.56 0.64,0.5334 0.64,1.3067 0,0.7733 -0.64,1.3067 -0.6133,0.5067 -1.6266,0.5067 -1.0134,0 -1.6,-0.5067 -0.56,-0.5334 -0.56,-1.3067 z m 16.8266,16.2667 q -0.8,0.5867 -1.9467,0.88 -1.12,0.32 -2.32,0.32 -1.6,0 -2.72,-0.5067 -1.0933,-0.5066 -1.7866,-1.4133 -0.6934,-0.9333 -1.0134,-2.24 -0.2933,-1.3067 -0.2933,-2.88 0,-3.3867 1.52,-5.2 1.52,-1.84 4.4267,-1.84 1.4666,0 2.3466,0.24 0.9067,0.24 1.6267,0.6133 l -0.8267,2.8267 q -0.6133,-0.2933 -1.2266,-0.4533 -0.5867,-0.16 -1.36,-0.16 -1.44,0 -2.1867,0.96 -0.7467,0.9333 -0.7467,3.0133 0,0.8533 0.1867,1.5733 0.1867,0.72 0.56,1.2534 0.3733,0.5333 0.96,0.8533 0.6133,0.2933 1.4133,0.2933 0.88,0 1.4934,-0.2133 0.6133,-0.24 1.0933,-0.56 z m 12.32,-0.32 q -0.8,0.64 -2.1866,1.0933 -1.36,0.4267 -2.9067,0.4267 -3.2267,0 -4.72,-1.8667 -1.4933,-1.8933 -1.4933,-5.1733 0,-3.52 1.68,-5.28 1.68,-1.76 4.72,-1.76 1.0133,0 1.9733,0.2667 0.96,0.2666 1.7067,0.88 0.7466,0.6133 1.2,1.6533 0.4533,1.04 0.4533,2.5867 0,0.56 -0.08,1.2 -0.053,0.64 -0.1867,1.3333 h -8 q 0.08,1.68 0.8534,2.5333 0.8,0.8534 2.56,0.8534 1.0933,0 1.9466,-0.32 0.88,-0.3467 1.3334,-0.6934 z m -4.96,-9.7867 q -1.36,0 -2.0266,0.8267 -0.64,0.8 -0.7734,2.16 h 4.96 q 0.1067,-1.44 -0.4533,-2.2133 -0.5333,-0.7734 -1.7067,-0.7734 z"
         id="path3" />
      <path
         style="fill:#fcbd2b"
         d="m -1958.8299,-7759.7139 q 0,-1.0133 0.32,-1.92 0.3466,-0.9333 0.9333,-1.7333 0.6133,-0.8 1.44,-1.4933 0.8267,-0.6934 1.7867,-1.2267 -0.6667,-0.88 -1.0934,-1.7867 -0.4266,-0.9066 -0.4266,-1.92 0,-0.6666 0.24,-1.3333 0.2666,-0.6934 0.8,-1.2267 0.56,-0.56 1.44,-0.88 0.88,-0.3467 2.1333,-0.3467 1.2267,0 2.08,0.2934 0.88,0.2933 1.4133,0.7733 0.5334,0.48 0.7734,1.0933 0.24,0.6134 0.24,1.2534 0,1.0933 -0.7734,2.2933 -0.7733,1.1734 -2.64,2.2667 0.9334,1.44 1.8667,2.64 0.9333,1.2 2.08,2.3733 0.6133,-0.6666 1.0933,-1.6533 0.5067,-1.0133 0.88,-2.0533 l 2.5067,1.3333 q -0.16,0.48 -0.4533,1.0667 -0.2667,0.56 -0.6134,1.1466 -0.32,0.5867 -0.6666,1.12 -0.3467,0.5067 -0.64,0.88 0.8533,0.7734 1.4933,1.2267 0.64,0.4267 1.3067,0.8 l -1.84,2.56 q -0.7467,-0.3467 -1.5467,-0.9067 -0.7733,-0.5866 -1.5467,-1.3333 -0.96,0.88 -2.4,1.5733 -1.44,0.6667 -3.5466,0.6667 -1.3867,0 -2.6134,-0.3733 -1.2,-0.3734 -2.1066,-1.0934 -0.88,-0.72 -1.4134,-1.7333 -0.5066,-1.04 -0.5066,-2.3467 z m 10.5066,1.2 q -1.36,-1.4133 -2.48,-2.8 -1.12,-1.4133 -1.9466,-2.6666 -1.28,0.9866 -1.9467,1.92 -0.6667,0.9066 -0.6667,2.0533 0,1.36 0.9867,2.1333 1.0133,0.7734 2.64,0.7734 1.0667,0 2,-0.4267 0.9333,-0.4533 1.4133,-0.9867 z m -4.08,-11.12 q 0,1.12 0.96,2.4 1.04,-0.6666 1.4934,-1.2533 0.48,-0.5867 0.48,-1.12 0,-0.64 -0.3734,-1.0134 -0.3466,-0.3733 -1.1466,-0.3733 -0.72,0 -1.0667,0.3733 -0.3467,0.3734 -0.3467,0.9867 z"
         id="path4" />
      <path
         d="m -1923.1766,-7759.5539 q 0,-0.8533 -0.64,-1.3866 -0.6133,-0.5334 -1.5733,-0.96 -0.9334,-0.4534 -2.0534,-0.9067 -1.0933,-0.48 -2.0533,-1.1467 -0.9333,-0.6933 -1.5733,-1.7066 -0.6134,-1.0134 -0.6134,-2.5867 0,-1.36 0.4534,-2.3467 0.4533,-1.0133 1.28,-1.68 0.8533,-0.6667 2,-0.9867 1.1466,-0.32 2.56,-0.32 1.6266,0 3.0667,0.2934 1.44,0.2666 2.3733,0.8 l -1.1467,3.0667 q -0.5866,-0.3734 -1.76,-0.6667 -1.1733,-0.32 -2.5333,-0.32 -1.28,0 -1.9734,0.5067 -0.6666,0.5066 -0.6666,1.36 0,0.8 0.6133,1.3333 0.64,0.5333 1.5733,0.9867 0.96,0.4533 2.0534,0.9333 1.12,0.48 2.0533,1.1733 0.96,0.6667 1.5734,1.68 0.64,0.9867 0.64,2.48 0,1.4934 -0.5067,2.5867 -0.48,1.0667 -1.3867,1.7867 -0.88,0.72 -2.16,1.0666 -1.2533,0.3467 -2.7733,0.3467 -2,0 -3.52,-0.3733 -1.52,-0.3734 -2.24,-0.7467 l 1.1733,-3.12 q 0.2933,0.16 0.7467,0.3467 0.48,0.1866 1.0666,0.3466 0.5867,0.16 1.2267,0.2667 0.6667,0.1067 1.36,0.1067 1.6267,0 2.48,-0.5334 0.88,-0.56 0.88,-1.68 z m 9.3334,-8.32 v 7.5734 q 0,1.6266 0.3733,2.3466 0.4,0.72 1.52,0.72 0.9867,0 1.6267,-0.5866 0.6666,-0.5867 0.9866,-1.44 v -8.6134 h 3.4667 v 9.28 q 0,1.0934 0.1067,2.16 0.1066,1.04 0.32,1.8934 h -2.6134 l -0.6133,-1.9734 h -0.1067 q -0.6133,1.0134 -1.7066,1.68 -1.0934,0.6667 -2.5867,0.6667 -1.0133,0 -1.8133,-0.2667 -0.8,-0.2666 -1.3334,-0.88 -0.5333,-0.6133 -0.8266,-1.6533 -0.2667,-1.04 -0.2667,-2.6133 v -8.2934 z m 11.0133,0 h 2.5334 l 0.4,1.6 h 0.1066 q 0.6934,-1.0133 1.6267,-1.4933 0.96,-0.48 2.32,-0.48 2.5067,0 3.76,1.6 1.2533,1.5733 1.2533,5.0933 0,1.7067 -0.4,3.0934 -0.4,1.36 -1.2,2.32 -0.7733,0.96 -1.92,1.4666 -1.12,0.5067 -2.5866,0.5067 -0.8267,0 -1.36,-0.1333 -0.5334,-0.1067 -1.0667,-0.3734 v 5.4667 h -3.4667 z m 5.9467,2.56 q -1.0133,0 -1.6,0.5067 -0.56,0.5067 -0.88,1.52 v 5.5467 q 0.3733,0.2933 0.8,0.48 0.4533,0.16 1.1733,0.16 1.4934,0 2.24,-1.04 0.7467,-1.0667 0.7467,-3.4934 0,-1.76 -0.5867,-2.72 -0.5866,-0.96 -1.8933,-0.96 z m 8.4534,-2.56 h 2.5333 l 0.4,1.6 h 0.1067 q 0.6933,-1.0133 1.6266,-1.4933 0.96,-0.48 2.32,-0.48 2.5067,0 3.76,1.6 1.2534,1.5733 1.2534,5.0933 0,1.7067 -0.4,3.0934 -0.4,1.36 -1.2,2.32 -0.7734,0.96 -1.92,1.4666 -1.12,0.5067 -2.5867,0.5067 -0.8267,0 -1.36,-0.1333 -0.5333,-0.1067 -1.0667,-0.3734 v 5.4667 h -3.4666 z m 5.9466,2.56 q -1.0133,0 -1.6,0.5067 -0.56,0.5067 -0.88,1.52 v 5.5467 q 0.3734,0.2933 0.8,0.48 0.4534,0.16 1.1734,0.16 1.4933,0 2.24,-1.04 0.7466,-1.0667 0.7466,-3.4934 0,-1.76 -0.5866,-2.72 -0.5867,-0.96 -1.8934,-0.96 z m 7.8134,4.1067 q 0,-3.3867 1.6533,-5.2 1.6534,-1.84 4.64,-1.84 1.6,0 2.7734,0.5067 1.1733,0.5066 1.9466,1.44 0.7734,0.9066 1.1467,2.2133 0.4,1.3067 0.4,2.88 0,3.3867 -1.6533,5.2267 -1.6267,1.8133 -4.6134,1.8133 -1.6,0 -2.7733,-0.5067 -1.1733,-0.5066 -1.9733,-1.4133 -0.7734,-0.9333 -1.1734,-2.24 -0.3733,-1.3067 -0.3733,-2.88 z m 3.5733,0 q 0,0.88 0.16,1.6267 0.16,0.7466 0.48,1.3066 0.32,0.56 0.8267,0.88 0.5333,0.2934 1.2533,0.2934 1.36,0 2.0267,-0.9867 0.6667,-0.9867 0.6667,-3.12 0,-1.84 -0.6134,-2.96 -0.6133,-1.1467 -2.08,-1.1467 -1.28,0 -2,0.96 -0.72,0.96 -0.72,3.1467 z m 18.7467,-3.4133 q -0.8266,-0.2934 -1.4933,-0.2934 -0.9333,0 -1.5733,0.5067 -0.6134,0.48 -0.8267,1.2533 v 8.6134 h -3.4667 v -13.3334 h 2.6934 l 0.4,1.76 h 0.1066 q 0.4534,-0.9866 1.2267,-1.52 0.7733,-0.5333 1.8133,-0.5333 0.6934,0 1.5734,0.2933 z m 1.4134,-3.2534 h 1.84 v -2.5066 l 3.4667,-0.9867 v 3.4933 h 3.2533 v 2.9334 h -3.2533 v 5.12 q 0,1.3866 0.2666,2 0.2934,0.5866 1.0667,0.5866 0.5333,0 0.9067,-0.1066 0.4,-0.1067 0.88,-0.32 l 0.6133,2.6666 q -0.72,0.3467 -1.68,0.5867 -0.96,0.24 -1.9467,0.24 -1.84,0 -2.72,-0.9333 -0.8533,-0.96 -0.8533,-3.12 v -6.72 h -1.84 z"
         id="path5" />
    </g>
    <g
       id="text3-8"
       style="font-size:26.6667px;line-height:1.25;font-family:'PT Sans Caption';-inkscape-font-specification:'PT Sans Caption, Normal';text-align:center;letter-spacing:0px;word-spacing:0px;white-space:pre;stroke-width:0.748716"
       transform="matrix(1.335621,0,0,1.335621,-337.58912,885.6823)"
       aria-label="b1-systems.de">
      <path
         style="fill:#224779"
         d="m 376.26548,101.30938 h 2.45334 v 6.40001 h 0.26666 q 0.61334,-1.06667 1.76001,-1.57334 1.14666,-0.53333 2.42667,-0.53333 2.90667,0 4.4,1.78667 1.52,1.76 1.52,5.33334 0,3.65334 -1.97333,5.57334 -1.97334,1.92 -5.54668,1.92 -1.76,0 -3.2,-0.29333 -1.41333,-0.29334 -2.10667,-0.69334 z m 6.56001,6.37334 q -0.85334,0 -1.52,0.26667 -0.64,0.26667 -1.14667,0.74667 -0.50667,0.45333 -0.88,1.06667 -0.34667,0.58666 -0.56,1.22666 v 6.64001 q 1.30667,0.50667 3.17333,0.50667 2.10667,0 3.33334,-1.28 1.25334,-1.30667 1.25334,-4.16001 0,-1.06667 -0.21334,-1.97333 -0.21333,-0.93334 -0.66666,-1.60001 -0.45334,-0.66666 -1.14667,-1.04 -0.66667,-0.4 -1.62667,-0.4 z"
         id="path7" />
      <path
         style="fill:#fcbd2b"
         d="m 393.70549,117.73607 h 4.05334 v -12.40002 l 0.32,-1.62667 -1.17333,1.33334 -3.17334,2.13334 -1.12,-1.57334 6.42667,-4.61334 h 1.17334 v 16.74669 h 4 v 2.24 h -10.50668 z"
         id="path8" />
      <path
         d="m 408.23884,111.12273 h 7.09334 v 2.29333 h -7.09334 z m 18.21333,4.93334 q 0,-0.53334 -0.26666,-0.88 -0.24,-0.37334 -0.66667,-0.61334 -0.42667,-0.26667 -0.98667,-0.45333 -0.56,-0.18667 -1.17333,-0.37334 -0.77334,-0.21333 -1.57334,-0.45333 -0.77333,-0.26667 -1.41333,-0.69333 -0.61334,-0.45334 -1.01334,-1.14667 -0.4,-0.69334 -0.4,-1.76 0,-2.08001 1.22667,-3.09334 1.25333,-1.01334 3.49334,-1.01334 1.68,0 2.82667,0.32 1.14667,0.32 2,0.69334 l -0.58667,2.08 q -0.72,-0.34667 -1.73333,-0.66667 -0.98667,-0.34666 -2.18667,-0.34666 -1.30667,0 -1.94667,0.42666 -0.64,0.42667 -0.64,1.54667 0,0.45334 0.24,0.77334 0.24,0.29333 0.64,0.53333 0.4,0.21333 0.93333,0.4 0.53334,0.16 1.12001,0.32 0.8,0.21333 1.6,0.50667 0.8,0.26667 1.46667,0.74667 0.66666,0.45333 1.06666,1.17333 0.42667,0.72 0.42667,1.81334 0,1.97333 -1.33333,3.22667 -1.33334,1.22667 -4.00001,1.22667 -1.70667,0 -2.98667,-0.34667 -1.25333,-0.34667 -2.10667,-0.8 l 0.69334,-2.13334 q 0.74666,0.4 1.92,0.8 1.17333,0.4 2.37333,0.4 1.30667,0 2.13334,-0.45333 0.85333,-0.48 0.85333,-1.76 z m 10.5867,-1.22667 0.82667,2.69334 h 0.34666 l 0.66667,-2.72001 2.90667,-8.82668 h 2.50667 l -4.58667,12.66669 q -0.50667,1.30667 -1.04,2.53333 -0.50667,1.22667 -1.14667,2.16001 -0.61333,0.96 -1.38667,1.52 -0.74667,0.58667 -1.73333,0.58667 -1.06667,0 -1.81334,-0.24 l 0.4,-2.08001 q 0.4,0.13334 0.8,0.13334 0.53334,0 0.96,-0.13334 0.45334,-0.13333 0.82667,-0.48 0.37333,-0.34667 0.66667,-0.98667 0.32,-0.61333 0.58667,-1.6 l -6.26668,-14.08002 h 2.90667 z m 16.88003,1.22667 q 0,-0.53334 -0.26667,-0.88 -0.24,-0.37334 -0.66667,-0.61334 -0.42667,-0.26667 -0.98667,-0.45333 -0.56,-0.18667 -1.17333,-0.37334 -0.77334,-0.21333 -1.57334,-0.45333 -0.77333,-0.26667 -1.41333,-0.69333 -0.61334,-0.45334 -1.01334,-1.14667 -0.4,-0.69334 -0.4,-1.76 0,-2.08001 1.22667,-3.09334 1.25334,-1.01334 3.49334,-1.01334 1.68,0 2.82667,0.32 1.14667,0.32 2,0.69334 l -0.58667,2.08 q -0.72,-0.34667 -1.73333,-0.66667 -0.98667,-0.34666 -2.18667,-0.34666 -1.30667,0 -1.94667,0.42666 -0.64,0.42667 -0.64,1.54667 0,0.45334 0.24,0.77334 0.24,0.29333 0.64,0.53333 0.4,0.21333 0.93333,0.4 0.53334,0.16 1.12001,0.32 0.8,0.21333 1.6,0.50667 0.8,0.26667 1.46667,0.74667 0.66666,0.45333 1.06666,1.17333 0.42667,0.72 0.42667,1.81334 0,1.97333 -1.33333,3.22667 -1.33334,1.22667 -4.00001,1.22667 -1.70667,0 -2.98667,-0.34667 -1.25333,-0.34667 -2.10667,-0.8 l 0.69334,-2.13334 q 0.74666,0.4 1.92,0.8 1.17333,0.4 2.37333,0.4 1.30667,0 2.13334,-0.45333 0.85334,-0.48 0.85334,-1.76 z m 4.53334,-10.08002 h 2.37334 v -2.82667 l 2.45334,-0.64 v 3.46667 h 4.21334 v 2.08001 h -4.21334 v 7.14667 q 0,1.68 0.42666,2.37334 0.42667,0.69333 1.46667,0.69333 0.66667,0 1.2,-0.13333 0.56001,-0.16 1.25334,-0.4 l 0.56,1.73333 q -0.85333,0.37334 -1.84,0.61334 -0.96,0.26667 -2.08,0.26667 -1.86667,0 -2.66667,-1.01334 -0.77334,-1.01333 -0.77334,-3.30667 v -7.97334 h -2.37334 z m 23.60007,12.85335 q -0.93334,0.69334 -2.32,1.12001 -1.38667,0.4 -3.01334,0.4 -1.76,0 -3.06667,-0.50667 -1.28,-0.53334 -2.10667,-1.49334 -0.82667,-0.96 -1.22667,-2.32 -0.4,-1.36 -0.4,-3.04 0,-3.60001 1.76,-5.49334 1.78667,-1.92001 5.06668,-1.92001 1.04,0 2.08,0.24 1.04,0.21334 1.86667,0.85334 0.82666,0.61333 1.33333,1.70667 0.53334,1.09333 0.53334,2.85333 0,0.42667 -0.0267,0.98667 -0.0267,0.56 -0.10667,1.09334 h -10.00001 q 0.0533,2.45333 1.17333,3.70667 1.12001,1.25333 3.81334,1.25333 1.12,0 2.13334,-0.37333 1.01333,-0.4 1.57333,-0.93334 z m -1.84,-7.28001 q 0.0533,-2.13333 -0.88,-3.01333 -0.90667,-0.88 -2.56001,-0.88 -1.86667,0 -2.96,0.88 -1.09334,0.88 -1.28,3.01333 z m 15.46667,8.42668 v -7.68001 q 0,-1.12 -0.10667,-1.97333 -0.10667,-0.85334 -0.42667,-1.41334 -0.32,-0.58667 -0.90667,-0.85333 -0.56,-0.29334 -1.46666,-0.29334 -1.41334,0 -2.37334,0.8 -0.93334,0.77334 -1.33334,2.00001 v 9.41334 h -2.45333 v -14.00002 h 1.68 l 0.48,1.86667 h 0.26667 q 0.85333,-0.96 1.94667,-1.6 1.12,-0.66667 2.82667,-0.66667 1.44,0 2.4,0.61334 0.98667,0.61333 1.49334,2.05333 0.8,-1.22666 2.02666,-1.94667 1.22667,-0.72 2.74667,-0.72 1.28001,0 2.16001,0.29334 0.90667,0.29333 1.46667,1.01333 0.56,0.72 0.82666,1.94667 0.26667,1.22667 0.26667,3.09334 v 8.05334 h -2.45334 v -8.05334 q 0,-1.06667 -0.13333,-1.84 -0.10667,-0.77334 -0.42667,-1.28001 -0.32,-0.53333 -0.90666,-0.77333 -0.56001,-0.26667 -1.49334,-0.26667 -1.52,0 -2.4,0.8 -0.88,0.80001 -1.25334,2.40001 v 9.01334 z m 23.28002,-3.92 q 0,-0.53334 -0.26666,-0.88 -0.24,-0.37334 -0.66667,-0.61334 -0.42667,-0.26667 -0.98667,-0.45333 -0.56,-0.18667 -1.17333,-0.37334 -0.77334,-0.21333 -1.57334,-0.45333 -0.77333,-0.26667 -1.41333,-0.69333 -0.61334,-0.45334 -1.01334,-1.14667 -0.4,-0.69334 -0.4,-1.76 0,-2.08001 1.22667,-3.09334 1.25333,-1.01334 3.49334,-1.01334 1.68,0 2.82667,0.32 1.14666,0.32 2,0.69334 l -0.58667,2.08 q -0.72,-0.34667 -1.73333,-0.66667 -0.98667,-0.34666 -2.18667,-0.34666 -1.30667,0 -1.94667,0.42666 -0.64,0.42667 -0.64,1.54667 0,0.45334 0.24,0.77334 0.24,0.29333 0.64,0.53333 0.4,0.21333 0.93333,0.4 0.53334,0.16 1.12,0.32 0.8,0.21333 1.60001,0.50667 0.8,0.26667 1.46666,0.74667 0.66667,0.45333 1.06667,1.17333 0.42667,0.72 0.42667,1.81334 0,1.97333 -1.33334,3.22667 -1.33333,1.22667 -4,1.22667 -1.70667,0 -2.98667,-0.34667 -1.25334,-0.34667 -2.10667,-0.8 l 0.69333,-2.13334 q 0.74667,0.4 1.92001,0.8 1.17333,0.4 2.37333,0.4 1.30667,0 2.13334,-0.45333 0.85333,-0.48 0.85333,-1.76 z m 5.28003,2.56 q 0,-0.77333 0.48,-1.22667 0.50667,-0.45333 1.30667,-0.45333 0.8,0 1.28,0.45333 0.50667,0.45334 0.50667,1.22667 0,0.72 -0.50667,1.2 -0.48,0.48 -1.28,0.48 -0.8,0 -1.30667,-0.48 -0.48,-0.48 -0.48,-1.2 z m 19.30671,-3.46667 q 0,1.36 0.0267,2.56 0.0533,1.17334 0.26666,2.32001 h -1.62667 l -0.61333,-2.13334 h -0.26667 q -0.61333,1.06667 -1.81333,1.76 -1.17334,0.69334 -2.74667,0.69334 -3.01334,0 -4.50668,-1.78667 -1.46666,-1.78667 -1.46666,-5.49334 0,-3.57334 1.81333,-5.46668 1.84,-1.92 5.14668,-1.92 0.56,0 0.98666,0.0533 0.45334,0.0267 0.82667,0.08 0.4,0.0533 0.74667,0.16 0.37333,0.10667 0.77333,0.21334 v -4.88001 h 2.45334 z m -2.45334,-6.58668 q -0.61333,-0.45333 -1.33333,-0.61333 -0.69334,-0.18667 -1.86667,-0.18667 -2.16,0 -3.36001,1.25334 -1.17333,1.25333 -1.17333,4.08 0,1.12 0.21333,2.08001 0.21334,0.93333 0.66667,1.62666 0.45333,0.69334 1.2,1.09334 0.74667,0.37333 1.84,0.37333 1.62667,0 2.53334,-0.8 0.90667,-0.82667 1.28,-2.42667 z m 18.61335,10.26668 q -0.93333,0.69334 -2.32,1.12001 -1.38667,0.4 -3.01334,0.4 -1.76,0 -3.06667,-0.50667 -1.28,-0.53334 -2.10667,-1.49334 -0.82667,-0.96 -1.22667,-2.32 -0.4,-1.36 -0.4,-3.04 0,-3.60001 1.76,-5.49334 1.78667,-1.92001 5.06668,-1.92001 1.04,0 2.08,0.24 1.04,0.21334 1.86667,0.85334 0.82667,0.61333 1.33333,1.70667 0.53334,1.09333 0.53334,2.85333 0,0.42667 -0.0267,0.98667 -0.0267,0.56 -0.10667,1.09334 h -10.00001 q 0.0533,2.45333 1.17334,3.70667 1.12,1.25333 3.81333,1.25333 1.12001,0 2.13334,-0.37333 1.01334,-0.4 1.57334,-0.93334 z m -1.84,-7.28001 q 0.0533,-2.13333 -0.88,-3.01333 -0.90667,-0.88 -2.56001,-0.88 -1.86666,0 -2.96,0.88 -1.09333,0.88 -1.28,3.01333 z"
         id="path9" />
    </g>
  </g>
</svg>
