<?xml version="1.0" standalone="no"?>
<!DOCTYPE svg PUBLIC "-//W3C//DTD SVG 1.1//EN" "http://www.w3.org/Graphics/SVG/1.1/DTD/svg11.dtd">
<svg xmlns="http://www.w3.org/2000/svg" xmlns:xlink="http://www.w3.org/1999/xlink" version="1.1" x="0px" y="0px" width="2000" height="498.5159912109375" viewBox="0 0 2000 498.516" enable-background="new 0 0 2000 498.516" xml:space="preserve">
<g id="DAB-Symb2">
	<g id="DAB-Symbole_2_">
		<g>
			<polygon points="296.727,379.808 118.694,379.808 118.694,118.694 296.727,118.694    "/>
		</g>
		<g>
			<polygon points="401.388,237.382 320.464,237.382 320.464,118.694 401.388,118.694    "/>
		</g>
		<g>
			<polygon points="320.464,379.808 320.464,261.12 498.496,261.12 498.496,379.808    "/>
		</g>
	</g>
</g>
<g id="DAB-Name2">
	<g>
		<g>
			<path d="M639.458,144.638c76.588,2.191,109.327,42.969,109.327,104.505c0,63.727-34.932,106.551-110.352,106.551h-68.695V144.343     C574.999,144.346,621.042,144.201,639.458,144.638z M619.728,316.083h20.169c28.793,0,57.003-17.976,57.003-67.525     c0-44.14-22.216-64.602-56.709-64.602h-20.463V316.083z"/>
			<path d="M759.283,311.407c0-32.885,24.41-51.153,78.636-51.449l15.347-0.145v-7.746c0-11.689-6.578-17.833-20.755-17.685     c-10.232,0.295-21.924,4.091-26.31,16.225h-40.779c1.608-34.201,30.987-48.962,69.28-48.962c49.55,0,66.211,18.708,66.211,47.357     v106.695h-41.362l-4.238-24.996c-9.792,21.197-23.677,27.917-44.433,27.917C782.088,358.618,759.283,341.808,759.283,311.407z      M853.266,304.832v-20.607l-12.278,0.146c-15.202,0.147-34.932,5.26-34.932,21.925c0,12.863,10.083,20.317,21.922,20.317     C841.133,326.609,852.974,316.231,853.266,304.832z"/>
			<path d="M986.253,238.621l0.146,74.542c0,8.914,4.091,10.374,11.252,10.374h22.071V353.5c-4.092,1.901-11.84,4.095-28.354,4.095     c-43.704,0-54.81-17.979-54.81-42.242v-76.729h-24.556v-34.058h26.31l12.715-46.331h35.227v46.041h33.177v34.348h-33.179V238.621     z"/>
			<path d="M1034.619,311.407c0-32.885,24.41-51.153,78.636-51.449l15.348-0.145v-7.746c0-11.689-6.578-17.833-20.755-17.685     c-10.23,0.295-21.925,4.091-26.308,16.225h-40.778c1.607-34.201,30.984-48.962,69.28-48.962     c49.549,0,66.211,18.708,66.211,47.357v106.695h-41.362l-4.238-24.996c-9.792,21.197-23.677,27.917-44.434,27.917     C1057.421,358.618,1034.619,341.808,1034.619,311.407z M1128.6,304.832v-20.607l-12.28,0.146     c-15.2,0.147-34.932,5.26-34.932,21.925c0,12.863,10.087,20.317,21.924,20.317C1116.469,326.609,1128.306,316.231,1128.6,304.832     z"/>
			<path d="M1224.855,144.346h80.536c57.294,0,83.312,19.731,83.312,55.69c0,20.169-8.771,34.931-35.371,47.206     c36.101,10.087,40.342,33.326,40.342,51.011c0,39.17-24.555,57.44-84.188,57.44h-84.627V144.346H1224.855z M1312.845,229.267     c15.493,0,27.915-8.039,27.915-22.948c0-15.347-13.006-24.116-30.254-24.116h-35.811v47.064H1312.845z M1311.091,317.839     c21.048,0,32.01-10.959,32.01-25.142c0-15.199-12.567-24.554-30.253-24.554h-38.149v49.695H1311.091z"/>
			<path d="M1483.096,323.392c12.571,0,22.802-4.385,27.188-17.391h44.435c-4.972,32.888-37.856,52.616-70.304,52.616     c-46.039,0-77.318-30.253-77.318-76.731c0-44.291,27.626-80.242,74.98-80.242c47.792,0,72.348,32.447,72.348,77.462v12.426     h-98.366C1455.912,312.139,1466.874,323.392,1483.096,323.392z M1508.239,262.882c0-14.907-8.772-27.185-26.163-27.185     c-15.639,0-26.164,13.153-26.164,27.185H1508.239z"/>
			<path d="M1572.967,204.566h49.109v21.195c6.577-10.232,18.416-22.215,42.239-22.215c27.038,0,52.912,14.907,52.912,52.031v100.12     h-49.986v-93.542c0-13.301-10.083-20.024-21.193-20.024c-11.253,0-23.386,6.43-23.386,18.856V355.7h-49.695V204.566     L1572.967,204.566z"/>
			<path d="M1809.724,323.392c12.569,0,22.802-4.385,27.188-17.391h44.433c-4.967,32.888-37.854,52.616-70.303,52.616     c-46.043,0-77.319-30.253-77.319-76.731c0-44.291,27.624-80.242,74.98-80.242c47.793,0,72.352,32.447,72.352,77.462v12.426     h-98.367C1782.539,312.139,1793.5,323.392,1809.724,323.392z M1834.862,262.882c0-14.907-8.771-27.185-26.163-27.185     c-15.641,0-26.16,13.153-26.16,27.185H1834.862z"/>
		</g>
	</g>
</g>
</svg>