<?xml version="1.0" encoding="UTF-8" standalone="no"?>
<!-- Created with Inkscape (http://www.inkscape.org/) -->

<svg
   width="297mm"
   height="210mm"
   viewBox="0 0 297 210"
   version="1.1"
   id="svg1"
   inkscape:version="1.3 (0e150ed6c4, 2023-07-21)"
   sodipodi:docname="linux_polska_logo_black.svg"
   xmlns:inkscape="http://www.inkscape.org/namespaces/inkscape"
   xmlns:sodipodi="http://sodipodi.sourceforge.net/DTD/sodipodi-0.dtd"
   xmlns="http://www.w3.org/2000/svg"
   xmlns:svg="http://www.w3.org/2000/svg">
  <sodipodi:namedview
     id="namedview1"
     pagecolor="#ffffff"
     bordercolor="#000000"
     borderopacity="0.25"
     inkscape:showpageshadow="2"
     inkscape:pageopacity="0.0"
     inkscape:pagecheckerboard="0"
     inkscape:deskcolor="#d1d1d1"
     inkscape:document-units="mm"
     inkscape:export-bgcolor="#ffffff00"
     inkscape:zoom="0.70710678"
     inkscape:cx="937.62359"
     inkscape:cy="358.50314"
     inkscape:window-width="1920"
     inkscape:window-height="991"
     inkscape:window-x="-9"
     inkscape:window-y="-9"
     inkscape:window-maximized="1"
     inkscape:current-layer="layer1" />
  <defs
     id="defs1">
    <clipPath
       clipPathUnits="userSpaceOnUse"
       id="clipPath3">
      <path
         d="M 0,595.276 H 841.89 V 0 H 0 Z"
         transform="translate(-423.11731,-288.39371)"
         id="path3" />
    </clipPath>
    <clipPath
       clipPathUnits="userSpaceOnUse"
       id="clipPath5">
      <path
         d="M 0,595.276 H 841.89 V 0 H 0 Z"
         transform="translate(-454.94471,-288.33901)"
         id="path5" />
    </clipPath>
    <clipPath
       clipPathUnits="userSpaceOnUse"
       id="clipPath7">
      <path
         d="M 0,595.276 H 841.89 V 0 H 0 Z"
         transform="translate(-473.32181,-321.06081)"
         id="path7" />
    </clipPath>
    <clipPath
       clipPathUnits="userSpaceOnUse"
       id="clipPath9">
      <path
         d="M 0,595.276 H 841.89 V 0 H 0 Z"
         transform="translate(-485.00161,-290.42221)"
         id="path9" />
    </clipPath>
    <clipPath
       clipPathUnits="userSpaceOnUse"
       id="clipPath11">
      <path
         d="M 0,595.276 H 841.89 V 0 H 0 Z"
         transform="translate(-512.32441,-321.06081)"
         id="path11" />
    </clipPath>
    <clipPath
       clipPathUnits="userSpaceOnUse"
       id="clipPath13">
      <path
         d="M 0,595.276 H 841.89 V 0 H 0 Z"
         transform="translate(-558.73691,-295.8476)"
         id="path13" />
    </clipPath>
    <clipPath
       clipPathUnits="userSpaceOnUse"
       id="clipPath15">
      <path
         d="M 0,595.276 H 841.89 V 0 H 0 Z"
         id="path15" />
    </clipPath>
    <clipPath
       clipPathUnits="userSpaceOnUse"
       id="clipPath17">
      <path
         d="M 0,595.276 H 841.89 V 0 H 0 Z"
         id="path17" />
    </clipPath>
    <clipPath
       clipPathUnits="userSpaceOnUse"
       id="clipPath19">
      <path
         d="M 0,595.276 H 841.89 V 0 H 0 Z"
         transform="translate(-396.81621,-281.9243)"
         id="path19" />
    </clipPath>
    <clipPath
       clipPathUnits="userSpaceOnUse"
       id="clipPath21">
      <path
         d="M 0,595.276 H 841.89 V 0 H 0 Z"
         transform="translate(-378.24601,-281.9243)"
         id="path21" />
    </clipPath>
    <clipPath
       clipPathUnits="userSpaceOnUse"
       id="clipPath23">
      <path
         d="M 0,595.276 H 841.89 V 0 H 0 Z"
         id="path23" />
    </clipPath>
    <clipPath
       clipPathUnits="userSpaceOnUse"
       id="clipPath25">
      <path
         d="M 0,595.276 H 841.89 V 0 H 0 Z"
         transform="translate(-349.34551,-281.57041)"
         id="path25" />
    </clipPath>
    <clipPath
       clipPathUnits="userSpaceOnUse"
       id="clipPath27">
      <path
         d="M 0,595.276 H 841.89 V 0 H 0 Z"
         transform="translate(-354.38281,-269.087)"
         id="path27" />
    </clipPath>
  </defs>
  <g
     inkscape:label="Warstwa 1"
     inkscape:groupmode="layer"
     id="layer1">
    <path
       id="path2"
       d="M 0,0 C 1.242,0 2.384,0.228 3.425,0.685 4.466,1.142 5.362,1.772 6.111,2.576 6.86,3.379 7.435,4.33 7.837,5.426 8.239,6.522 8.44,7.709 8.44,8.989 8.44,10.231 8.239,11.391 7.837,12.47 7.435,13.547 6.86,14.479 6.111,15.265 5.362,16.05 4.466,16.671 3.425,17.128 2.384,17.584 1.242,17.813 0,17.813 c -1.243,0 -2.384,-0.219 -3.426,-0.658 -1.041,-0.438 -1.937,-1.041 -2.686,-1.808 -0.749,-0.768 -1.334,-1.691 -1.753,-2.768 -0.421,-1.078 -0.631,-2.275 -0.631,-3.59 0,-1.28 0.21,-2.467 0.631,-3.563 C -7.446,4.33 -6.87,3.379 -6.139,2.576 -5.409,1.772 -4.522,1.142 -3.481,0.685 -2.44,0.228 -1.28,0 0,0 m -14.69,7.674 c 0,2.557 0.365,4.813 1.097,6.768 0.73,1.955 1.754,3.599 3.069,4.933 1.315,1.334 2.905,2.348 4.768,3.042 1.864,0.694 3.928,1.041 6.194,1.041 2.083,0 4.001,-0.365 5.755,-1.095 1.754,-0.732 3.28,-1.737 4.577,-3.015 1.296,-1.28 2.311,-2.815 3.042,-4.604 0.73,-1.79 1.096,-3.727 1.096,-5.81 0,-2.119 -0.356,-4.066 -1.069,-5.837 C 13.127,1.324 12.14,-0.201 10.879,-1.48 9.619,-2.76 8.139,-3.755 6.44,-4.467 4.74,-5.179 2.886,-5.536 0.877,-5.536 c -2.083,0 -3.929,0.403 -5.536,1.206 -1.609,0.803 -2.869,1.79 -3.782,2.959 v -14.415 h -6.249 z"
       style="fill:#ffda00;fill-opacity:1;fill-rule:nonzero;stroke:none"
       transform="matrix(1.0629838,0,0,-1.0629838,144.27768,118.8946)"
       clip-path="url(#clipPath3)" />
    <path
       id="path4"
       d="M 0,0 C 1.242,0 2.393,0.228 3.454,0.685 4.512,1.142 5.418,1.781 6.166,2.603 6.915,3.425 7.5,4.376 7.92,5.454 c 0.421,1.077 0.631,2.255 0.631,3.535 0,1.278 -0.21,2.475 -0.631,3.59 C 7.5,13.693 6.915,14.653 6.166,15.456 5.418,16.26 4.512,16.89 3.454,17.348 2.393,17.804 1.242,18.033 0,18.033 c -1.279,0 -2.439,-0.229 -3.48,-0.685 C -4.521,16.89 -5.418,16.26 -6.165,15.456 -6.915,14.653 -7.5,13.693 -7.919,12.579 -8.341,11.464 -8.55,10.267 -8.55,8.989 -8.55,7.709 -8.341,6.531 -7.919,5.454 -7.5,4.376 -6.915,3.425 -6.165,2.603 -5.418,1.781 -4.521,1.142 -3.48,0.685 -2.439,0.228 -1.279,0 0,0 m 0,23.513 c 2.119,0 4.102,-0.365 5.947,-1.096 1.845,-0.731 3.444,-1.745 4.796,-3.042 1.351,-1.297 2.412,-2.832 3.179,-4.604 0.768,-1.772 1.151,-3.699 1.151,-5.782 0,-2.047 -0.383,-3.956 -1.151,-5.728 C 13.155,1.489 12.094,-0.046 10.743,-1.343 9.391,-2.64 7.792,-3.664 5.947,-4.413 4.102,-5.161 2.119,-5.536 0,-5.536 c -2.119,0 -4.102,0.375 -5.946,1.123 -1.846,0.749 -3.445,1.773 -4.796,3.07 -1.352,1.297 -2.412,2.832 -3.179,4.604 -0.768,1.772 -1.151,3.681 -1.151,5.728 0,2.083 0.383,4.01 1.151,5.782 0.767,1.772 1.827,3.307 3.179,4.604 1.351,1.297 2.95,2.311 4.796,3.042 1.844,0.731 3.827,1.096 5.946,1.096"
       style="fill:#ffda00;fill-opacity:1;fill-rule:nonzero;stroke:none"
       transform="matrix(1.0629838,0,0,-1.0629838,178.10969,118.95272)"
       clip-path="url(#clipPath5)" />
    <path
       id="path6"
       d="m 0,0 c 0,0.986 0.292,1.717 0.877,2.193 0.584,0.474 1.407,0.712 2.467,0.712 0.657,0 1.26,-0.083 1.809,-0.247 C 5.7,2.494 6.066,2.374 6.249,2.302 V -37.49 H 0 Z"
       style="fill:#ffda00;fill-opacity:1;fill-rule:nonzero;stroke:none"
       transform="matrix(1.0629838,0,0,-1.0629838,197.64424,84.169987)"
       clip-path="url(#clipPath7)" />
    <path
       id="path8"
       d="m 0,0 c 0.255,-0.184 0.713,-0.421 1.371,-0.713 0.656,-0.293 1.47,-0.594 2.439,-0.904 0.967,-0.311 2.073,-0.576 3.315,-0.795 1.242,-0.22 2.594,-0.329 4.056,-0.329 1.9,0 3.453,0.246 4.659,0.74 1.206,0.494 1.809,1.343 1.809,2.548 0,1.023 -0.384,1.8 -1.151,2.33 -0.767,0.53 -2.138,0.904 -4.111,1.124 L 8.112,4.494 C 6.65,4.639 5.307,4.905 4.083,5.289 2.858,5.673 1.808,6.193 0.932,6.851 0.055,7.509 -0.631,8.321 -1.124,9.29 c -0.493,0.968 -0.739,2.128 -0.739,3.481 0,1.168 0.228,2.274 0.684,3.316 0.457,1.041 1.179,1.964 2.165,2.767 0.987,0.804 2.275,1.434 3.865,1.892 1.589,0.455 3.516,0.684 5.782,0.684 3.8,0 6.75,-0.42 8.852,-1.26 2.1,-0.842 3.151,-1.938 3.151,-3.289 0,-0.438 -0.082,-0.822 -0.246,-1.151 -0.164,-0.329 -0.348,-0.622 -0.548,-0.877 -0.202,-0.256 -0.411,-0.465 -0.631,-0.631 -0.219,-0.164 -0.383,-0.264 -0.493,-0.301 -0.146,0.146 -0.466,0.375 -0.959,0.686 -0.493,0.31 -1.16,0.62 -2.001,0.931 -0.84,0.31 -1.845,0.584 -3.014,0.822 -1.17,0.238 -2.522,0.356 -4.056,0.356 -4.239,0 -6.358,-1.114 -6.358,-3.343 0,-0.95 0.401,-1.672 1.206,-2.164 0.803,-0.494 1.954,-0.832 3.453,-1.015 l 5.59,-0.713 c 3.033,-0.401 5.39,-1.232 7.071,-2.493 1.68,-1.26 2.521,-3.116 2.521,-5.564 0,-2.74 -1.088,-4.932 -3.261,-6.577 -2.174,-1.644 -5.308,-2.466 -9.4,-2.466 -1.973,0 -3.764,0.147 -5.371,0.439 -1.609,0.292 -3.006,0.629 -4.194,1.014 -1.187,0.383 -2.146,0.757 -2.877,1.123 -0.731,0.364 -1.206,0.639 -1.425,0.822 z"
       style="fill:#ffda00;fill-opacity:1;fill-rule:nonzero;stroke:none"
       transform="matrix(1.0629838,0,0,-1.0629838,210.05966,116.73834)"
       clip-path="url(#clipPath9)" />
    <path
       id="path10"
       d="M 0,0 C 0,0.986 0.292,1.717 0.877,2.193 1.461,2.667 2.284,2.905 3.343,2.905 4.001,2.905 4.604,2.822 5.152,2.658 5.7,2.494 6.065,2.374 6.249,2.302 v -22.39 c 0.474,0.327 1.141,0.811 2,1.447 0.858,0.637 1.817,1.339 2.878,2.104 1.059,0.764 2.155,1.566 3.288,2.403 1.132,0.838 2.21,1.621 3.234,2.35 0.803,0.584 1.535,1.032 2.192,1.343 0.658,0.31 1.516,0.465 2.576,0.465 0.987,0 1.827,-0.265 2.521,-0.795 0.695,-0.53 1.132,-0.977 1.316,-1.342 -0.767,-0.693 -1.818,-1.54 -3.151,-2.542 -1.335,-1.002 -2.696,-2.005 -4.084,-3.007 -1.389,-1.002 -2.705,-1.931 -3.946,-2.788 -1.243,-0.856 -2.138,-1.484 -2.686,-1.885 3.105,-2.306 5.937,-4.805 8.496,-7.495 2.557,-2.691 4.713,-5.245 6.467,-7.66 h -7.783 c -0.841,1.025 -1.781,2.097 -2.822,3.213 -1.042,1.116 -2.157,2.215 -3.344,3.296 -1.187,1.08 -2.394,2.124 -3.618,3.131 -1.225,1.007 -2.402,1.931 -3.534,2.775 V -37.49 H 0 Z"
       style="fill:#ffda00;fill-opacity:1;fill-rule:nonzero;stroke:none"
       transform="matrix(1.0629838,0,0,-1.0629838,239.10337,84.169987)"
       clip-path="url(#clipPath11)" />
    <path
       id="path12"
       d="m 0,0 c -0.366,0.073 -1.051,0.183 -2.055,0.329 -1.006,0.146 -2.513,0.219 -4.522,0.219 -2.485,0 -4.294,-0.375 -5.426,-1.123 -1.133,-0.75 -1.699,-1.928 -1.699,-3.536 0,-0.658 0.118,-1.26 0.356,-1.808 0.237,-0.549 0.648,-1.014 1.233,-1.398 0.585,-0.383 1.379,-0.676 2.384,-0.877 1.005,-0.201 2.257,-0.301 3.755,-0.301 1.681,0 3.015,0.064 4.001,0.192 0.987,0.128 1.645,0.227 1.973,0.301 z m 6.194,-12.168 c -0.366,-0.073 -0.942,-0.154 -1.727,-0.246 -0.786,-0.091 -1.708,-0.183 -2.768,-0.275 -1.06,-0.09 -2.246,-0.172 -3.562,-0.246 -1.316,-0.072 -2.686,-0.11 -4.111,-0.11 -2.85,0 -5.18,0.247 -6.988,0.74 -1.809,0.494 -3.234,1.151 -4.275,1.973 -1.042,0.822 -1.755,1.772 -2.138,2.851 -0.383,1.077 -0.576,2.183 -0.576,3.316 0,1.497 0.228,2.813 0.685,3.946 0.457,1.132 1.207,2.083 2.248,2.851 1.041,0.767 2.402,1.342 4.083,1.726 1.68,0.383 3.727,0.576 6.139,0.576 1.388,0 2.703,-0.047 3.946,-0.138 1.242,-0.091 2.174,-0.173 2.795,-0.246 0,1.278 -0.21,2.338 -0.63,3.179 -0.421,0.839 -0.996,1.497 -1.727,1.972 -0.731,0.475 -1.608,0.804 -2.63,0.988 -1.024,0.181 -2.157,0.273 -3.398,0.273 -2.083,0 -3.755,-0.237 -5.016,-0.712 -1.26,-0.475 -2.092,-0.877 -2.494,-1.206 -0.219,0.182 -0.52,0.529 -0.904,1.041 -0.383,0.512 -0.576,1.132 -0.576,1.864 0,0.511 0.138,1.014 0.412,1.507 0.273,0.494 0.757,0.932 1.452,1.316 0.693,0.383 1.626,0.685 2.795,0.904 1.169,0.219 2.649,0.329 4.44,0.329 2.156,0 4.12,-0.211 5.892,-0.63 1.772,-0.421 3.297,-1.088 4.577,-2.001 C 3.417,12.46 4.413,11.255 5.125,9.757 5.838,8.257 6.194,6.449 6.194,4.331 Z"
       style="fill:#ffda00;fill-opacity:1;fill-rule:nonzero;stroke:none"
       transform="matrix(1.0629838,0,0,-1.0629838,288.43911,110.97122)"
       clip-path="url(#clipPath13)" />
    <path
       id="path14"
       d="m 297.835,281.57 h -8.587 v 52.273 h 8.587 z"
       style="fill:#000000;fill-opacity:1;fill-rule:nonzero;stroke:none"
       transform="matrix(1.0629838,0,0,-1.0629838,-305.48916,425.4524)"
       clip-path="url(#clipPath15)" />
    <path
       id="path16"
       d="m 314.259,281.57 h -8.587 v 34.848 h 8.587 z"
       style="fill:#000000;fill-opacity:1;fill-rule:nonzero;stroke:none"
       transform="matrix(1.0629838,0,0,-1.0629838,-305.48916,425.4524)"
       clip-path="url(#clipPath17)" />
    <path
       id="path18"
       d="M 0,0 -24.642,24.641 -18.57,30.713 6.072,6.071 Z"
       style="fill:#000000;fill-opacity:1;fill-rule:nonzero;stroke:none"
       transform="matrix(1.0629838,0,0,-1.0629838,116.32004,125.77146)"
       clip-path="url(#clipPath19)" />
    <path
       id="path20"
       d="M 0,0 -6.072,6.071 18.57,30.713 24.642,24.641 Z"
       style="fill:#000000;fill-opacity:1;fill-rule:nonzero;stroke:none"
       transform="matrix(1.0629838,0,0,-1.0629838,96.5802,125.77146)"
       clip-path="url(#clipPath21)" />
    <path
       id="path22"
       d="m 314.259,320.573 h -8.587 v 7.777 h 8.587 z"
       style="fill:#000000;fill-opacity:1;fill-rule:nonzero;stroke:none"
       transform="matrix(1.0629838,0,0,-1.0629838,-305.48916,425.4524)"
       clip-path="url(#clipPath23)" />
    <path
       id="path24"
       d="m 0,0 h -8.587 v 18.7 c 0,2.778 -2.259,5.038 -5.037,5.038 -2.778,0 -5.038,-2.26 -5.038,-5.038 V 0 h -8.586 v 18.7 c 0,7.513 6.111,13.624 13.624,13.624 C -6.112,32.324 0,26.213 0,18.7 Z"
       style="fill:#000000;fill-opacity:1;fill-rule:nonzero;stroke:none"
       transform="matrix(1.0629838,0,0,-1.0629838,65.859449,126.14763)"
       clip-path="url(#clipPath25)" />
    <path
       id="path26"
       d="m 0,0 c -7.513,0 -13.624,6.112 -13.624,13.624 v 18.7 h 8.587 v -18.7 c 0,-2.777 2.259,-5.037 5.037,-5.037 2.778,0 5.038,2.26 5.038,5.037 v 18.7 h 8.587 v -18.7 C 13.625,6.112 7.513,0 0,0"
       style="fill:#000000;fill-opacity:1;fill-rule:nonzero;stroke:none"
       transform="matrix(1.0629838,0,0,-1.0629838,71.214025,139.41729)"
       clip-path="url(#clipPath27)" />
  </g>
</svg>
