<?xml version="1.0" encoding="UTF-8" standalone="no"?>
<!-- Created with Inkscape (http://www.inkscape.org/) -->

<svg
   version="1.1"
   id="svg1"
   width="179.02667"
   height="71"
   viewBox="0 0 179.02667 71"
   sodipodi:docname="Logo_for_print_CMYK (1).eps"
   xmlns:inkscape="http://www.inkscape.org/namespaces/inkscape"
   xmlns:sodipodi="http://sodipodi.sourceforge.net/DTD/sodipodi-0.dtd"
   xmlns="http://www.w3.org/2000/svg"
   xmlns:svg="http://www.w3.org/2000/svg">
  <defs
     id="defs1" />
  <sodipodi:namedview
     id="namedview1"
     pagecolor="#ffffff"
     bordercolor="#000000"
     borderopacity="0.25"
     inkscape:showpageshadow="2"
     inkscape:pageopacity="0.0"
     inkscape:pagecheckerboard="0"
     inkscape:deskcolor="#d1d1d1">
    <inkscape:page
       x="0"
       y="0"
       inkscape:label="1"
       id="page1"
       width="179.02667"
       height="71"
       margin="0"
       bleed="0" />
  </sodipodi:namedview>
  <g
     id="g1"
     inkscape:groupmode="layer"
     inkscape:label="1">
    <g
       id="group-R5">
      <path
         id="path2"
         d="m 268.039,492.184 c 0,10.531 1.367,11.902 11.902,11.902 h 10.528 c 10.527,0 11.902,-1.371 11.902,-11.902 V 207.445 c 0,-7.789 -2.746,-12.359 -6.867,-11.902 -2.289,0.453 -5.492,2.285 -8.699,5.945 L 64.7773,434.043 V 210.648 c 0,-10.527 -1.371,-11.906 -11.9023,-11.906 H 42.3477 c -10.5274,0 -11.9024,1.379 -11.9024,11.906 v 283.368 c 0,8.238 2.2891,12.816 6.8672,12.359 2.2891,0 5.4922,-2.289 8.6992,-5.949 L 268.039,267.41 v 224.774"
         style="fill:#263774;fill-opacity:1;fill-rule:nonzero;stroke:none"
         transform="matrix(0.13333333,0,0,-0.13333333,0,71)" />
      <path
         id="path3"
         d="m 375.914,210.648 c 0,-10.527 -1.375,-11.906 -11.902,-11.906 h -8.696 c -10.531,0 -11.902,1.379 -11.902,11.906 v 166.176 c 0,10.528 1.371,11.903 11.902,11.903 h 8.696 c 10.527,0 11.902,-1.375 11.902,-11.903 z m 7.324,249.95 c 0,-12.821 -10.527,-23.348 -23.347,-23.348 -12.817,0 -23.344,10.527 -23.344,23.348 0,12.82 10.527,23.347 23.344,23.347 12.82,0 23.347,-10.527 23.347,-23.347"
         style="fill:#263774;fill-opacity:1;fill-rule:nonzero;stroke:none"
         transform="matrix(0.13333333,0,0,-0.13333333,0,71)" />
      <path
         id="path4"
         d="m 445.945,294.879 c 0,-43.031 25.641,-71.871 63.633,-71.871 35.254,0 62.262,30.211 62.262,69.582 0,40.742 -26.098,70.496 -61.805,70.496 -37.535,0 -64.09,-27.922 -64.09,-68.207 z m 2.289,66.84 c 18.774,21.515 38.914,31.125 65.922,31.125 52.649,0 91.098,-41.66 91.098,-98.879 0,-57.684 -38.91,-100.711 -90.641,-100.711 -27.465,0 -48.523,10.07 -66.379,31.586 v -14.192 c 0,-10.527 -1.375,-11.906 -11.902,-11.906 h -8.695 c -10.532,0 -11.903,1.379 -11.903,11.906 v 309.918 c 0,10.528 1.371,11.907 11.903,11.907 h 8.695 c 10.527,0 11.902,-1.379 11.902,-11.907 V 361.719"
         style="fill:#263774;fill-opacity:1;fill-rule:nonzero;stroke:none"
         transform="matrix(0.13333333,0,0,-0.13333333,0,71)" />
      <path
         id="path5"
         d="m 662.926,294.879 c 0,-43.031 25.64,-71.871 63.633,-71.871 35.254,0 62.261,30.211 62.261,69.582 0,40.742 -26.097,70.496 -61.804,70.496 -37.536,0 -64.09,-27.922 -64.09,-68.207 z m 2.289,66.84 c 18.773,21.515 38.914,31.125 65.922,31.125 52.648,0 91.097,-41.66 91.097,-98.879 0,-57.684 -38.914,-100.711 -90.64,-100.711 -27.465,0 -48.528,10.07 -66.379,31.586 v -14.192 c 0,-10.527 -1.371,-11.906 -11.902,-11.906 h -8.696 c -10.531,0 -11.902,1.379 -11.902,11.906 v 309.918 c 0,10.528 1.371,11.907 11.902,11.907 h 8.696 c 10.531,0 11.902,-1.379 11.902,-11.907 V 361.719"
         style="fill:#263774;fill-opacity:1;fill-rule:nonzero;stroke:none"
         transform="matrix(0.13333333,0,0,-0.13333333,0,71)" />
      <path
         id="path6"
         d="m 882.191,210.648 c 0,-10.527 -1.371,-11.906 -11.902,-11.906 h -8.695 c -10.535,0 -11.903,1.379 -11.903,11.906 v 309.918 c 0,10.528 1.368,11.907 11.903,11.907 h 8.695 c 10.531,0 11.902,-1.379 11.902,-11.907 V 210.648"
         style="fill:#263774;fill-opacity:1;fill-rule:nonzero;stroke:none"
         transform="matrix(0.13333333,0,0,-0.13333333,0,71)" />
      <path
         id="path7"
         d="m 1057.51,314.563 c -5.95,29.757 -27.93,48.98 -55.85,48.98 -27.469,0 -51.269,-20.598 -55.847,-48.98 z M 943.523,287.098 c 1.832,-38.914 26.09,-64.09 60.427,-64.09 21.97,0 41.2,10.984 53.1,31.129 2.75,4.578 5.04,5.949 7.78,5.949 1.83,0 4.58,-1.371 7.79,-3.203 l 6.86,-3.664 c 6.41,-3.66 7.79,-5.035 7.79,-8.696 0,-3.207 -5.5,-11.902 -14.19,-21.058 -17.4,-19.688 -42.58,-30.211 -70.96,-30.211 -54.936,0 -92.932,41.199 -92.932,100.711 0,58.137 38.453,98.879 92.472,98.879 53.1,0 90.19,-40.285 90.19,-97.504 0,-6.41 -2.76,-8.242 -11.91,-8.242 H 943.523"
         style="fill:#263774;fill-opacity:1;fill-rule:nonzero;stroke:none"
         transform="matrix(0.13333333,0,0,-0.13333333,0,71)" />
      <path
         id="path8"
         d="M 1194.79,200.598 1061.49,56.3125 1194.79,0 Z"
         style="fill:#f68b11;fill-opacity:1;fill-rule:nonzero;stroke:none"
         transform="matrix(0.13333333,0,0,-0.13333333,0,71)" />
      <path
         id="path9"
         d="m 1046.21,46.8945 c -2.19,0.9297 -3.79,2.8672 -4.3,5.1953 -0.5,2.3243 0.16,4.75 1.78,6.5 L 1144.81,168.047 H 13.3359 C 5.97266,168.047 0,162.074 0,154.711 V 34.1445 C 0,26.7773 5.97266,20.8086 13.3359,20.8086 H 1107.97 l -61.76,26.0859"
         style="fill:#6e7172;fill-opacity:1;fill-rule:nonzero;stroke:none"
         transform="matrix(0.13333333,0,0,-0.13333333,0,71)" />
      <path
         id="path10"
         d="M 1342.7,56.3125 1209.4,200.598 V 0 Z"
         style="fill:#6e7172;fill-opacity:1;fill-rule:nonzero;stroke:none"
         transform="matrix(0.13333333,0,0,-0.13333333,0,71)" />
      <path
         id="path11"
         d="m 42.8945,99.0664 c 3.6797,0 5.5235,0.3906 7.2305,1.5746 3.1602,2.234 4.6055,6.054 4.6055,11.972 0,10.262 -3.5508,15.125 -10.918,15.125 H 41.8398 V 99.0664 Z M 41.8398,54.7422 c 0,-2.8906 0,-3.1563 -0.7851,-3.9453 -0.793,-0.793 -1.0547,-0.793 -3.9531,-0.793 h -2.3633 c -2.8945,0 -3.1563,0 -3.9492,0.793 -0.7852,0.789 -0.7852,1.0547 -0.7852,3.9453 v 78.2618 c 0,2.891 0,3.152 0.7852,3.945 0.7929,0.789 1.0547,0.789 3.9492,0.789 h 10.7812 c 6.3164,0 9.4727,-0.664 12.7618,-2.761 5.6562,-3.418 8.6796,-10.918 8.6796,-20.782 0,-13.027 -3.9453,-20.7809 -12.2304,-23.8083 C 51.5742,89.2031 48.418,88.9414 41.8398,88.9414 V 54.7422"
         style="fill:#ffffff;fill-opacity:1;fill-rule:nonzero;stroke:none"
         transform="matrix(0.13333333,0,0,-0.13333333,0,71)" />
      <path
         id="path12"
         d="m 90.8594,121.293 c -0.793,-2.625 -1.5781,-8.281 -1.711,-13.809 -0.2617,-4.609 -0.2617,-8.5543 -0.2617,-15.1246 0,-24.9922 2.5,-32.6172 10.5196,-32.6172 4.9957,0 7.8907,3.0156 9.0737,9.7266 0.79,4.871 1.317,12.5 1.317,21.1796 0,17.7536 -0.922,28.4106 -2.762,32.4926 -1.578,3.418 -4.078,5.125 -7.4959,5.125 -4.3399,0 -6.9727,-2.11 -8.6797,-6.973 z m 25.6486,8.293 c 4.078,-7.637 5.652,-17.891 5.652,-37.8829 0,-30.7812 -6.312,-42.8789 -22.2303,-42.8789 -8.2852,0 -14.8594,3.543 -18.0156,9.8633 -1.9727,3.9453 -3.2891,8.2813 -3.9453,13.1523 -1.0547,7.629 -1.4454,15.129 -1.4454,24.0743 0,8.6799 0.5196,17.6169 1.4454,22.0899 2.6289,14.207 9.4648,20.918 21.0429,20.918 8.0233,0 14.3363,-3.293 17.4963,-9.336"
         style="fill:#ffffff;fill-opacity:1;fill-rule:nonzero;stroke:none"
         transform="matrix(0.13333333,0,0,-0.13333333,0,71)" />
      <path
         id="path13"
         d="m 164.129,130.102 c 0,-2.364 -0.66,-3.68 -1.973,-3.68 -0.789,0 -0.789,0 -2.633,0.926 -1.179,0.656 -2.761,0.918 -4.867,0.918 -6.312,0 -10.781,-4.735 -10.781,-11.571 0,-6.054 1.578,-8.683 12.102,-19.2106 5.39,-5.6524 7.492,-8.1524 9.203,-11.5703 1.976,-4.0821 3.16,-8.9453 3.16,-13.418 0,-14.1992 -8.289,-23.6719 -20.52,-23.6719 -5,0 -11.05,1.9727 -12.363,4.2071 -0.394,0.6562 -0.394,0.6562 -0.394,3.2812 v 2.6367 c 0,2.5 0.652,3.8086 1.972,3.8086 0.785,0 0.395,0.1367 3.945,-1.707 1.18,-0.5195 2.762,-0.918 4.868,-0.918 6.836,0 10.914,4.4727 10.914,11.9727 0,6.4453 -2.231,10.5156 -9.996,18.0156 -7.758,7.6289 -9.203,9.4727 -11.442,13.4179 -1.972,3.684 -3.027,8.02 -3.027,12.891 0,13.808 7.629,22.492 19.863,22.492 4.344,0 9.336,-1.184 11.047,-2.629 0.66,-0.527 0.922,-1.316 0.922,-2.762 v -1.191 -2.238"
         style="fill:#ffffff;fill-opacity:1;fill-rule:nonzero;stroke:none"
         transform="matrix(0.13333333,0,0,-0.13333333,0,71)" />
      <path
         id="path14"
         d="m 199.004,54.7422 c 0,-2.8906 0,-3.1563 -0.793,-3.9453 -0.785,-0.793 -1.051,-0.793 -3.945,-0.793 h -2.106 c -2.89,0 -3.152,0 -3.945,0.793 -0.785,0.789 -0.785,1.0547 -0.785,3.9453 v 72.6058 h -8.946 c -2.894,0 -3.16,0 -3.945,0.781 -0.789,0.793 -0.789,1.055 -0.789,3.945 v 0.93 c 0,2.891 0,3.152 0.789,3.945 0.785,0.789 1.051,0.789 3.945,0.789 h 29.067 c 2.898,0 3.16,0 3.816,-0.789 0.789,-0.793 0.922,-1.054 0.922,-3.945 v -0.93 c 0,-2.89 -0.133,-3.152 -0.922,-3.945 -0.656,-0.781 -0.918,-0.781 -3.816,-0.781 h -8.547 V 54.7422"
         style="fill:#ffffff;fill-opacity:1;fill-rule:nonzero;stroke:none"
         transform="matrix(0.13333333,0,0,-0.13333333,0,71)" />
      <path
         id="path15"
         d="m 245.98,86.1758 c -2.894,0 -3.16,0 -3.82,0.793 -0.785,0.789 -0.918,1.0429 -0.918,3.9453 v 0.5273 c 0,2.8906 0.133,3.1524 0.918,3.9453 0.66,0.7891 0.926,0.7891 3.82,0.7891 h 12.098 c 3.551,0 4.606,-0.6641 4.606,-2.7617 V 92.75 c 0,-14.6016 -0.661,-23.0195 -2.5,-29.7266 -2.368,-9.0742 -8.946,-14.1992 -18.414,-14.1992 -16.836,0 -23.282,12.3633 -23.282,44.7149 0,9.9999 0.657,19.4729 1.973,25.7809 2.629,13.684 8.941,19.602 21.047,19.602 8.812,0 14.863,-3.945 18.543,-11.836 1.051,-2.238 1.445,-3.82 1.445,-4.738 -0.129,-1.446 -0.656,-1.973 -3.418,-3.153 l -2.234,-0.929 c -1.973,-0.789 -2.106,-0.918 -2.895,-0.918 -0.656,0 -1.445,0.39 -1.844,0.918 -0.394,0.664 -0.128,0.136 -1.574,4.082 -1.578,3.945 -4.605,6.183 -8.551,6.183 -8.023,0 -10.257,-7.765 -10.257,-34.9919 0,-25.9063 2.367,-33.7969 10.39,-33.7969 7.625,0 10.391,5.7812 10.391,22.2266 v 4.207 h -5.524"
         style="fill:#ffffff;fill-opacity:1;fill-rule:nonzero;stroke:none"
         transform="matrix(0.13333333,0,0,-0.13333333,0,71)" />
      <path
         id="path16"
         d="m 286.574,98.8047 c 4.606,0.125 6.844,0.6523 8.551,2.0973 2.633,2.11 4.078,6.321 4.078,11.711 0,5.125 -0.785,9.071 -2.367,11.707 -1.578,2.629 -3.816,3.684 -8.418,3.684 h -1.844 z m 25.914,-43.2734 c 0.918,-2.1094 0.918,-2.1094 0.918,-3.0274 0,-0.7891 -0.785,-1.8437 -1.445,-2.2344 -0.789,-0.2656 -0.918,-0.2656 -3.285,-0.2656 h -2.238 c -3.555,0 -3.946,0.2656 -4.735,2.3633 l -0.394,1.1914 -14.735,39.3281 V 54.7422 c 0,-2.8906 0,-3.1563 -0.785,-3.9453 -0.789,-0.793 -1.055,-0.793 -3.949,-0.793 h -2.363 c -2.895,0 -3.161,0 -3.95,0.793 -0.789,0.789 -0.789,1.0547 -0.789,3.9453 v 78.2618 c 0,2.891 0,3.152 0.789,3.945 0.789,0.789 1.055,0.789 3.95,0.789 h 10.781 c 6.445,0 9.734,-0.789 12.89,-3.289 4.735,-3.683 7.5,-10.656 7.5,-19.211 0,-7.89 -1.71,-13.933 -5.265,-18.406 -1.84,-2.375 -3.418,-3.4179 -6.84,-4.2109 l 13.945,-37.0898"
         style="fill:#ffffff;fill-opacity:1;fill-rule:nonzero;stroke:none"
         transform="matrix(0.13333333,0,0,-0.13333333,0,71)" />
      <path
         id="path17"
         d="m 336.445,99.8594 h 12.625 c 2.895,0 3.16,0 3.946,-0.793 0.793,-0.7891 0.793,-1.0547 0.793,-3.9453 v -0.5273 c 0,-2.8907 0,-3.1524 -0.793,-3.9454 -0.786,-0.789 -1.051,-0.789 -3.946,-0.789 H 336.445 V 60.0039 h 14.864 c 2.894,0 3.156,0 3.812,-0.7891 0.789,-0.7929 0.922,-1.0546 0.922,-3.9453 v -0.5273 c 0,-2.8906 -0.133,-3.1563 -0.922,-3.9453 -0.656,-0.793 -0.918,-0.793 -3.812,-0.793 h -21.965 c -2.895,0 -3.16,0 -3.949,0.793 -0.786,0.789 -0.786,1.0547 -0.786,3.9453 v 78.2618 c 0,2.891 0,3.152 0.786,3.945 0.789,0.789 1.054,0.789 3.949,0.789 h 21.965 c 2.894,0 3.156,0 3.812,-0.789 0.789,-0.793 0.922,-1.054 0.922,-3.945 v -0.527 c 0,-2.891 -0.133,-3.157 -0.922,-3.946 -0.656,-0.793 -0.918,-0.793 -3.812,-0.793 H 336.445 V 99.8594"
         style="fill:#ffffff;fill-opacity:1;fill-rule:nonzero;stroke:none"
         transform="matrix(0.13333333,0,0,-0.13333333,0,71)" />
      <path
         id="path18"
         d="m 396.906,130.102 c 0,-2.364 -0.656,-3.68 -1.972,-3.68 -0.789,0 -0.789,0 -2.629,0.926 -1.184,0.656 -2.766,0.918 -4.871,0.918 -6.313,0 -10.782,-4.735 -10.782,-11.571 0,-6.054 1.578,-8.683 12.102,-19.2106 5.391,-5.6524 7.496,-8.1524 9.203,-11.5703 1.973,-4.0821 3.16,-8.9453 3.16,-13.418 0,-14.1992 -8.285,-23.6719 -20.519,-23.6719 -5,0 -11.047,1.9727 -12.364,4.2071 -0.394,0.6562 -0.394,0.6562 -0.394,3.2812 v 2.6367 c 0,2.5 0.656,3.8086 1.973,3.8086 0.785,0 0.398,0.1367 3.945,-1.707 1.183,-0.5195 2.765,-0.918 4.871,-0.918 6.832,0 10.91,4.4727 10.91,11.9727 0,6.4453 -2.234,10.5156 -9.996,18.0156 -7.758,7.6289 -9.203,9.4727 -11.438,13.4179 -1.972,3.684 -3.027,8.02 -3.027,12.891 0,13.808 7.625,22.492 19.863,22.492 4.34,0 9.336,-1.184 11.043,-2.629 0.661,-0.527 0.922,-1.316 0.922,-2.762 v -1.191 -2.238"
         style="fill:#ffffff;fill-opacity:1;fill-rule:nonzero;stroke:none"
         transform="matrix(0.13333333,0,0,-0.13333333,0,71)" />
      <path
         id="path19"
         d="m 450.578,99.0664 c 3.684,0 5.524,0.3906 7.235,1.5746 3.156,2.234 4.605,6.054 4.605,11.972 0,10.262 -3.551,15.125 -10.922,15.125 h -1.973 V 99.0664 Z m -1.055,-44.3242 c 0,-2.8906 0,-3.1563 -0.785,-3.9453 -0.789,-0.793 -1.054,-0.793 -3.949,-0.793 h -2.363 c -2.895,0 -3.16,0 -3.949,0.793 -0.789,0.789 -0.789,1.0547 -0.789,3.9453 v 78.2618 c 0,2.891 0,3.152 0.789,3.945 0.789,0.789 1.054,0.789 3.949,0.789 h 10.781 c 6.313,0 9.473,-0.664 12.758,-2.761 5.66,-3.418 8.683,-10.918 8.683,-20.782 0,-13.027 -3.945,-20.7809 -12.23,-23.8083 -3.156,-1.1836 -6.316,-1.4453 -12.895,-1.4453 V 54.7422"
         style="fill:#ffffff;fill-opacity:1;fill-rule:nonzero;stroke:none"
         transform="matrix(0.13333333,0,0,-0.13333333,0,71)" />
      <path
         id="path20"
         d="m 497.094,98.8047 c 4.605,0.125 6.84,0.6523 8.551,2.0973 2.628,2.11 4.074,6.321 4.074,11.711 0,5.125 -0.785,9.071 -2.367,11.707 -1.579,2.629 -3.813,3.684 -8.418,3.684 h -1.84 z m 25.914,-43.2734 c 0.918,-2.1094 0.918,-2.1094 0.918,-3.0274 0,-0.7891 -0.789,-1.8437 -1.446,-2.2344 -0.792,-0.2656 -0.917,-0.2656 -3.289,-0.2656 h -2.234 c -3.555,0 -3.945,0.2656 -4.738,2.3633 l -0.395,1.1914 -14.73,39.3281 V 54.7422 c 0,-2.8906 0,-3.1563 -0.785,-3.9453 -0.793,-0.793 -1.055,-0.793 -3.954,-0.793 h -2.363 c -2.894,0 -3.156,0 -3.949,0.793 -0.785,0.789 -0.785,1.0547 -0.785,3.9453 v 78.2618 c 0,2.891 0,3.152 0.785,3.945 0.793,0.789 1.055,0.789 3.949,0.789 h 10.781 c 6.446,0 9.739,-0.789 12.895,-3.289 4.734,-3.683 7.5,-10.656 7.5,-19.211 0,-7.89 -1.711,-13.933 -5.266,-18.406 -1.839,-2.375 -3.418,-3.4179 -6.839,-4.2109 l 13.945,-37.0898"
         style="fill:#ffffff;fill-opacity:1;fill-rule:nonzero;stroke:none"
         transform="matrix(0.13333333,0,0,-0.13333333,0,71)" />
      <path
         id="path21"
         d="m 546.965,121.293 c -0.789,-2.625 -1.574,-8.281 -1.707,-13.809 -0.266,-4.609 -0.266,-8.5543 -0.266,-15.1246 0,-24.9922 2.5,-32.6172 10.524,-32.6172 4.996,0 7.89,3.0156 9.074,9.7266 0.789,4.871 1.316,12.5 1.316,21.1796 0,17.7536 -0.922,28.4106 -2.761,32.4926 -1.579,3.418 -4.079,5.125 -7.497,5.125 -4.339,0 -6.972,-2.11 -8.683,-6.973 z m 25.652,8.293 c 4.074,-7.637 5.653,-17.891 5.653,-37.8829 0,-30.7812 -6.313,-42.8789 -22.227,-42.8789 -8.289,0 -14.863,3.543 -18.023,9.8633 -1.973,3.9453 -3.286,8.2813 -3.946,13.1523 -1.054,7.629 -1.445,15.129 -1.445,24.0743 0,8.6799 0.523,17.6169 1.445,22.0899 2.633,14.207 9.469,20.918 21.047,20.918 8.024,0 14.336,-3.293 17.496,-9.336"
         style="fill:#ffffff;fill-opacity:1;fill-rule:nonzero;stroke:none"
         transform="matrix(0.13333333,0,0,-0.13333333,0,71)" />
      <path
         id="path22"
         d="m 602.648,99.9844 h 13.157 c 2.761,0 3.023,0 3.812,-0.7891 0.793,-0.793 0.793,-1.0469 0.793,-3.9453 v -0.5273 c 0,-2.8907 0,-3.1563 -0.793,-3.9454 -0.789,-0.7929 -1.051,-0.7929 -3.812,-0.7929 H 602.648 V 54.7422 c 0,-2.8906 0,-3.1563 -0.785,-3.9453 -0.789,-0.793 -1.054,-0.793 -3.949,-0.793 h -2.363 c -2.895,0 -3.16,0 -3.949,0.793 -0.789,0.789 -0.789,1.0547 -0.789,3.9453 v 78.2618 c 0,2.891 0,3.152 0.789,3.945 0.789,0.789 1.054,0.789 3.949,0.789 h 22.094 c 2.898,0 3.16,0 3.945,-0.789 0.793,-0.793 0.793,-1.054 0.793,-3.945 v -0.527 c 0,-2.891 0,-3.157 -0.793,-3.946 -0.785,-0.793 -1.047,-0.793 -3.945,-0.793 H 602.648 V 99.9844"
         style="fill:#ffffff;fill-opacity:1;fill-rule:nonzero;stroke:none"
         transform="matrix(0.13333333,0,0,-0.13333333,0,71)" />
      <path
         id="path23"
         d="m 644.758,99.8594 h 12.629 c 2.894,0 3.16,0 3.945,-0.793 0.793,-0.7891 0.793,-1.0547 0.793,-3.9453 v -0.5273 c 0,-2.8907 0,-3.1524 -0.793,-3.9454 -0.785,-0.789 -1.051,-0.789 -3.945,-0.789 H 644.758 V 60.0039 h 14.867 c 2.895,0 3.156,0 3.813,-0.7891 0.789,-0.7929 0.921,-1.0546 0.921,-3.9453 v -0.5273 c 0,-2.8906 -0.132,-3.1563 -0.921,-3.9453 -0.657,-0.793 -0.918,-0.793 -3.813,-0.793 H 637.66 c -2.894,0 -3.16,0 -3.949,0.793 -0.789,0.789 -0.789,1.0547 -0.789,3.9453 v 78.2618 c 0,2.891 0,3.152 0.789,3.945 0.789,0.789 1.055,0.789 3.949,0.789 h 21.965 c 2.895,0 3.156,0 3.813,-0.789 0.789,-0.793 0.921,-1.054 0.921,-3.945 v -0.527 c 0,-2.891 -0.132,-3.157 -0.921,-3.946 -0.657,-0.793 -0.918,-0.793 -3.813,-0.793 H 644.758 V 99.8594"
         style="fill:#ffffff;fill-opacity:1;fill-rule:nonzero;stroke:none"
         transform="matrix(0.13333333,0,0,-0.13333333,0,71)" />
      <path
         id="path24"
         d="m 705.219,130.102 c 0,-2.364 -0.664,-3.68 -1.973,-3.68 -0.793,0 -0.793,0 -2.637,0.926 -1.183,0.656 -2.765,0.918 -4.863,0.918 -6.32,0 -10.781,-4.735 -10.781,-11.571 0,-6.054 1.57,-8.683 12.098,-19.2106 5.39,-5.6524 7.492,-8.1524 9.199,-11.5703 1.972,-4.0821 3.164,-8.9453 3.164,-13.418 0,-14.1992 -8.289,-23.6719 -20.516,-23.6719 -5,0 -11.055,1.9727 -12.363,4.2071 -0.395,0.6562 -0.395,0.6562 -0.395,3.2812 v 2.6367 c 0,2.5 0.653,3.8086 1.965,3.8086 0.793,0 0.403,0.1367 3.946,-1.707 1.183,-0.5195 2.765,-0.918 4.875,-0.918 6.835,0 10.906,4.4727 10.906,11.9727 0,6.4453 -2.235,10.5156 -9.989,18.0156 -7.765,7.6289 -9.21,9.4727 -11.441,13.4179 -1.973,3.684 -3.027,8.02 -3.027,12.891 0,13.808 7.621,22.492 19.859,22.492 4.344,0 9.336,-1.184 11.047,-2.629 0.66,-0.527 0.926,-1.316 0.926,-2.762 v -1.191 -2.238"
         style="fill:#ffffff;fill-opacity:1;fill-rule:nonzero;stroke:none"
         transform="matrix(0.13333333,0,0,-0.13333333,0,71)" />
      <path
         id="path25"
         d="m 748.773,130.102 c 0,-2.364 -0.656,-3.68 -1.972,-3.68 -0.793,0 -0.793,0 -2.629,0.926 -1.18,0.656 -2.762,0.918 -4.871,0.918 -6.309,0 -10.781,-4.735 -10.781,-11.571 0,-6.054 1.582,-8.683 12.097,-19.2106 5.391,-5.6524 7.5,-8.1524 9.211,-11.5703 1.973,-4.0821 3.152,-8.9453 3.152,-13.418 0,-14.1992 -8.281,-23.6719 -20.515,-23.6719 -5,0 -11.043,1.9727 -12.363,4.2071 -0.391,0.6562 -0.391,0.6562 -0.391,3.2812 v 2.6367 c 0,2.5 0.652,3.8086 1.973,3.8086 0.781,0 0.39,0.1367 3.945,-1.707 1.18,-0.5195 2.762,-0.918 4.863,-0.918 6.836,0 10.918,4.4727 10.918,11.9727 0,6.4453 -2.238,10.5156 -10,18.0156 -7.754,7.6289 -9.199,9.4727 -11.437,13.4179 -1.969,3.684 -3.028,8.02 -3.028,12.891 0,13.808 7.629,22.492 19.864,22.492 4.336,0 9.336,-1.184 11.046,-2.629 0.653,-0.527 0.918,-1.316 0.918,-2.762 v -1.191 -2.238"
         style="fill:#ffffff;fill-opacity:1;fill-rule:nonzero;stroke:none"
         transform="matrix(0.13333333,0,0,-0.13333333,0,71)" />
      <path
         id="path26"
         d="m 771.086,137.738 c 2.891,0 3.156,0 3.945,-0.789 0.793,-0.793 0.793,-1.054 0.793,-3.945 V 54.7422 c 0,-2.8906 0,-3.1563 -0.793,-3.9453 -0.789,-0.793 -1.054,-0.793 -3.945,-0.793 h -2.363 c -2.899,0 -3.164,0 -3.953,0.793 -0.782,0.789 -0.782,1.0547 -0.782,3.9453 v 78.2618 c 0,2.891 0,3.152 0.782,3.945 0.789,0.789 1.054,0.789 3.953,0.789 h 2.363"
         style="fill:#ffffff;fill-opacity:1;fill-rule:nonzero;stroke:none"
         transform="matrix(0.13333333,0,0,-0.13333333,0,71)" />
      <path
         id="path27"
         d="m 802.629,121.293 c -0.789,-2.625 -1.57,-8.281 -1.707,-13.809 -0.266,-4.609 -0.266,-8.5543 -0.266,-15.1246 0,-24.9922 2.5,-32.6172 10.528,-32.6172 4.992,0 7.89,3.0156 9.074,9.7266 0.789,4.871 1.316,12.5 1.316,21.1796 0,17.7536 -0.926,28.4106 -2.761,32.4926 -1.583,3.418 -4.083,5.125 -7.5,5.125 -4.336,0 -6.973,-2.11 -8.684,-6.973 z m 25.656,8.293 c 4.07,-7.637 5.653,-17.891 5.653,-37.8829 0,-30.7812 -6.317,-42.8789 -22.235,-42.8789 -8.281,0 -14.855,3.543 -18.019,9.8633 -1.973,3.9453 -3.282,8.2813 -3.946,13.1523 -1.054,7.629 -1.441,15.129 -1.441,24.0743 0,8.6799 0.523,17.6169 1.441,22.0899 2.641,14.207 9.473,20.918 21.047,20.918 8.028,0 14.336,-3.293 17.5,-9.336"
         style="fill:#ffffff;fill-opacity:1;fill-rule:nonzero;stroke:none"
         transform="matrix(0.13333333,0,0,-0.13333333,0,71)" />
      <path
         id="path28"
         d="m 869.367,102.75 c 1.574,-4.7383 2.766,-8.6836 4.738,-15.5195 1.973,-7.1094 2.625,-9.6094 4.208,-16.1797 -1.055,7.625 -1.454,10.918 -1.844,14.4726 -0.391,5.125 -0.918,14.9886 -0.918,19.4606 v 28.02 c 0,2.891 0,3.152 0.789,3.945 0.785,0.789 1.047,0.789 3.945,0.789 h 2.363 c 2.895,0 3.157,0 3.946,-0.789 0.793,-0.793 0.793,-1.054 0.793,-3.945 V 54.7422 c 0,-2.8906 0,-3.1563 -0.793,-3.9453 -0.789,-0.793 -1.051,-0.793 -3.946,-0.793 h -2.5 c -3.808,0 -3.808,0 -5,3.6836 l -12.097,35.7813 c -0.528,1.8359 -2.238,7.2265 -3.418,11.3082 -0.918,3.153 -1.055,3.555 -2.891,12.235 -0.265,0.918 -0.664,2.492 -1.054,4.465 0.527,-3.809 0.39,-3.418 0.652,-7.227 0.527,-7.891 0.265,-3.684 0.793,-13.1562 0.398,-4.7344 0.262,-3.9454 0.398,-8.8165 l 0.52,-33.5351 v -1.3203 c 0,-2.8906 -0.781,-3.418 -4.602,-3.418 h -2.234 c -2.891,0 -3.156,0 -3.945,0.793 -0.793,0.789 -0.793,1.0547 -0.793,3.9453 v 78.2618 c 0,2.891 0,3.152 0.793,3.945 0.789,0.789 1.054,0.789 3.945,0.789 h 2.363 c 3.953,0 3.953,0 5.137,-3.679 l 10.652,-31.309"
         style="fill:#ffffff;fill-opacity:1;fill-rule:nonzero;stroke:none"
         transform="matrix(0.13333333,0,0,-0.13333333,0,71)" />
      <path
         id="path29"
         d="m 924.301,90.25 c -0.793,3.8164 -1.836,10.918 -2.766,17.762 -0.652,5.129 -1.055,7.89 -1.57,12.629 -1.192,-11.582 -2.375,-19.864 -5,-33.1449 l -2.11,-11.3203 h 14.071 z m -13.156,-23.1445 -2.5,-13.0196 c -0.79,-3.9531 -0.918,-4.082 -5,-4.082 h -1.836 c -3.555,0 -4.598,0.6563 -4.598,2.6289 0,0.6641 0,0.6641 0.391,2.6367 l 17.097,78.3865 c 0.793,3.946 0.918,4.082 5,4.082 h 0.918 c 4.074,0 4.211,-0.136 5,-4.082 l 16.836,-78.3865 c 0.266,-1.582 0.391,-2.1093 0.391,-2.6367 0,-1.9726 -1.051,-2.6289 -4.598,-2.6289 h -2.238 c -3.945,0 -4.207,0.1289 -5,4.082 l -2.363,13.0196 h -17.5"
         style="fill:#ffffff;fill-opacity:1;fill-rule:nonzero;stroke:none"
         transform="matrix(0.13333333,0,0,-0.13333333,0,71)" />
      <path
         id="path30"
         d="m 979.035,60.0039 c 2.903,0 3.164,0 3.82,-0.7891 0.79,-0.7929 0.918,-1.0546 0.918,-3.9453 v -0.5273 c 0,-2.8906 -0.128,-3.1563 -0.918,-3.9453 -0.656,-0.793 -0.917,-0.793 -3.82,-0.793 h -21.699 c -2.891,0 -3.152,0 -3.945,0.793 -0.789,0.789 -0.789,1.0547 -0.789,3.9453 v 78.2618 c 0,2.891 0,3.152 0.789,3.945 0.793,0.789 1.054,0.789 3.945,0.789 h 2.363 c 2.903,0 3.164,0 3.957,-0.789 0.782,-0.793 0.782,-1.054 0.782,-3.945 V 60.0039 h 14.597"
         style="fill:#ffffff;fill-opacity:1;fill-rule:nonzero;stroke:none"
         transform="matrix(0.13333333,0,0,-0.13333333,0,71)" />
      <path
         id="path31"
         d="m 1022.59,130.102 c 0,-2.364 -0.65,-3.68 -1.97,-3.68 -0.79,0 -0.79,0 -2.63,0.926 -1.18,0.656 -2.76,0.918 -4.87,0.918 -6.31,0 -10.78,-4.735 -10.78,-11.571 0,-6.054 1.58,-8.683 12.1,-19.2106 5.39,-5.6524 7.5,-8.1524 9.21,-11.5703 1.97,-4.0821 3.15,-8.9453 3.15,-13.418 0,-14.1992 -8.28,-23.6719 -20.52,-23.6719 -5,0 -11.042,1.9727 -12.358,4.2071 -0.395,0.6562 -0.395,0.6562 -0.395,3.2812 v 2.6367 c 0,2.5 0.657,3.8086 1.977,3.8086 0.777,0 0.387,0.1367 3.941,-1.707 1.185,-0.5195 2.765,-0.918 4.865,-0.918 6.84,0 10.92,4.4727 10.92,11.9727 0,6.4453 -2.24,10.5156 -10,18.0156 -7.757,7.6289 -9.203,9.4727 -11.437,13.4179 -1.973,3.684 -3.027,8.02 -3.027,12.891 0,13.808 7.625,22.492 19.864,22.492 4.33,0 9.33,-1.184 11.04,-2.629 0.66,-0.527 0.92,-1.316 0.92,-2.762 v -1.191 -2.238"
         style="fill:#ffffff;fill-opacity:1;fill-rule:nonzero;stroke:none"
         transform="matrix(0.13333333,0,0,-0.13333333,0,71)" />
    </g>
  </g>
</svg>
