<svg version="1.1" id="Layer_1" xmlns="http://www.w3.org/2000/svg" xmlns:xlink="http://www.w3.org/1999/xlink" x="0px" y="0px"
	 width="100%" viewBox="0 0 2048 1276" enable-background="new 0 0 2048 1276" xml:space="preserve">
<path fill="#FFFFFF" opacity="1.000000" stroke="none" 
	d="
M1115.000000,1277.000000 
	C743.333435,1277.000000 372.166901,1277.000000 1.000249,1277.000000 
	C1.000166,851.666931 1.000166,426.333801 1.000083,1.000534 
	C683.666260,1.000356 1366.332520,1.000356 2048.999023,1.000178 
	C2048.999512,426.332764 2048.999512,851.665527 2048.999756,1276.999146 
	C1737.833374,1277.000000 1426.666626,1277.000000 1115.000000,1277.000000 
M934.320801,350.851196 
	C870.111328,397.480316 850.963318,483.597595 890.055420,552.685364 
	C911.891663,591.276794 944.939331,615.834167 987.872314,627.092163 
	C990.858032,627.875061 992.823792,627.436462 994.736694,624.975891 
	C998.413452,620.246582 1002.598999,615.900635 1006.127686,611.070068 
	C1043.701782,559.635071 1055.791748,502.083832 1046.125977,439.730408 
	C1039.612549,397.712250 1022.050476,360.686401 993.339478,329.073090 
	C990.660706,326.123535 988.370361,325.757294 984.714783,326.772400 
	C966.713013,331.771210 950.094177,339.570648 934.320801,350.851196 
M1142.326782,577.831177 
	C1189.476807,523.687988 1192.813354,442.848236 1150.086670,385.000031 
	C1128.325073,355.536835 1099.607666,336.052887 1064.182129,326.606628 
	C1062.671875,326.203918 1060.023071,326.251404 1059.338501,327.164368 
	C1052.686523,336.035492 1046.340942,345.136353 1040.229980,353.719391 
	C1067.409302,391.442078 1083.968384,431.935974 1083.876587,478.247620 
	C1083.784912,524.494873 1067.042236,564.911133 1040.237061,601.949402 
	C1045.449707,609.314026 1050.844604,616.522278 1055.745972,624.051758 
	C1057.890381,627.346130 1060.059692,627.739136 1063.560669,626.794495 
	C1094.502441,618.446106 1120.693481,602.485046 1142.326782,577.831177 
M884.196655,870.605347 
	C884.261108,867.444946 884.363037,864.284851 884.383911,861.124146 
	C884.496338,844.132080 884.404175,827.135803 884.768982,810.149353 
	C884.940796,802.148499 887.529663,794.714478 893.011719,788.653320 
	C898.825073,782.225830 906.339661,780.512329 914.463318,782.437439 
	C921.983276,784.219421 925.645691,790.116699 926.938843,797.216675 
	C927.976746,802.915405 928.412354,808.784119 928.489807,814.585754 
	C928.694458,829.912354 928.559448,845.243530 928.559448,860.572876 
	C928.559509,864.029236 928.559448,867.485535 928.559448,871.166443 
	C938.304260,871.166443 947.539429,871.166443 957.097534,871.166443 
	C957.097534,869.235901 957.097412,867.585815 957.097473,865.935730 
	C957.098145,849.273376 957.001770,832.610229 957.138245,815.948975 
	C957.212891,806.831360 958.712280,797.979309 964.372437,790.428101 
	C969.958496,782.975708 977.695862,780.602112 986.530151,782.228577 
	C994.688904,783.730713 998.276184,790.020081 999.870544,797.372009 
	C1000.884888,802.049011 1001.242432,806.941833 1001.284363,811.743225 
	C1001.441650,829.737183 1001.348022,847.733337 1001.348450,865.728638 
	C1001.348511,867.491638 1001.348450,869.254578 1001.348450,871.071899 
	C1011.239197,871.071899 1020.458557,871.071899 1029.585449,871.071899 
	C1029.585449,845.885376 1029.644775,821.075745 1029.514282,796.267090 
	C1029.496948,792.979187 1028.748657,789.637146 1027.937134,786.421631 
	C1024.702271,773.604187 1018.183044,763.423645 1004.847412,759.192810 
	C988.413940,753.979004 969.611267,759.862549 958.976990,773.435425 
	C957.267456,775.617371 955.717773,777.924561 953.692139,780.730896 
	C947.068726,765.254456 935.906982,757.391724 919.368225,757.574463 
	C903.315735,757.751831 891.120361,764.753357 882.167847,778.243469 
	C881.683838,776.147583 881.730103,774.392029 881.675903,772.639587 
	C881.431702,764.745972 878.084595,760.739502 870.214539,760.355713 
	C861.259094,759.919067 852.265991,760.254700 843.117065,760.254700 
	C842.994080,761.634888 842.817505,762.774292 842.804871,763.915649 
	C842.766296,767.393555 842.790833,770.872070 842.790833,774.269470 
	C855.441223,776.767944 855.850891,777.274109 855.851257,790.025085 
	C855.851746,810.686401 855.851379,831.347717 855.851379,852.009033 
	C855.851379,858.323303 855.851379,864.637634 855.851379,871.217346 
	C865.331909,871.217346 874.456970,871.217346 884.196655,870.605347 
M1248.909912,721.618774 
	C1224.106201,717.428284 1199.124878,719.851318 1173.854248,719.070374 
	C1173.854248,770.111145 1173.854248,820.608948 1173.854248,871.048706 
	C1188.581055,873.289734 1238.545288,871.254456 1252.301025,867.876587 
	C1275.854492,862.092712 1292.243530,847.996216 1300.815918,825.270203 
	C1306.223511,810.933716 1306.534912,796.003235 1304.828613,780.933472 
	C1301.364014,750.333801 1279.931030,727.287659 1248.909912,721.618774 
M424.266602,757.735046 
	C416.889435,777.683777 416.145599,798.184143 420.205383,818.786133 
	C424.486267,840.510193 435.651459,857.697449 456.141754,867.576660 
	C471.530945,874.996399 487.962219,875.985596 504.530853,873.359741 
	C529.462585,869.408569 547.151733,855.544128 555.847412,831.851868 
	C565.201355,806.366455 564.964111,780.446289 554.439453,755.267578 
	C546.685608,736.717834 532.794067,723.947449 513.081177,719.195679 
	C503.356873,716.851562 492.949188,715.833191 482.965179,716.364746 
	C455.423737,717.831055 435.578949,731.322021 424.266602,757.735046 
M612.310364,902.492065 
	C612.310364,887.294067 612.310364,872.096130 612.310364,856.898132 
	C612.889709,856.572144 613.469116,856.246155 614.048462,855.920166 
	C614.345459,856.693359 614.456299,857.627747 614.966187,858.216736 
	C634.689270,880.998047 669.511658,879.460876 685.604614,854.213928 
	C700.903931,830.212158 701.122192,804.637024 688.013916,779.611572 
	C671.952087,748.947571 627.806396,751.400574 612.476624,776.433472 
	C611.881531,777.405090 611.022034,778.214905 609.542847,779.993225 
	C609.542847,776.725098 609.622620,774.734436 609.528809,772.752014 
	C609.157776,764.913269 605.757751,760.801514 598.014526,760.383545 
	C589.081177,759.901367 580.101807,760.271484 570.893555,760.271484 
	C570.893555,765.154541 570.893555,769.759216 570.893555,774.340210 
	C583.392456,776.397827 583.809509,776.897339 583.809448,789.647339 
	C583.809326,830.288574 583.809387,870.929749 583.809326,911.570984 
	C583.809265,913.333618 583.809265,915.096252 583.809265,916.804443 
	C593.646362,916.804443 602.849548,916.804443 612.310059,916.804443 
	C612.310059,912.121399 612.310059,907.804077 612.310364,902.492065 
M1150.188843,854.312744 
	C1149.451660,852.004578 1148.169312,849.718323 1148.075562,847.384277 
	C1147.741577,839.068176 1147.999268,830.728577 1147.682495,822.411255 
	C1147.271240,811.614441 1147.323242,800.710632 1145.726685,790.070251 
	C1143.584717,775.793945 1136.010620,764.915710 1121.493286,760.502380 
	C1101.495361,754.423096 1081.972778,757.425415 1062.801147,764.434998 
	C1061.940308,764.749756 1060.845947,765.964172 1060.823120,766.786377 
	C1060.655029,772.829529 1060.732300,778.879456 1060.732300,784.698914 
	C1061.906738,784.927612 1062.098145,785.031921 1062.219971,784.978394 
	C1063.586060,784.378967 1064.937500,783.746521 1066.299927,783.139343 
	C1078.262695,777.807922 1090.604126,774.846741 1103.683838,777.961304 
	C1115.402710,780.751770 1121.356079,789.820801 1119.544312,802.231995 
	C1115.335083,802.231995 1111.019287,802.012390 1106.732666,802.272766 
	C1093.302734,803.088501 1079.801270,803.147095 1066.973999,808.384949 
	C1040.489868,819.199341 1042.608032,854.590393 1060.020264,866.943542 
	C1075.609131,878.002991 1099.894531,876.462097 1114.362793,862.538025 
	C1116.816406,860.176636 1119.027588,857.563171 1121.826172,854.555359 
	C1122.089478,857.198486 1122.224365,859.121033 1122.482300,861.026917 
	C1123.116821,865.717590 1125.406372,870.072205 1130.120483,870.383789 
	C1140.272339,871.054871 1150.499390,870.590027 1160.687500,870.582275 
	C1160.687500,866.144775 1160.687500,861.707214 1160.687500,857.602173 
	C1157.188965,856.618469 1154.015869,855.726196 1150.188843,854.312744 
M1618.625000,800.865051 
	C1618.351562,798.550232 1618.116333,796.230103 1617.798584,793.921387 
	C1615.133911,774.563782 1606.002197,763.381897 1588.327271,759.201416 
	C1569.908569,754.845154 1551.938599,757.745789 1534.424316,764.212891 
	C1533.470093,764.565247 1532.093506,765.603333 1532.070190,766.357971 
	C1531.878906,772.543457 1531.962280,778.737427 1531.962280,784.886841 
	C1533.232178,784.886841 1533.415527,784.937744 1533.551392,784.878906 
	C1534.920044,784.285583 1536.277588,783.666748 1537.644409,783.069397 
	C1549.471558,777.900269 1561.648682,774.924866 1574.567017,777.927551 
	C1586.441162,780.687378 1592.495972,789.719299 1590.612793,802.190369 
	C1586.436279,802.190369 1582.133667,801.985046 1577.856812,802.228577 
	C1564.584106,802.984314 1551.150635,802.869690 1538.586426,808.220581 
	C1526.939453,813.180847 1519.659546,821.667175 1518.386719,834.518250 
	C1517.090942,847.602173 1520.436401,858.993225 1531.569214,867.105957 
	C1547.274780,878.551025 1571.260498,876.432068 1585.805908,862.306946 
	C1588.126953,860.052979 1590.230469,857.575012 1592.897705,854.701721 
	C1593.187500,857.429321 1593.304565,859.383057 1593.617065,861.304993 
	C1594.373901,865.959412 1596.732300,870.210449 1601.474121,870.507629 
	C1611.503906,871.136292 1621.600342,870.699158 1631.822754,870.699158 
	C1631.822754,866.390381 1631.822754,861.942261 1631.822754,857.557434 
	C1619.058350,854.012817 1619.051758,854.012878 1618.943481,840.271790 
	C1618.842529,827.447388 1618.757690,814.622803 1618.625000,800.865051 
M1387.442017,859.920288 
	C1388.855225,858.348816 1390.268433,856.777405 1392.179443,854.652344 
	C1392.523193,857.486267 1392.703369,859.615906 1393.052124,861.717468 
	C1393.876953,866.686768 1396.761719,870.476440 1401.707031,870.747620 
	C1411.421387,871.280457 1421.185547,870.904297 1431.124268,870.904297 
	C1431.124268,866.352661 1431.124268,861.808105 1431.124268,857.122437 
	C1429.990356,856.971313 1429.179199,856.881531 1428.374268,856.753174 
	C1419.718262,855.372131 1418.816040,854.857117 1418.502319,846.088196 
	C1418.002197,832.117310 1418.573975,818.098145 1417.778076,804.151550 
	C1417.329102,796.285156 1415.736206,788.313110 1413.424683,780.766724 
	C1410.490601,771.187561 1403.554199,764.598022 1394.070068,761.248291 
	C1373.524048,753.991333 1353.396973,757.189575 1333.547852,764.332520 
	C1332.544189,764.693726 1331.248413,766.062195 1331.214478,767.002319 
	C1331.000854,772.914978 1331.106323,778.839172 1331.106323,784.622009 
	C1332.347046,784.802856 1332.711060,784.975708 1332.959717,784.871887 
	C1334.184570,784.360474 1335.371216,783.758911 1336.584961,783.219604 
	C1348.542725,777.906494 1360.864502,774.938843 1373.966187,777.924561 
	C1385.600708,780.575928 1392.045532,790.272278 1389.764282,802.304260 
	C1384.449707,802.304260 1378.963623,802.004272 1373.521240,802.364380 
	C1360.763184,803.208618 1347.980713,803.600647 1335.920044,809.040222 
	C1311.697388,819.965088 1313.298584,853.483398 1329.312012,866.083008 
	C1343.430664,877.191772 1370.828125,878.418823 1387.442017,859.920288 
M746.354004,727.058960 
	C741.631775,728.679626 736.966675,730.504333 732.166870,731.847900 
	C729.066833,732.715637 727.977295,734.185730 728.088135,737.443420 
	C728.340820,744.874817 728.167908,752.320618 728.167908,760.239014 
	C720.215515,760.239014 712.806580,760.239014 705.275146,760.239014 
	C705.275146,767.468323 705.275146,774.208496 705.275146,781.356689 
	C712.480530,781.356689 719.435486,781.356689 726.979614,781.356689 
	C726.979614,783.548889 726.979553,785.334534 726.979614,787.120117 
	C726.980042,801.448853 726.889709,815.778381 727.028015,830.105835 
	C727.079346,835.421631 727.294067,840.788391 728.084106,846.034119 
	C730.073303,859.241577 736.189697,869.219177 750.242981,872.416443 
	C760.517212,874.753784 770.762695,874.201599 780.955933,871.985046 
	C781.960266,871.766602 783.467651,870.512268 783.496948,869.694092 
	C783.713440,863.647217 783.614075,857.589050 783.614075,851.229126 
	C780.357178,851.947144 778.431274,852.471924 776.471680,852.787415 
	C764.162781,854.769714 757.257507,849.513367 755.994873,837.141174 
	C755.691040,834.164124 755.603882,831.154663 755.594910,828.159546 
	C755.553528,814.330811 755.567505,800.501831 755.583923,786.672974 
	C755.585815,785.052734 755.725281,783.432617 755.828918,781.216614 
	C764.901794,781.216614 773.626526,781.216614 782.182251,781.216614 
	C782.182251,773.850708 782.182251,767.108459 782.182251,759.979492 
	C773.178894,759.979492 764.572327,759.979492 755.337524,759.979492 
	C755.337524,747.903137 755.337524,736.221741 755.337524,724.078613 
	C752.116455,725.165344 749.615234,726.009155 746.354004,727.058960 
M1482.033813,825.462646 
	C1482.033813,811.015198 1482.033813,796.567810 1482.033813,781.339172 
	C1491.320312,781.339172 1500.018188,781.339172 1508.575928,781.339172 
	C1508.575928,773.825989 1508.575928,767.108521 1508.575928,759.882080 
	C1499.559082,759.882080 1490.983398,759.882080 1481.905273,759.882080 
	C1481.905273,747.794067 1481.905273,736.229736 1481.905273,724.090454 
	C1474.180420,726.653076 1467.166626,729.231934 1459.997437,731.262939 
	C1455.738281,732.469482 1454.203857,734.600159 1454.446045,739.040588 
	C1454.821655,745.927734 1454.545166,752.850525 1454.545166,760.207764 
	C1446.434204,760.207764 1439.176392,760.207764 1431.666748,760.207764 
	C1431.666748,767.413757 1431.666748,774.138489 1431.666748,781.470703 
	C1438.865479,781.470703 1445.773071,781.470703 1453.364746,781.470703 
	C1453.364746,784.011780 1453.344238,785.952209 1453.367920,787.892090 
	C1453.591797,806.208313 1453.354858,824.546753 1454.224243,842.832458 
	C1454.762329,854.151672 1458.510254,864.656311 1469.905884,869.951294 
	C1482.123535,875.628235 1494.897583,874.545532 1507.627197,871.929993 
	C1508.560303,871.738281 1509.890991,870.306946 1509.921997,869.413208 
	C1510.127686,863.503052 1510.028198,857.582214 1510.028198,851.210876 
	C1507.113037,851.874573 1505.202759,852.389709 1503.262695,852.737976 
	C1491.125244,854.916626 1484.313965,850.075317 1482.677368,837.899536 
	C1482.169556,834.121338 1482.232300,830.266479 1482.033813,825.462646 
M814.186707,760.155334 
	C805.247375,760.155334 796.308105,760.155334 787.166992,760.155334 
	C787.166992,765.267334 787.166992,769.824402 787.166992,774.335022 
	C799.646790,776.264160 800.031494,776.718323 800.031555,789.234680 
	C800.031738,814.696167 800.031494,840.157715 800.031433,865.619202 
	C800.031433,867.400146 800.031494,869.181091 800.031494,871.075928 
	C809.753296,871.075928 818.960693,871.075928 828.153442,871.075928 
	C828.289978,870.229126 828.436035,869.745728 828.436218,869.262329 
	C828.448730,837.310730 828.513855,805.359009 828.410278,773.407715 
	C828.381042,764.382019 824.971802,761.226257 814.186707,760.155334 
M1136.632690,946.255615 
	C1136.632690,939.476501 1136.632690,932.697449 1136.632690,925.918335 
	C1142.875000,933.227905 1148.229004,940.428284 1153.174194,947.899292 
	C1155.527466,951.454407 1158.140991,952.992859 1162.519775,951.440857 
	C1162.519775,936.667480 1162.519775,921.795105 1162.519775,906.751160 
	C1159.661255,906.751160 1157.103760,906.751160 1154.024048,906.751160 
	C1154.024048,915.685242 1154.024048,924.280884 1154.024048,933.488586 
	C1148.169556,925.248108 1142.602417,917.808167 1137.502808,910.060425 
	C1135.102295,906.413513 1132.496216,905.146301 1128.454346,906.676758 
	C1128.454346,921.651855 1128.454346,936.500244 1128.454346,951.363159 
	C1131.302368,951.363159 1133.718506,951.363159 1136.388916,951.363159 
	C1136.481689,949.777466 1136.557617,948.479370 1136.632690,946.255615 
M1433.764771,928.873047 
	C1432.933105,928.477905 1432.101440,928.082703 1431.126465,927.619446 
	C1436.844604,923.919312 1438.294678,921.425293 1438.106323,916.260437 
	C1437.955811,912.137878 1435.931152,909.112976 1432.253418,907.716492 
	C1424.227539,904.668884 1416.042847,905.740967 1407.701172,906.931580 
	C1407.701172,921.200012 1407.650269,934.859131 1407.799316,948.516052 
	C1407.810913,949.592224 1409.138184,951.512390 1409.982422,951.586975 
	C1417.583740,952.258362 1425.316284,953.525085 1432.576416,949.898499 
	C1441.261841,945.559998 1442.145386,935.158630 1433.764771,928.873047 
M1242.611328,945.068665 
	C1248.751709,936.479919 1249.531250,926.991211 1245.554565,917.642517 
	C1243.898315,913.748962 1240.070923,909.956848 1236.264282,907.974182 
	C1228.774048,904.072998 1220.484741,906.109314 1212.182495,906.262085 
	C1212.182495,921.057434 1212.177856,935.001892 1212.194458,948.946350 
	C1212.195435,949.740417 1212.369995,950.534241 1212.511230,951.730713 
	C1223.085083,952.245544 1233.662842,954.363464 1242.611328,945.068665 
M845.362854,925.501099 
	C845.362854,934.092102 845.362854,942.683167 845.362854,951.440552 
	C848.652100,951.440552 851.243286,951.440552 854.424072,951.440552 
	C854.424072,945.480469 854.424072,939.744385 854.424072,932.300964 
	C857.156372,934.216797 859.124329,934.995728 860.153748,936.442444 
	C862.362427,939.546265 864.107727,942.982727 866.004883,946.304688 
	C869.445129,952.328491 871.845642,953.174866 879.009094,950.621643 
	C875.141235,944.419861 871.309875,938.276733 867.401062,932.009338 
	C867.665222,931.844360 868.379883,931.434021 869.057312,930.969421 
	C874.203308,927.440735 876.430786,921.894226 875.182983,915.751953 
	C874.118286,910.510498 870.316833,907.039612 863.727295,906.329407 
	C859.136841,905.834717 854.447510,906.300110 849.803528,906.243774 
	C846.484863,906.203552 845.064819,907.503235 845.291504,911.027954 
	C845.579163,915.502380 845.362488,920.009216 845.362854,925.501099 
M828.409790,713.014587 
	C821.421204,708.660217 813.801636,709.030090 806.232300,710.487366 
	C799.024475,711.875061 795.572083,716.355957 795.468872,723.357849 
	C795.361755,730.625854 798.737854,735.528564 806.065674,736.850647 
	C811.016785,737.743835 816.376709,737.989197 821.299011,737.105469 
	C833.609253,734.895386 837.324951,722.841980 828.409790,713.014587 
M649.307800,940.469055 
	C649.307800,944.066895 649.307800,947.664673 649.307800,951.314087 
	C658.732849,951.314087 667.441895,951.314087 676.116821,951.314087 
	C676.116821,948.560425 676.116821,946.181580 676.116821,943.195923 
	C669.989563,943.195923 664.265015,943.195923 658.599243,943.195923 
	C658.599243,939.481689 658.599243,936.392761 658.599243,932.804810 
	C663.977966,932.804810 669.066528,932.804810 674.371582,932.804810 
	C674.371582,929.913391 674.371582,927.539185 674.371582,924.730774 
	C671.570740,924.730774 669.104492,924.730591 666.638306,924.730835 
	C657.305115,924.731812 657.305115,924.731812 658.893677,914.541016 
	C664.454773,914.541016 670.164673,914.541016 675.824036,914.541016 
	C675.824036,911.424072 675.824036,909.032410 675.824036,906.756226 
	C666.854431,906.756226 658.274231,906.756226 649.308044,906.756226 
	C649.308044,917.899597 649.308044,928.689697 649.307800,940.469055 
M1557.242920,937.492615 
	C1557.242920,942.086365 1557.242920,946.680115 1557.242920,951.676147 
	C1562.261597,951.676147 1566.563721,951.676147 1570.865845,951.676147 
	C1575.294922,951.676147 1579.723999,951.676147 1584.142944,951.676147 
	C1584.142944,948.581726 1584.142944,946.203125 1584.142944,943.565979 
	C1580.924805,943.565979 1578.108276,943.565918 1575.291626,943.566040 
	C1565.804199,943.566406 1565.800781,943.566162 1566.541992,934.088501 
	C1566.563599,933.811218 1566.845947,933.554382 1567.350830,932.718567 
	C1572.079224,932.718567 1577.150269,932.718567 1582.393677,932.718567 
	C1582.393677,929.867493 1582.393677,927.596313 1582.393677,924.730774 
	C1579.552856,924.730774 1576.934326,924.730713 1574.315674,924.730774 
	C1565.797363,924.731079 1565.789673,924.730469 1566.470947,916.258972 
	C1566.506836,915.813782 1566.851318,915.393372 1567.307495,914.411865 
	C1572.703613,914.411865 1578.277222,914.411865 1583.817383,914.411865 
	C1583.817383,911.431702 1583.817383,909.052612 1583.817383,906.746216 
	C1574.809326,906.746216 1566.219727,906.746216 1557.243042,906.746216 
	C1557.243042,916.891541 1557.243042,926.693176 1557.242920,937.492615 
M705.579590,927.149170 
	C704.118896,930.510498 702.888367,933.997192 701.142944,937.203552 
	C698.581665,941.908997 695.652222,946.414001 692.659912,951.368164 
	C702.004395,952.039795 702.020203,952.048950 706.083130,945.007324 
	C708.012390,941.663513 709.868286,938.277344 711.908752,934.640747 
	C714.168091,938.681702 716.162598,942.301086 718.206116,945.892517 
	C721.929810,952.436707 723.455750,953.005859 731.658875,950.792908 
	C727.952515,944.408325 724.421631,938.018677 720.566345,931.831177 
	C718.956970,929.248291 718.771790,927.313660 720.508667,924.659790 
	C724.208313,919.006897 727.505310,913.090393 731.043579,907.153870 
	C722.620056,905.393616 722.311768,905.505981 718.711731,911.844910 
	C716.870911,915.086365 715.083313,918.358093 712.979614,922.141235 
	C711.066040,918.522095 709.447510,915.482178 707.848267,912.432190 
	C704.325195,905.713501 701.969299,904.804626 694.351257,907.375183 
	C697.968689,913.779419 701.569458,920.154053 705.579590,927.149170 
M1030.336426,916.410828 
	C1031.822021,915.767578 1033.280884,914.655823 1034.798096,914.569580 
	C1039.197021,914.319397 1043.619385,914.481079 1047.916748,914.481079 
	C1047.916748,911.368530 1047.916748,909.107422 1047.916748,906.809814 
	C1038.875122,906.809814 1030.168213,906.809814 1021.617432,906.809814 
	C1021.617432,921.932129 1021.617432,936.643433 1021.617432,951.287964 
	C1030.763794,951.287964 1039.485596,951.287964 1048.244385,951.287964 
	C1048.244385,948.635620 1048.244385,946.372375 1048.244385,943.480225 
	C1042.256714,943.480225 1036.526489,943.480225 1030.640625,943.480225 
	C1030.640625,939.644897 1030.640625,936.446899 1030.640625,932.717896 
	C1036.067139,932.717896 1041.147339,932.717896 1046.259033,932.717896 
	C1046.259033,929.801758 1046.259033,927.434143 1046.259033,924.735474 
	C1043.042114,924.735474 1040.233887,924.756104 1037.425903,924.731567 
	C1029.530762,924.662659 1030.329956,925.596313 1030.336426,916.410828 
M811.511230,951.663391 
	C816.266785,951.663391 821.022400,951.663391 825.837524,951.663391 
	C825.837524,948.609680 825.837524,946.324219 825.837524,943.500671 
	C819.888245,943.500671 814.144592,943.500671 808.243286,943.500671 
	C808.243286,939.721130 808.243286,936.484070 808.243286,932.791382 
	C813.603088,932.791382 818.690674,932.791382 823.980896,932.791382 
	C823.980896,929.935242 823.980896,927.544128 823.980896,924.685547 
	C818.592041,924.685547 813.506775,924.685547 808.234192,924.685547 
	C808.234192,921.125671 808.234192,918.040222 808.234192,914.287476 
	C814.194580,914.287476 819.892883,914.287476 825.499146,914.287476 
	C825.499146,911.365295 825.499146,909.117493 825.499146,906.714966 
	C816.592651,906.714966 808.014648,906.714966 799.337708,906.714966 
	C799.337708,921.740356 799.337708,936.462219 799.337708,951.663025 
	C803.261902,951.663025 806.892456,951.663025 811.511230,951.663391 
M773.403748,934.073303 
	C779.862793,929.557556 782.202209,923.597046 780.319519,916.453491 
	C778.707520,910.337158 774.355408,906.824341 766.650940,906.153503 
	C762.377441,905.781433 758.035889,906.249268 753.725708,906.221863 
	C750.397766,906.200745 749.111084,907.531433 749.231934,911.022888 
	C749.484680,918.326538 749.309631,925.645020 749.309937,932.957397 
	C749.310242,939.048462 749.309998,945.139526 749.309998,951.270020 
	C752.682129,951.270020 755.377441,951.270020 758.581909,951.270020 
	C758.581909,946.120178 758.581909,941.373657 758.581909,937.148254 
	C763.699463,936.157898 768.213867,935.284241 773.403748,934.073303 
M1461.776733,932.041626 
	C1459.490479,938.376038 1457.204224,944.710510 1454.881714,951.145508 
	C1463.262451,952.353577 1463.430786,952.409851 1465.773804,945.400330 
	C1466.737549,942.517212 1468.142090,941.344971 1471.114746,941.675720 
	C1472.919800,941.876587 1474.786255,941.888306 1476.588135,941.674072 
	C1479.750732,941.298096 1481.298828,942.501404 1482.303711,945.608521 
	C1484.579956,952.647034 1484.944946,952.679871 1493.644165,950.990662 
	C1488.710205,937.207642 1483.885132,923.461975 1478.775146,909.823059 
	C1478.197021,908.279846 1476.197266,906.808228 1474.535645,906.236267 
	C1471.819458,905.301270 1470.484985,907.106689 1469.626343,909.687500 
	C1467.215820,916.932251 1464.565063,924.097168 1461.776733,932.041626 
M1292.354492,929.894836 
	C1289.968994,923.142822 1287.753540,916.322021 1285.070312,909.690552 
	C1284.453613,908.166321 1282.396362,906.788818 1280.708984,906.231873 
	C1277.878784,905.297607 1276.751343,907.309265 1275.895264,909.823975 
	C1273.105103,918.019714 1270.077759,926.134399 1267.168091,934.289673 
	C1265.177734,939.867920 1263.231079,945.461670 1261.231201,951.144592 
	C1269.655518,952.345581 1269.824097,952.399597 1272.077271,945.371582 
	C1273.023438,942.420349 1274.514771,941.354675 1277.467163,941.673523 
	C1279.279175,941.869263 1281.157959,941.914551 1282.956299,941.664185 
	C1286.260986,941.204163 1287.645020,942.849365 1288.692017,945.718628 
	C1291.200195,952.592285 1292.154785,952.946472 1299.542969,950.849609 
	C1299.584473,950.695557 1299.700317,950.515320 1299.656616,950.391235 
	C1297.334106,943.796753 1294.998169,937.206848 1292.354492,929.894836 
M1520.666504,952.526062 
	C1522.160400,952.477051 1523.664917,952.525635 1525.146240,952.362549 
	C1532.704834,951.530334 1537.284668,947.835388 1538.467651,941.693909 
	C1539.771973,934.922791 1537.145508,929.982849 1530.194946,926.361328 
	C1527.691895,925.057190 1524.768555,924.342041 1522.631470,922.620361 
	C1520.837158,921.174988 1519.906494,918.657715 1518.593506,916.614868 
	C1520.811157,915.515930 1522.984619,913.635193 1525.257202,913.506592 
	C1528.432373,913.326965 1531.681274,914.454956 1535.114258,915.061462 
	C1535.991211,912.815186 1536.816650,910.700623 1538.177490,907.214600 
	C1532.426514,906.654419 1527.433105,905.719604 1522.453857,905.789856 
	C1515.251099,905.891541 1510.774780,909.576050 1509.600098,915.360840 
	C1508.263794,921.941223 1510.874390,927.154541 1517.321533,930.504639 
	C1520.120361,931.958923 1523.302979,932.835999 1525.785278,934.682312 
	C1527.510254,935.965393 1529.547607,938.689636 1529.226562,940.338257 
	C1528.906006,941.985291 1525.883789,944.116821 1523.940796,944.229797 
	C1519.740234,944.474121 1515.472534,943.562744 1510.769409,943.076172 
	C1510.093140,944.928589 1509.266357,947.193481 1508.159424,950.225342 
	C1512.427856,951.058960 1516.112549,951.778564 1520.666504,952.526062 
M1368.040283,907.274841 
	C1362.782227,921.872192 1357.524170,936.469543 1352.215942,951.206177 
	C1360.660034,952.204590 1360.811157,952.255310 1363.134644,945.330994 
	C1364.108887,942.427490 1365.640747,941.371033 1368.574219,941.670349 
	C1370.548096,941.871826 1372.576294,941.875183 1374.549194,941.669800 
	C1377.379028,941.375122 1378.624634,942.616394 1379.553955,945.224792 
	C1382.195801,952.640137 1382.726562,952.806763 1391.001831,950.888977 
	C1386.250244,937.591248 1381.278687,924.410645 1376.899414,911.036072 
	C1375.310303,906.182617 1372.843750,905.130554 1368.040283,907.274841 
M975.110840,925.195984 
	C979.959473,928.273499 984.984192,931.115601 989.569580,934.545044 
	C991.388428,935.905334 993.278381,938.630615 993.161743,940.618530 
	C993.080322,942.004456 989.684387,944.175049 987.689941,944.266052 
	C983.506348,944.457153 979.270691,943.508179 974.729553,942.989990 
	C973.989929,945.096191 973.194153,947.362183 971.875366,951.117676 
	C978.773254,951.511353 984.681091,952.446289 990.490784,952.025940 
	C997.452515,951.522339 1001.498108,947.321838 1002.504028,941.303040 
	C1003.567383,934.941223 1001.301147,930.361694 995.122070,926.904419 
	C992.225525,925.283875 988.883118,924.343140 986.255554,922.400696 
	C984.551880,921.141052 983.775024,918.627686 982.582825,916.676147 
	C984.619080,915.555664 986.617188,913.599854 988.700256,913.504761 
	C992.066162,913.351013 995.487976,914.421265 999.168701,915.020630 
	C1000.018433,912.763550 1000.859741,910.528992 1002.151001,907.099243 
	C996.254822,906.564819 991.350708,905.593506 986.492920,905.787048 
	C975.573303,906.222046 970.794312,914.131958 975.110840,925.195984 
M1615.844971,922.739685 
	C1614.541504,920.685547 1613.238037,918.631409 1611.934570,916.577148 
	C1614.334106,915.498230 1616.687378,913.683716 1619.145264,913.528687 
	C1622.141113,913.339722 1625.225098,914.545898 1628.514038,915.196777 
	C1629.349609,912.784851 1630.130859,910.529785 1631.356689,906.991333 
	C1625.290527,906.541382 1620.058228,905.682373 1614.867676,905.885986 
	C1608.189819,906.147827 1604.049561,909.857117 1602.962402,915.341125 
	C1601.696899,921.724487 1603.925781,926.697388 1609.823364,930.007263 
	C1612.863647,931.713562 1616.359253,932.705200 1619.161865,934.703247 
	C1620.904663,935.945496 1622.961060,938.712280 1622.633667,940.344910 
	C1622.302002,941.998352 1619.268799,944.113770 1617.311890,944.230408 
	C1613.114624,944.480591 1608.848389,943.573792 1604.137207,943.092346 
	C1603.453979,944.913330 1602.610474,947.161499 1601.698853,949.591064 
	C1608.456299,952.683533 1614.971802,953.332703 1621.617920,951.806702 
	C1627.076172,950.553345 1630.846558,947.275940 1631.829346,941.479187 
	C1632.817017,935.653076 1631.102051,930.876282 1625.865356,927.815247 
	C1622.858887,926.057739 1619.650635,924.645691 1615.844971,922.739685 
M1318.548340,906.415161 
	C1315.296143,906.415161 1312.043945,906.415161 1308.931641,906.415161 
	C1308.931641,909.564026 1308.931641,911.931641 1308.931641,914.729980 
	C1313.303955,914.729980 1317.232788,914.729980 1321.731934,914.729980 
	C1321.731934,927.199646 1321.731934,939.242859 1321.731934,951.244629 
	C1325.040161,951.244629 1327.754395,951.244629 1331.031494,951.244629 
	C1331.031494,938.796631 1331.031494,926.763916 1331.031494,914.298767 
	C1335.538208,914.298767 1339.471680,914.298767 1343.535156,914.298767 
	C1343.535156,911.574646 1343.535156,909.305542 1343.535156,906.415527 
	C1335.395020,906.415527 1327.464966,906.415527 1318.548340,906.415161 
M912.830505,938.487000 
	C912.830505,930.584167 912.830505,922.681274 912.830505,914.386597 
	C917.588745,914.386597 921.534302,914.386597 925.615234,914.386597 
	C925.615234,911.586304 925.615234,909.210266 925.615234,906.709351 
	C913.891541,906.709351 902.508240,906.709351 890.973267,906.709351 
	C890.973267,909.382019 890.973267,911.751709 890.973267,914.772217 
	C895.386902,914.772217 899.432373,914.772217 903.905212,914.772217 
	C903.905212,927.339966 903.905212,939.255737 903.905212,951.274414 
	C907.071228,951.274414 909.782410,951.274414 912.830383,951.274414 
	C912.830383,947.084045 912.830383,943.282288 912.830505,938.487000 
M1097.884033,928.500000 
	C1097.884033,936.081421 1097.884033,943.662781 1097.884033,951.384888 
	C1101.114502,951.384888 1103.689087,951.384888 1106.535889,951.384888 
	C1106.535889,936.401062 1106.535889,921.706543 1106.535889,906.748718 
	C1103.607544,906.748718 1100.896362,906.748718 1097.884033,906.748718 
	C1097.884033,913.893982 1097.884033,920.697021 1097.884033,928.500000 
M953.032593,919.511475 
	C953.032593,915.263123 953.032593,911.014709 953.032593,906.713745 
	C949.744263,906.713745 947.159973,906.713745 944.379883,906.713745 
	C944.379883,921.712524 944.379883,936.409058 944.379883,951.284241 
	C947.374023,951.284241 950.075195,951.284241 953.032654,951.284241 
	C953.032654,940.772034 953.032654,930.639465 953.032593,919.511475 
z"/>
<path fill="#06578C" opacity="1.000000" stroke="none" 
	d="
M934.606445,350.632385 
	C950.094177,339.570648 966.713013,331.771210 984.714783,326.772400 
	C988.370361,325.757294 990.660706,326.123535 993.339478,329.073090 
	C1022.050476,360.686401 1039.612549,397.712250 1046.125977,439.730408 
	C1055.791748,502.083832 1043.701782,559.635071 1006.127686,611.070068 
	C1002.598999,615.900635 998.413452,620.246582 994.736694,624.975891 
	C992.823792,627.436462 990.858032,627.875061 987.872314,627.092163 
	C944.939331,615.834167 911.891663,591.276794 890.055420,552.685364 
	C850.963318,483.597595 870.111328,397.480316 934.606445,350.632385 
M1005.713318,542.072876 
	C1017.045349,508.880066 1019.388428,475.013428 1012.892761,440.597107 
	C1006.208801,405.183167 990.508667,374.296631 965.131531,347.625610 
	C920.887329,381.736084 900.740173,427.227264 901.953552,482.221344 
	C903.093506,533.890198 923.613403,576.339233 965.161194,607.976807 
	C983.483521,588.643982 996.803406,567.166321 1005.713318,542.072876 
z"/>
<path fill="#03ACC1" opacity="1.000000" stroke="none" 
	d="
M1142.095703,578.101196 
	C1120.693481,602.485046 1094.502441,618.446106 1063.560669,626.794495 
	C1060.059692,627.739136 1057.890381,627.346130 1055.745972,624.051758 
	C1050.844604,616.522278 1045.449707,609.314026 1040.237061,601.949402 
	C1067.042236,564.911133 1083.784912,524.494873 1083.876587,478.247620 
	C1083.968384,431.935974 1067.409302,391.442078 1040.229980,353.719391 
	C1046.340942,345.136353 1052.686523,336.035492 1059.338501,327.164368 
	C1060.023071,326.251404 1062.671875,326.203918 1064.182129,326.606628 
	C1099.607666,336.052887 1128.325073,355.536835 1150.086670,385.000031 
	C1192.813354,442.848236 1189.476807,523.687988 1142.095703,578.101196 
M1146.059204,449.477325 
	C1138.736938,407.690155 1119.270142,373.273193 1084.334351,347.471375 
	C1081.750366,351.153015 1079.398315,354.504242 1077.102539,357.775116 
	C1133.156372,424.692413 1132.519653,532.126648 1077.080444,597.895752 
	C1079.406860,601.171997 1081.774292,604.506042 1084.130249,607.823975 
	C1127.363892,578.705566 1156.767212,518.077087 1146.059204,449.477325 
z"/>
<path fill="#05568C" opacity="1.000000" stroke="none" 
	d="
M883.889404,870.911377 
	C874.456970,871.217346 865.331909,871.217346 855.851379,871.217346 
	C855.851379,864.637634 855.851379,858.323303 855.851379,852.009033 
	C855.851379,831.347717 855.851746,810.686401 855.851257,790.025085 
	C855.850891,777.274109 855.441223,776.767944 842.790833,774.269470 
	C842.790833,770.872070 842.766296,767.393555 842.804871,763.915649 
	C842.817505,762.774292 842.994080,761.634888 843.117065,760.254700 
	C852.265991,760.254700 861.259094,759.919067 870.214539,760.355713 
	C878.084595,760.739502 881.431702,764.745972 881.675903,772.639587 
	C881.730103,774.392029 881.683838,776.147583 882.167847,778.243469 
	C891.120361,764.753357 903.315735,757.751831 919.368225,757.574463 
	C935.906982,757.391724 947.068726,765.254456 953.692139,780.730896 
	C955.717773,777.924561 957.267456,775.617371 958.976990,773.435425 
	C969.611267,759.862549 988.413940,753.979004 1004.847412,759.192810 
	C1018.183044,763.423645 1024.702271,773.604187 1027.937134,786.421631 
	C1028.748657,789.637146 1029.496948,792.979187 1029.514282,796.267090 
	C1029.644775,821.075745 1029.585449,845.885376 1029.585449,871.071899 
	C1020.458557,871.071899 1011.239197,871.071899 1001.348450,871.071899 
	C1001.348450,869.254578 1001.348511,867.491638 1001.348450,865.728638 
	C1001.348022,847.733337 1001.441650,829.737183 1001.284363,811.743225 
	C1001.242432,806.941833 1000.884888,802.049011 999.870544,797.372009 
	C998.276184,790.020081 994.688904,783.730713 986.530151,782.228577 
	C977.695862,780.602112 969.958496,782.975708 964.372437,790.428101 
	C958.712280,797.979309 957.212891,806.831360 957.138245,815.948975 
	C957.001770,832.610229 957.098145,849.273376 957.097473,865.935730 
	C957.097412,867.585815 957.097534,869.235901 957.097534,871.166443 
	C947.539429,871.166443 938.304260,871.166443 928.559448,871.166443 
	C928.559448,867.485535 928.559509,864.029236 928.559448,860.572876 
	C928.559448,845.243530 928.694458,829.912354 928.489807,814.585754 
	C928.412354,808.784119 927.976746,802.915405 926.938843,797.216675 
	C925.645691,790.116699 921.983276,784.219421 914.463318,782.437439 
	C906.339661,780.512329 898.825073,782.225830 893.011719,788.653320 
	C887.529663,794.714478 884.940796,802.148499 884.768982,810.149353 
	C884.404175,827.135803 884.496338,844.132080 884.383911,861.124146 
	C884.363037,864.284851 884.261108,867.444946 883.889404,870.911377 
z"/>
<path fill="#A7CE3A" opacity="1.000000" stroke="none" 
	d="
M1249.326416,721.716919 
	C1279.931030,727.287659 1301.364014,750.333801 1304.828613,780.933472 
	C1306.534912,796.003235 1306.223511,810.933716 1300.815918,825.270203 
	C1292.243530,847.996216 1275.854492,862.092712 1252.301025,867.876587 
	C1238.545288,871.254456 1188.581055,873.289734 1173.854248,871.048706 
	C1173.854248,820.608948 1173.854248,770.111145 1173.854248,719.070374 
	C1199.124878,719.851318 1224.106201,717.428284 1249.326416,721.716919 
M1203.916626,797.500000 
	C1203.916626,814.219482 1203.916626,830.938904 1203.916626,847.859558 
	C1211.552246,847.859558 1218.376099,848.183533 1225.159912,847.798950 
	C1245.782837,846.629639 1262.479736,838.770752 1270.314819,818.346802 
	C1276.298828,802.747803 1275.947266,786.661743 1270.479004,770.911377 
	C1267.147949,761.316772 1260.740967,753.930542 1251.812500,748.938904 
	C1236.811768,740.552673 1220.505371,741.793823 1203.916504,742.138489 
	C1203.916504,760.602234 1203.916504,778.551147 1203.916626,797.500000 
z"/>
<path fill="#06578C" opacity="1.000000" stroke="none" 
	d="
M424.432434,757.388306 
	C435.578949,731.322021 455.423737,717.831055 482.965179,716.364746 
	C492.949188,715.833191 503.356873,716.851562 513.081177,719.195679 
	C532.794067,723.947449 546.685608,736.717834 554.439453,755.267578 
	C564.964111,780.446289 565.201355,806.366455 555.847412,831.851868 
	C547.151733,855.544128 529.462585,869.408569 504.530853,873.359741 
	C487.962219,875.985596 471.530945,874.996399 456.141754,867.576660 
	C435.651459,857.697449 424.486267,840.510193 420.205383,818.786133 
	C416.145599,798.184143 416.889435,777.683777 424.432434,757.388306 
M526.693176,765.940430 
	C519.716309,749.716553 508.784454,738.774414 489.900970,738.678711 
	C473.359070,738.594849 460.110077,747.762695 453.583313,765.661499 
	C445.889130,786.761719 445.925568,808.235596 455.683655,828.807251 
	C462.178436,842.499390 472.977448,851.017761 488.918671,851.305237 
	C505.582184,851.605774 519.092529,842.579590 525.823914,825.786438 
	C533.623901,806.327332 533.381836,786.506836 526.693176,765.940430 
z"/>
<path fill="#05568C" opacity="1.000000" stroke="none" 
	d="
M612.310181,902.989441 
	C612.310059,907.804077 612.310059,912.121399 612.310059,916.804443 
	C602.849548,916.804443 593.646362,916.804443 583.809265,916.804443 
	C583.809265,915.096252 583.809265,913.333618 583.809326,911.570984 
	C583.809387,870.929749 583.809326,830.288574 583.809448,789.647339 
	C583.809509,776.897339 583.392456,776.397827 570.893555,774.340210 
	C570.893555,769.759216 570.893555,765.154541 570.893555,760.271484 
	C580.101807,760.271484 589.081177,759.901367 598.014526,760.383545 
	C605.757751,760.801514 609.157776,764.913269 609.528809,772.752014 
	C609.622620,774.734436 609.542847,776.725098 609.542847,779.993225 
	C611.022034,778.214905 611.881531,777.405090 612.476624,776.433472 
	C627.806396,751.400574 671.952087,748.947571 688.013916,779.611572 
	C701.122192,804.637024 700.903931,830.212158 685.604614,854.213928 
	C669.511658,879.460876 634.689270,880.998047 614.966187,858.216736 
	C614.456299,857.627747 614.345459,856.693359 614.048462,855.920166 
	C613.469116,856.246155 612.889709,856.572144 612.310364,856.898132 
	C612.310364,872.096130 612.310364,887.294067 612.310181,902.989441 
M635.568420,779.862976 
	C626.821411,781.284546 620.484497,786.163879 616.975037,794.108154 
	C610.283997,809.253906 610.290344,824.514343 618.158203,839.267639 
	C622.706055,847.795349 630.381226,851.692139 639.994873,851.628967 
	C649.663574,851.565369 657.105042,847.341675 661.489746,838.737183 
	C668.959045,824.079468 669.269836,808.916382 662.673584,793.951538 
	C657.614563,782.474304 648.946655,778.190674 635.568420,779.862976 
z"/>
<path fill="#07578C" opacity="1.000000" stroke="none" 
	d="
M1150.515747,854.573364 
	C1154.015869,855.726196 1157.188965,856.618469 1160.687500,857.602173 
	C1160.687500,861.707214 1160.687500,866.144775 1160.691650,870.586182 
	C1150.499390,870.590027 1140.272339,871.054871 1130.120483,870.383789 
	C1125.406372,870.072205 1123.116821,865.717590 1122.482300,861.026917 
	C1122.224365,859.121033 1122.089478,857.198486 1121.826172,854.555359 
	C1119.027588,857.563171 1116.816406,860.176636 1114.362793,862.538025 
	C1099.894531,876.462097 1075.609131,878.002991 1060.020264,866.943542 
	C1042.608032,854.590393 1040.489868,819.199341 1066.973999,808.384949 
	C1079.801270,803.147095 1093.302734,803.088501 1106.732666,802.272766 
	C1111.019287,802.012390 1115.335083,802.231995 1119.544312,802.231995 
	C1121.356079,789.820801 1115.402710,780.751770 1103.683838,777.961304 
	C1090.604126,774.846741 1078.262695,777.807922 1066.299927,783.139343 
	C1064.937500,783.746521 1063.586060,784.378967 1062.219971,784.978394 
	C1062.098145,785.031921 1061.906738,784.927612 1060.732300,784.698914 
	C1060.732300,778.879456 1060.655029,772.829529 1060.823120,766.786377 
	C1060.845947,765.964172 1061.940308,764.749756 1062.801147,764.434998 
	C1081.972778,757.425415 1101.495361,754.423096 1121.493286,760.502380 
	C1136.010620,764.915710 1143.584717,775.793945 1145.726685,790.070251 
	C1147.323242,800.710632 1147.271240,811.614441 1147.682495,822.411255 
	C1147.999268,830.728577 1147.741577,839.068176 1148.075562,847.384277 
	C1148.169312,849.718323 1149.451660,852.004578 1150.515747,854.573364 
M1113.761719,844.205139 
	C1119.747803,836.686218 1120.808228,828.018066 1119.860718,818.370300 
	C1107.752808,818.347839 1095.767822,817.559387 1084.550903,822.927307 
	C1077.868286,826.125305 1074.611816,831.974304 1075.203125,839.096558 
	C1075.776367,846.002136 1079.714600,851.085510 1086.867188,853.027344 
	C1097.308960,855.862305 1106.205444,852.998962 1113.761719,844.205139 
z"/>
<path fill="#A7CF3C" opacity="1.000000" stroke="none" 
	d="
M1618.645386,801.331665 
	C1618.757690,814.622803 1618.842529,827.447388 1618.943481,840.271790 
	C1619.051758,854.012878 1619.058350,854.012817 1631.822754,857.557434 
	C1631.822754,861.942261 1631.822754,866.390381 1631.822754,870.699158 
	C1621.600342,870.699158 1611.503906,871.136292 1601.474121,870.507629 
	C1596.732300,870.210449 1594.373901,865.959412 1593.617065,861.304993 
	C1593.304565,859.383057 1593.187500,857.429321 1592.897705,854.701721 
	C1590.230469,857.575012 1588.126953,860.052979 1585.805908,862.306946 
	C1571.260498,876.432068 1547.274780,878.551025 1531.569214,867.105957 
	C1520.436401,858.993225 1517.090942,847.602173 1518.386719,834.518250 
	C1519.659546,821.667175 1526.939453,813.180847 1538.586426,808.220581 
	C1551.150635,802.869690 1564.584106,802.984314 1577.856812,802.228577 
	C1582.133667,801.985046 1586.436279,802.190369 1590.612793,802.190369 
	C1592.495972,789.719299 1586.441162,780.687378 1574.567017,777.927551 
	C1561.648682,774.924866 1549.471558,777.900269 1537.644409,783.069397 
	C1536.277588,783.666748 1534.920044,784.285583 1533.551392,784.878906 
	C1533.415527,784.937744 1533.232178,784.886841 1531.962280,784.886841 
	C1531.962280,778.737427 1531.878906,772.543457 1532.070190,766.357971 
	C1532.093506,765.603333 1533.470093,764.565247 1534.424316,764.212891 
	C1551.938599,757.745789 1569.908569,754.845154 1588.327271,759.201416 
	C1606.002197,763.381897 1615.133911,774.563782 1617.798584,793.921387 
	C1618.116333,796.230103 1618.351562,798.550232 1618.645386,801.331665 
M1582.534912,818.264038 
	C1574.044067,819.582703 1565.320312,820.091309 1557.127441,822.446472 
	C1548.833862,824.830505 1545.193359,832.429810 1546.629150,840.546326 
	C1547.989014,848.232727 1554.061646,853.415222 1562.379028,853.987122 
	C1580.954346,855.264343 1595.675049,836.701233 1590.281006,818.261963 
	C1588.095703,818.261963 1585.790894,818.261963 1582.534912,818.264038 
z"/>
<path fill="#A7CE3B" opacity="1.000000" stroke="none" 
	d="
M1387.196411,860.179688 
	C1370.828125,878.418823 1343.430664,877.191772 1329.312012,866.083008 
	C1313.298584,853.483398 1311.697388,819.965088 1335.920044,809.040222 
	C1347.980713,803.600647 1360.763184,803.208618 1373.521240,802.364380 
	C1378.963623,802.004272 1384.449707,802.304260 1389.764282,802.304260 
	C1392.045532,790.272278 1385.600708,780.575928 1373.966187,777.924561 
	C1360.864502,774.938843 1348.542725,777.906494 1336.584961,783.219604 
	C1335.371216,783.758911 1334.184570,784.360474 1332.959717,784.871887 
	C1332.711060,784.975708 1332.347046,784.802856 1331.106323,784.622009 
	C1331.106323,778.839172 1331.000854,772.914978 1331.214478,767.002319 
	C1331.248413,766.062195 1332.544189,764.693726 1333.547852,764.332520 
	C1353.396973,757.189575 1373.524048,753.991333 1394.070068,761.248291 
	C1403.554199,764.598022 1410.490601,771.187561 1413.424683,780.766724 
	C1415.736206,788.313110 1417.329102,796.285156 1417.778076,804.151550 
	C1418.573975,818.098145 1418.002197,832.117310 1418.502319,846.088196 
	C1418.816040,854.857117 1419.718262,855.372131 1428.374268,856.753174 
	C1429.179199,856.881531 1429.990356,856.971313 1431.124268,857.122437 
	C1431.124268,861.808105 1431.124268,866.352661 1431.124268,870.904297 
	C1421.185547,870.904297 1411.421387,871.280457 1401.707031,870.747620 
	C1396.761719,870.476440 1393.876953,866.686768 1393.052124,861.717468 
	C1392.703369,859.615906 1392.523193,857.486267 1392.179443,854.652344 
	C1390.268433,856.777405 1388.855225,858.348816 1387.196411,860.179688 
M1369.647461,853.503662 
	C1383.852783,850.309387 1391.688721,836.734924 1390.713379,820.954834 
	C1390.656128,820.030029 1389.325195,818.427246 1388.567627,818.415833 
	C1377.112549,818.243164 1365.562500,817.746399 1354.859497,823.002441 
	C1348.139771,826.302368 1345.265991,831.828491 1345.789673,839.266785 
	C1346.253784,845.857117 1349.948608,850.930664 1357.034790,852.870361 
	C1360.760864,853.890320 1364.878174,853.481445 1369.647461,853.503662 
z"/>
<path fill="#08588D" opacity="1.000000" stroke="none" 
	d="
M746.734009,726.955933 
	C749.615234,726.009155 752.116455,725.165344 755.337524,724.078613 
	C755.337524,736.221741 755.337524,747.903137 755.337524,759.979492 
	C764.572327,759.979492 773.178894,759.979492 782.182251,759.979492 
	C782.182251,767.108459 782.182251,773.850708 782.182251,781.216614 
	C773.626526,781.216614 764.901794,781.216614 755.828918,781.216614 
	C755.725281,783.432617 755.585815,785.052734 755.583923,786.672974 
	C755.567505,800.501831 755.553528,814.330811 755.594910,828.159546 
	C755.603882,831.154663 755.691040,834.164124 755.994873,837.141174 
	C757.257507,849.513367 764.162781,854.769714 776.471680,852.787415 
	C778.431274,852.471924 780.357178,851.947144 783.614075,851.229126 
	C783.614075,857.589050 783.713440,863.647217 783.496948,869.694092 
	C783.467651,870.512268 781.960266,871.766602 780.955933,871.985046 
	C770.762695,874.201599 760.517212,874.753784 750.242981,872.416443 
	C736.189697,869.219177 730.073303,859.241577 728.084106,846.034119 
	C727.294067,840.788391 727.079346,835.421631 727.028015,830.105835 
	C726.889709,815.778381 726.980042,801.448853 726.979614,787.120117 
	C726.979553,785.334534 726.979614,783.548889 726.979614,781.356689 
	C719.435486,781.356689 712.480530,781.356689 705.275146,781.356689 
	C705.275146,774.208496 705.275146,767.468323 705.275146,760.239014 
	C712.806580,760.239014 720.215515,760.239014 728.167908,760.239014 
	C728.167908,752.320618 728.340820,744.874817 728.088135,737.443420 
	C727.977295,734.185730 729.066833,732.715637 732.166870,731.847900 
	C736.966675,730.504333 741.631775,728.679626 746.734009,726.955933 
z"/>
<path fill="#A7CE3B" opacity="1.000000" stroke="none" 
	d="
M1482.033813,825.954712 
	C1482.232300,830.266479 1482.169556,834.121338 1482.677368,837.899536 
	C1484.313965,850.075317 1491.125244,854.916626 1503.262695,852.737976 
	C1505.202759,852.389709 1507.113037,851.874573 1510.028198,851.210876 
	C1510.028198,857.582214 1510.127686,863.503052 1509.921997,869.413208 
	C1509.890991,870.306946 1508.560303,871.738281 1507.627197,871.929993 
	C1494.897583,874.545532 1482.123535,875.628235 1469.905884,869.951294 
	C1458.510254,864.656311 1454.762329,854.151672 1454.224243,842.832458 
	C1453.354858,824.546753 1453.591797,806.208313 1453.367920,787.892090 
	C1453.344238,785.952209 1453.364746,784.011780 1453.364746,781.470703 
	C1445.773071,781.470703 1438.865479,781.470703 1431.666748,781.470703 
	C1431.666748,774.138489 1431.666748,767.413757 1431.666748,760.207764 
	C1439.176392,760.207764 1446.434204,760.207764 1454.545166,760.207764 
	C1454.545166,752.850525 1454.821655,745.927734 1454.446045,739.040588 
	C1454.203857,734.600159 1455.738281,732.469482 1459.997437,731.262939 
	C1467.166626,729.231934 1474.180420,726.653076 1481.905273,724.090454 
	C1481.905273,736.229736 1481.905273,747.794067 1481.905273,759.882080 
	C1490.983398,759.882080 1499.559082,759.882080 1508.575928,759.882080 
	C1508.575928,767.108521 1508.575928,773.825989 1508.575928,781.339172 
	C1500.018188,781.339172 1491.320312,781.339172 1482.033813,781.339172 
	C1482.033813,796.567810 1482.033813,811.015198 1482.033813,825.954712 
z"/>
<path fill="#05568C" opacity="1.000000" stroke="none" 
	d="
M814.643677,760.159058 
	C824.971802,761.226257 828.381042,764.382019 828.410278,773.407715 
	C828.513855,805.359009 828.448730,837.310730 828.436218,869.262329 
	C828.436035,869.745728 828.289978,870.229126 828.153442,871.075928 
	C818.960693,871.075928 809.753296,871.075928 800.031494,871.075928 
	C800.031494,869.181091 800.031433,867.400146 800.031433,865.619202 
	C800.031494,840.157715 800.031738,814.696167 800.031555,789.234680 
	C800.031494,776.718323 799.646790,776.264160 787.166992,774.335022 
	C787.166992,769.824402 787.166992,765.267334 787.166992,760.155334 
	C796.308105,760.155334 805.247375,760.155334 814.643677,760.159058 
z"/>
<path fill="#0DAFC3" opacity="1.000000" stroke="none" 
	d="
M1136.633057,946.718445 
	C1136.557617,948.479370 1136.481689,949.777466 1136.388916,951.363159 
	C1133.718506,951.363159 1131.302368,951.363159 1128.454346,951.363159 
	C1128.454346,936.500244 1128.454346,921.651855 1128.454346,906.676758 
	C1132.496216,905.146301 1135.102295,906.413513 1137.502808,910.060425 
	C1142.602417,917.808167 1148.169556,925.248108 1154.024048,933.488586 
	C1154.024048,924.280884 1154.024048,915.685242 1154.024048,906.751160 
	C1157.103760,906.751160 1159.661255,906.751160 1162.519775,906.751160 
	C1162.519775,921.795105 1162.519775,936.667480 1162.519775,951.440857 
	C1158.140991,952.992859 1155.527466,951.454407 1153.174194,947.899292 
	C1148.229004,940.428284 1142.875000,933.227905 1136.632690,925.918335 
	C1136.632690,932.697449 1136.632690,939.476501 1136.633057,946.718445 
z"/>
<path fill="#0AAEC2" opacity="1.000000" stroke="none" 
	d="
M1434.091064,929.012695 
	C1442.145386,935.158630 1441.261841,945.559998 1432.576416,949.898499 
	C1425.316284,953.525085 1417.583740,952.258362 1409.982422,951.586975 
	C1409.138184,951.512390 1407.810913,949.592224 1407.799316,948.516052 
	C1407.650269,934.859131 1407.701172,921.200012 1407.701172,906.931580 
	C1416.042847,905.740967 1424.227539,904.668884 1432.253418,907.716492 
	C1435.931152,909.112976 1437.955811,912.137878 1438.106323,916.260437 
	C1438.294678,921.425293 1436.844604,923.919312 1431.126465,927.619446 
	C1432.101440,928.082703 1432.933105,928.477905 1434.091064,929.012695 
M1417.002808,932.330811 
	C1416.779907,935.736328 1416.424072,939.142639 1416.442871,942.546814 
	C1416.446777,943.256775 1417.829102,944.549072 1418.587891,944.557678 
	C1421.191040,944.587097 1424.129761,944.817322 1426.304077,943.715271 
	C1428.136841,942.786255 1430.136841,940.100891 1430.120728,938.209412 
	C1430.105347,936.392639 1427.943848,933.792175 1426.094971,932.991577 
	C1423.670166,931.941467 1420.627319,932.317932 1417.002808,932.330811 
M1416.301758,922.895508 
	C1416.716919,923.696655 1417.300171,925.238403 1417.521851,925.187927 
	C1420.929810,924.414062 1424.516113,923.861755 1427.542114,922.271240 
	C1428.625122,921.701904 1429.237305,917.296021 1428.492310,916.737122 
	C1426.188965,915.009277 1423.205811,913.979065 1420.340088,913.270020 
	C1417.581909,912.587463 1415.939697,913.913696 1416.266602,917.083679 
	C1416.435425,918.721558 1416.296509,920.391235 1416.301758,922.895508 
z"/>
<path fill="#0CAEC3" opacity="1.000000" stroke="none" 
	d="
M1242.375854,945.340820 
	C1233.662842,954.363464 1223.085083,952.245544 1212.511230,951.730713 
	C1212.369995,950.534241 1212.195435,949.740417 1212.194458,948.946350 
	C1212.177856,935.001892 1212.182495,921.057434 1212.182495,906.262085 
	C1220.484741,906.109314 1228.774048,904.072998 1236.264282,907.974182 
	C1240.070923,909.956848 1243.898315,913.748962 1245.554565,917.642517 
	C1249.531250,926.991211 1248.751709,936.479919 1242.375854,945.340820 
M1221.128174,933.471558 
	C1221.128174,936.909912 1221.128174,940.348267 1221.128174,943.806335 
	C1227.367676,944.711548 1232.524902,944.457214 1235.922729,939.078796 
	C1239.275635,933.771484 1239.078491,922.728882 1235.488159,918.077026 
	C1231.798462,913.296448 1226.791016,913.414185 1221.128296,914.355103 
	C1221.128296,920.556274 1221.128296,926.517517 1221.128174,933.471558 
z"/>
<path fill="#0DAFC3" opacity="1.000000" stroke="none" 
	d="
M845.363037,925.001587 
	C845.362488,920.009216 845.579163,915.502380 845.291504,911.027954 
	C845.064819,907.503235 846.484863,906.203552 849.803528,906.243774 
	C854.447510,906.300110 859.136841,905.834717 863.727295,906.329407 
	C870.316833,907.039612 874.118286,910.510498 875.182983,915.751953 
	C876.430786,921.894226 874.203308,927.440735 869.057312,930.969421 
	C868.379883,931.434021 867.665222,931.844360 867.401062,932.009338 
	C871.309875,938.276733 875.141235,944.419861 879.009094,950.621643 
	C871.845642,953.174866 869.445129,952.328491 866.004883,946.304688 
	C864.107727,942.982727 862.362427,939.546265 860.153748,936.442444 
	C859.124329,934.995728 857.156372,934.216797 854.424072,932.300964 
	C854.424072,939.744385 854.424072,945.480469 854.424072,951.440552 
	C851.243286,951.440552 848.652100,951.440552 845.362854,951.440552 
	C845.362854,942.683167 845.362854,934.092102 845.363037,925.001587 
M854.804871,926.698364 
	C859.031128,927.309753 863.468201,927.631653 865.371582,922.893250 
	C866.141968,920.975647 865.760498,917.012207 864.477783,916.181763 
	C861.786621,914.439758 858.151245,914.156372 854.328491,913.117981 
	C854.328491,918.417297 854.328491,922.181763 854.804871,926.698364 
z"/>
<path fill="#07578C" opacity="1.000000" stroke="none" 
	d="
M828.695801,713.245728 
	C837.324951,722.841980 833.609253,734.895386 821.299011,737.105469 
	C816.376709,737.989197 811.016785,737.743835 806.065674,736.850647 
	C798.737854,735.528564 795.361755,730.625854 795.468872,723.357849 
	C795.572083,716.355957 799.024475,711.875061 806.232300,710.487366 
	C813.801636,709.030090 821.421204,708.660217 828.695801,713.245728 
z"/>
<path fill="#0DAFC3" opacity="1.000000" stroke="none" 
	d="
M649.307922,939.974365 
	C649.308044,928.689697 649.308044,917.899597 649.308044,906.756226 
	C658.274231,906.756226 666.854431,906.756226 675.824036,906.756226 
	C675.824036,909.032410 675.824036,911.424072 675.824036,914.541016 
	C670.164673,914.541016 664.454773,914.541016 658.893677,914.541016 
	C657.305115,924.731812 657.305115,924.731812 666.638306,924.730835 
	C669.104492,924.730591 671.570740,924.730774 674.371582,924.730774 
	C674.371582,927.539185 674.371582,929.913391 674.371582,932.804810 
	C669.066528,932.804810 663.977966,932.804810 658.599243,932.804810 
	C658.599243,936.392761 658.599243,939.481689 658.599243,943.195923 
	C664.265015,943.195923 669.989563,943.195923 676.116821,943.195923 
	C676.116821,946.181580 676.116821,948.560425 676.116821,951.314087 
	C667.441895,951.314087 658.732849,951.314087 649.307800,951.314087 
	C649.307800,947.664673 649.307800,944.066895 649.307922,939.974365 
z"/>
<path fill="#0DAFC3" opacity="1.000000" stroke="none" 
	d="
M1557.242920,936.993713 
	C1557.243042,926.693176 1557.243042,916.891541 1557.243042,906.746216 
	C1566.219727,906.746216 1574.809326,906.746216 1583.817383,906.746216 
	C1583.817383,909.052612 1583.817383,911.431702 1583.817383,914.411865 
	C1578.277222,914.411865 1572.703613,914.411865 1567.307495,914.411865 
	C1566.851318,915.393372 1566.506836,915.813782 1566.470947,916.258972 
	C1565.789673,924.730469 1565.797363,924.731079 1574.315674,924.730774 
	C1576.934326,924.730713 1579.552856,924.730774 1582.393677,924.730774 
	C1582.393677,927.596313 1582.393677,929.867493 1582.393677,932.718567 
	C1577.150269,932.718567 1572.079224,932.718567 1567.350830,932.718567 
	C1566.845947,933.554382 1566.563599,933.811218 1566.541992,934.088501 
	C1565.800781,943.566162 1565.804199,943.566406 1575.291626,943.566040 
	C1578.108276,943.565918 1580.924805,943.565979 1584.142944,943.565979 
	C1584.142944,946.203125 1584.142944,948.581726 1584.142944,951.676147 
	C1579.723999,951.676147 1575.294922,951.676147 1570.865845,951.676147 
	C1566.563721,951.676147 1562.261597,951.676147 1557.242920,951.676147 
	C1557.242920,946.680115 1557.242920,942.086365 1557.242920,936.993713 
z"/>
<path fill="#0CAEC3" opacity="1.000000" stroke="none" 
	d="
M705.374939,926.838989 
	C701.569458,920.154053 697.968689,913.779419 694.351257,907.375183 
	C701.969299,904.804626 704.325195,905.713501 707.848267,912.432190 
	C709.447510,915.482178 711.066040,918.522095 712.979614,922.141235 
	C715.083313,918.358093 716.870911,915.086365 718.711731,911.844910 
	C722.311768,905.505981 722.620056,905.393616 731.043579,907.153870 
	C727.505310,913.090393 724.208313,919.006897 720.508667,924.659790 
	C718.771790,927.313660 718.956970,929.248291 720.566345,931.831177 
	C724.421631,938.018677 727.952515,944.408325 731.658875,950.792908 
	C723.455750,953.005859 721.929810,952.436707 718.206116,945.892517 
	C716.162598,942.301086 714.168091,938.681702 711.908752,934.640747 
	C709.868286,938.277344 708.012390,941.663513 706.083130,945.007324 
	C702.020203,952.048950 702.004395,952.039795 692.659912,951.368164 
	C695.652222,946.414001 698.581665,941.908997 701.142944,937.203552 
	C702.888367,933.997192 704.118896,930.510498 705.374939,926.838989 
z"/>
<path fill="#0CAEC3" opacity="1.000000" stroke="none" 
	d="
M1030.310913,916.929688 
	C1030.329956,925.596313 1029.530762,924.662659 1037.425903,924.731567 
	C1040.233887,924.756104 1043.042114,924.735474 1046.259033,924.735474 
	C1046.259033,927.434143 1046.259033,929.801758 1046.259033,932.717896 
	C1041.147339,932.717896 1036.067139,932.717896 1030.640625,932.717896 
	C1030.640625,936.446899 1030.640625,939.644897 1030.640625,943.480225 
	C1036.526489,943.480225 1042.256714,943.480225 1048.244385,943.480225 
	C1048.244385,946.372375 1048.244385,948.635620 1048.244385,951.287964 
	C1039.485596,951.287964 1030.763794,951.287964 1021.617432,951.287964 
	C1021.617432,936.643433 1021.617432,921.932129 1021.617432,906.809814 
	C1030.168213,906.809814 1038.875122,906.809814 1047.916748,906.809814 
	C1047.916748,909.107422 1047.916748,911.368530 1047.916748,914.481079 
	C1043.619385,914.481079 1039.197021,914.319397 1034.798096,914.569580 
	C1033.280884,914.655823 1031.822021,915.767578 1030.310913,916.929688 
z"/>
<path fill="#0AAEC2" opacity="1.000000" stroke="none" 
	d="
M811.017090,951.663208 
	C806.892456,951.663025 803.261902,951.663025 799.337708,951.663025 
	C799.337708,936.462219 799.337708,921.740356 799.337708,906.714966 
	C808.014648,906.714966 816.592651,906.714966 825.499146,906.714966 
	C825.499146,909.117493 825.499146,911.365295 825.499146,914.287476 
	C819.892883,914.287476 814.194580,914.287476 808.234192,914.287476 
	C808.234192,918.040222 808.234192,921.125671 808.234192,924.685547 
	C813.506775,924.685547 818.592041,924.685547 823.980896,924.685547 
	C823.980896,927.544128 823.980896,929.935242 823.980896,932.791382 
	C818.690674,932.791382 813.603088,932.791382 808.243286,932.791382 
	C808.243286,936.484070 808.243286,939.721130 808.243286,943.500671 
	C814.144592,943.500671 819.888245,943.500671 825.837524,943.500671 
	C825.837524,946.324219 825.837524,948.609680 825.837524,951.663391 
	C821.022400,951.663391 816.266785,951.663391 811.017090,951.663208 
z"/>
<path fill="#0DAFC3" opacity="1.000000" stroke="none" 
	d="
M773.066040,934.241943 
	C768.213867,935.284241 763.699463,936.157898 758.581909,937.148254 
	C758.581909,941.373657 758.581909,946.120178 758.581909,951.270020 
	C755.377441,951.270020 752.682129,951.270020 749.309998,951.270020 
	C749.309998,945.139526 749.310242,939.048462 749.309937,932.957397 
	C749.309631,925.645020 749.484680,918.326538 749.231934,911.022888 
	C749.111084,907.531433 750.397766,906.200745 753.725708,906.221863 
	C758.035889,906.249268 762.377441,905.781433 766.650940,906.153503 
	C774.355408,906.824341 778.707520,910.337158 780.319519,916.453491 
	C782.202209,923.597046 779.862793,929.557556 773.066040,934.241943 
M758.195557,922.337036 
	C758.886780,924.441589 759.578003,926.546143 760.269226,928.650635 
	C763.578674,927.525391 767.584167,927.157654 769.939392,924.993835 
	C771.376465,923.673523 771.318054,918.984802 770.095154,916.871582 
	C767.533752,912.445435 762.897156,913.241638 758.195923,914.294250 
	C758.195923,916.806763 758.195923,919.110352 758.195557,922.337036 
z"/>
<path fill="#0DAFC3" opacity="1.000000" stroke="none" 
	d="
M1461.892822,931.667603 
	C1464.565063,924.097168 1467.215820,916.932251 1469.626343,909.687500 
	C1470.484985,907.106689 1471.819458,905.301270 1474.535645,906.236267 
	C1476.197266,906.808228 1478.197021,908.279846 1478.775146,909.823059 
	C1483.885132,923.461975 1488.710205,937.207642 1493.644165,950.990662 
	C1484.944946,952.679871 1484.579956,952.647034 1482.303711,945.608521 
	C1481.298828,942.501404 1479.750732,941.298096 1476.588135,941.674072 
	C1474.786255,941.888306 1472.919800,941.876587 1471.114746,941.675720 
	C1468.142090,941.344971 1466.737549,942.517212 1465.773804,945.400330 
	C1463.430786,952.409851 1463.262451,952.353577 1454.881714,951.145508 
	C1457.204224,944.710510 1459.490479,938.376038 1461.892822,931.667603 
M1474.435181,919.543945 
	C1472.799316,924.313232 1471.163452,929.082458 1469.454346,934.064941 
	C1472.910034,934.064941 1475.559448,934.064941 1478.421753,934.064941 
	C1477.126343,929.087830 1475.967041,924.633179 1474.435181,919.543945 
z"/>
<path fill="#0CAEC3" opacity="1.000000" stroke="none" 
	d="
M1292.509033,930.255737 
	C1294.998169,937.206848 1297.334106,943.796753 1299.656616,950.391235 
	C1299.700317,950.515320 1299.584473,950.695557 1299.542969,950.849609 
	C1292.154785,952.946472 1291.200195,952.592285 1288.692017,945.718628 
	C1287.645020,942.849365 1286.260986,941.204163 1282.956299,941.664185 
	C1281.157959,941.914551 1279.279175,941.869263 1277.467163,941.673523 
	C1274.514771,941.354675 1273.023438,942.420349 1272.077271,945.371582 
	C1269.824097,952.399597 1269.655518,952.345581 1261.231201,951.144592 
	C1263.231079,945.461670 1265.177734,939.867920 1267.168091,934.289673 
	C1270.077759,926.134399 1273.105103,918.019714 1275.895264,909.823975 
	C1276.751343,907.309265 1277.878784,905.297607 1280.708984,906.231873 
	C1282.396362,906.788818 1284.453613,908.166321 1285.070312,909.690552 
	C1287.753540,916.322021 1289.968994,923.142822 1292.509033,930.255737 
M1280.469727,934.565063 
	C1281.878296,934.455200 1283.286865,934.345337 1284.931030,934.217102 
	C1283.378296,928.807312 1281.950928,923.834351 1280.406494,918.453796 
	C1278.867065,923.857849 1277.439087,928.870422 1275.919800,934.203125 
	C1277.436523,934.349976 1278.541626,934.457031 1280.469727,934.565063 
z"/>
<path fill="#0AAEC2" opacity="1.000000" stroke="none" 
	d="
M1520.231934,952.512146 
	C1516.112549,951.778564 1512.427856,951.058960 1508.159424,950.225342 
	C1509.266357,947.193481 1510.093140,944.928589 1510.769409,943.076172 
	C1515.472534,943.562744 1519.740234,944.474121 1523.940796,944.229797 
	C1525.883789,944.116821 1528.906006,941.985291 1529.226562,940.338257 
	C1529.547607,938.689636 1527.510254,935.965393 1525.785278,934.682312 
	C1523.302979,932.835999 1520.120361,931.958923 1517.321533,930.504639 
	C1510.874390,927.154541 1508.263794,921.941223 1509.600098,915.360840 
	C1510.774780,909.576050 1515.251099,905.891541 1522.453857,905.789856 
	C1527.433105,905.719604 1532.426514,906.654419 1538.177490,907.214600 
	C1536.816650,910.700623 1535.991211,912.815186 1535.114258,915.061462 
	C1531.681274,914.454956 1528.432373,913.326965 1525.257202,913.506592 
	C1522.984619,913.635193 1520.811157,915.515930 1518.593506,916.614868 
	C1519.906494,918.657715 1520.837158,921.174988 1522.631470,922.620361 
	C1524.768555,924.342041 1527.691895,925.057190 1530.194946,926.361328 
	C1537.145508,929.982849 1539.771973,934.922791 1538.467651,941.693909 
	C1537.284668,947.835388 1532.704834,951.530334 1525.146240,952.362549 
	C1523.664917,952.525635 1522.160400,952.477051 1520.231934,952.512146 
z"/>
<path fill="#0CAEC3" opacity="1.000000" stroke="none" 
	d="
M1368.260376,906.946045 
	C1372.843750,905.130554 1375.310303,906.182617 1376.899414,911.036072 
	C1381.278687,924.410645 1386.250244,937.591248 1391.001831,950.888977 
	C1382.726562,952.806763 1382.195801,952.640137 1379.553955,945.224792 
	C1378.624634,942.616394 1377.379028,941.375122 1374.549194,941.669800 
	C1372.576294,941.875183 1370.548096,941.871826 1368.574219,941.670349 
	C1365.640747,941.371033 1364.108887,942.427490 1363.134644,945.330994 
	C1360.811157,952.255310 1360.660034,952.204590 1352.215942,951.206177 
	C1357.524170,936.469543 1362.782227,921.872192 1368.260376,906.946045 
M1372.779541,922.821899 
	C1372.384644,921.522217 1371.989746,920.222473 1371.447754,918.438660 
	C1369.901123,924.020569 1368.512939,929.030579 1367.059570,934.275635 
	C1370.181274,934.275635 1372.894653,934.275635 1376.067749,934.275635 
	C1374.941040,930.450989 1373.928589,927.014404 1372.779541,922.821899 
z"/>
<path fill="#0AAEC2" opacity="1.000000" stroke="none" 
	d="
M974.912231,924.874268 
	C970.794312,914.131958 975.573303,906.222046 986.492920,905.787048 
	C991.350708,905.593506 996.254822,906.564819 1002.151001,907.099243 
	C1000.859741,910.528992 1000.018433,912.763550 999.168701,915.020630 
	C995.487976,914.421265 992.066162,913.351013 988.700256,913.504761 
	C986.617188,913.599854 984.619080,915.555664 982.582825,916.676147 
	C983.775024,918.627686 984.551880,921.141052 986.255554,922.400696 
	C988.883118,924.343140 992.225525,925.283875 995.122070,926.904419 
	C1001.301147,930.361694 1003.567383,934.941223 1002.504028,941.303040 
	C1001.498108,947.321838 997.452515,951.522339 990.490784,952.025940 
	C984.681091,952.446289 978.773254,951.511353 971.875366,951.117676 
	C973.194153,947.362183 973.989929,945.096191 974.729553,942.989990 
	C979.270691,943.508179 983.506348,944.457153 987.689941,944.266052 
	C989.684387,944.175049 993.080322,942.004456 993.161743,940.618530 
	C993.278381,938.630615 991.388428,935.905334 989.569580,934.545044 
	C984.984192,931.115601 979.959473,928.273499 974.912231,924.874268 
z"/>
<path fill="#0AAEC2" opacity="1.000000" stroke="none" 
	d="
M1616.189087,922.908936 
	C1619.650635,924.645691 1622.858887,926.057739 1625.865356,927.815247 
	C1631.102051,930.876282 1632.817017,935.653076 1631.829346,941.479187 
	C1630.846558,947.275940 1627.076172,950.553345 1621.617920,951.806702 
	C1614.971802,953.332703 1608.456299,952.683533 1601.698853,949.591064 
	C1602.610474,947.161499 1603.453979,944.913330 1604.137207,943.092346 
	C1608.848389,943.573792 1613.114624,944.480591 1617.311890,944.230408 
	C1619.268799,944.113770 1622.302002,941.998352 1622.633667,940.344910 
	C1622.961060,938.712280 1620.904663,935.945496 1619.161865,934.703247 
	C1616.359253,932.705200 1612.863647,931.713562 1609.823364,930.007263 
	C1603.925781,926.697388 1601.696899,921.724487 1602.962402,915.341125 
	C1604.049561,909.857117 1608.189819,906.147827 1614.867676,905.885986 
	C1620.058228,905.682373 1625.290527,906.541382 1631.356689,906.991333 
	C1630.130859,910.529785 1629.349609,912.784851 1628.514038,915.196777 
	C1625.225098,914.545898 1622.141113,913.339722 1619.145264,913.528687 
	C1616.687378,913.683716 1614.334106,915.498230 1611.934570,916.577209 
	C1613.238037,918.631409 1614.541504,920.685547 1616.189087,922.908936 
z"/>
<path fill="#0AAEC2" opacity="1.000000" stroke="none" 
	d="
M1319.041626,906.415344 
	C1327.464966,906.415527 1335.395020,906.415527 1343.535156,906.415527 
	C1343.535156,909.305542 1343.535156,911.574646 1343.535156,914.298767 
	C1339.471680,914.298767 1335.538208,914.298767 1331.031494,914.298767 
	C1331.031494,926.763916 1331.031494,938.796631 1331.031494,951.244629 
	C1327.754395,951.244629 1325.040161,951.244629 1321.731934,951.244629 
	C1321.731934,939.242859 1321.731934,927.199646 1321.731934,914.729980 
	C1317.232788,914.729980 1313.303955,914.729980 1308.931641,914.729980 
	C1308.931641,911.931641 1308.931641,909.564026 1308.931641,906.415161 
	C1312.043945,906.415161 1315.296143,906.415161 1319.041626,906.415344 
z"/>
<path fill="#0AAEC2" opacity="1.000000" stroke="none" 
	d="
M912.830444,938.983765 
	C912.830383,943.282288 912.830383,947.084045 912.830383,951.274414 
	C909.782410,951.274414 907.071228,951.274414 903.905212,951.274414 
	C903.905212,939.255737 903.905212,927.339966 903.905212,914.772217 
	C899.432373,914.772217 895.386902,914.772217 890.973267,914.772217 
	C890.973267,911.751709 890.973267,909.382019 890.973267,906.709351 
	C902.508240,906.709351 913.891541,906.709351 925.615234,906.709351 
	C925.615234,909.210266 925.615234,911.586304 925.615234,914.386597 
	C921.534302,914.386597 917.588745,914.386597 912.830505,914.386597 
	C912.830505,922.681274 912.830505,930.584167 912.830444,938.983765 
z"/>
<path fill="#0CAEC3" opacity="1.000000" stroke="none" 
	d="
M1097.884033,928.000061 
	C1097.884033,920.697021 1097.884033,913.893982 1097.884033,906.748718 
	C1100.896362,906.748718 1103.607544,906.748718 1106.535889,906.748718 
	C1106.535889,921.706543 1106.535889,936.401062 1106.535889,951.384888 
	C1103.689087,951.384888 1101.114502,951.384888 1097.884033,951.384888 
	C1097.884033,943.662781 1097.884033,936.081421 1097.884033,928.000061 
z"/>
<path fill="#0AAEC2" opacity="1.000000" stroke="none" 
	d="
M953.032593,920.009216 
	C953.032654,930.639465 953.032654,940.772034 953.032654,951.284241 
	C950.075195,951.284241 947.374023,951.284241 944.379883,951.284241 
	C944.379883,936.409058 944.379883,921.712524 944.379883,906.713745 
	C947.159973,906.713745 949.744263,906.713745 953.032593,906.713745 
	C953.032593,911.014709 953.032593,915.263123 953.032593,920.009216 
z"/>
<path fill="#FDFEFD" opacity="1.000000" stroke="none" 
	d="
M1005.569946,542.439697 
	C996.803406,567.166321 983.483521,588.643982 965.161194,607.976807 
	C923.613403,576.339233 903.093506,533.890198 901.953552,482.221344 
	C900.740173,427.227264 920.887329,381.736084 965.131531,347.625610 
	C990.508667,374.296631 1006.208801,405.183167 1012.892761,440.597107 
	C1019.388428,475.013428 1017.045349,508.880066 1005.569946,542.439697 
M970.164490,517.172485 
	C968.816162,505.447357 966.638550,493.747009 966.287354,481.992096 
	C965.487610,455.219604 970.384460,429.332001 980.754272,404.548828 
	C981.235229,403.399353 981.836060,401.748901 981.376038,400.841156 
	C976.102295,390.435181 970.633545,380.128052 964.945129,369.276489 
	C918.401489,432.971710 921.543152,528.598755 964.937378,586.133423 
	C970.239746,576.186218 975.501099,566.579712 980.431824,556.806396 
	C981.255249,555.174377 981.157288,552.663757 980.607910,550.820618 
	C977.333923,539.836487 973.802246,528.929199 970.164490,517.172485 
z"/>
<path fill="#FCFEFE" opacity="1.000000" stroke="none" 
	d="
M1146.117676,449.911743 
	C1156.767212,518.077087 1127.363892,578.705566 1084.130249,607.823975 
	C1081.774292,604.506042 1079.406860,601.171997 1077.080444,597.895752 
	C1132.519653,532.126648 1133.156372,424.692413 1077.102539,357.775116 
	C1079.398315,354.504242 1081.750366,351.153015 1084.334351,347.471375 
	C1119.270142,373.273193 1138.736938,407.690155 1146.117676,449.911743 
z"/>
<path fill="#FFFFFE" opacity="1.000000" stroke="none" 
	d="
M1203.916504,797.000000 
	C1203.916504,778.551147 1203.916504,760.602234 1203.916504,742.138489 
	C1220.505371,741.793823 1236.811768,740.552673 1251.812500,748.938904 
	C1260.740967,753.930542 1267.147949,761.316772 1270.479004,770.911377 
	C1275.947266,786.661743 1276.298828,802.747803 1270.314819,818.346802 
	C1262.479736,838.770752 1245.782837,846.629639 1225.159912,847.798950 
	C1218.376099,848.183533 1211.552246,847.859558 1203.916626,847.859558 
	C1203.916626,830.938904 1203.916626,814.219482 1203.916504,797.000000 
z"/>
<path fill="#FDFEFE" opacity="1.000000" stroke="none" 
	d="
M526.828552,766.304810 
	C533.381836,786.506836 533.623901,806.327332 525.823914,825.786438 
	C519.092529,842.579590 505.582184,851.605774 488.918671,851.305237 
	C472.977448,851.017761 462.178436,842.499390 455.683655,828.807251 
	C445.925568,808.235596 445.889130,786.761719 453.583313,765.661499 
	C460.110077,747.762695 473.359070,738.594849 489.900970,738.678711 
	C508.784454,738.774414 519.716309,749.716553 526.828552,766.304810 
z"/>
<path fill="#FCFDFE" opacity="1.000000" stroke="none" 
	d="
M635.981934,779.815796 
	C648.946655,778.190674 657.614563,782.474304 662.673584,793.951538 
	C669.269836,808.916382 668.959045,824.079468 661.489746,838.737183 
	C657.105042,847.341675 649.663574,851.565369 639.994873,851.628967 
	C630.381226,851.692139 622.706055,847.795349 618.158203,839.267639 
	C610.290344,824.514343 610.283997,809.253906 616.975037,794.108154 
	C620.484497,786.163879 626.821411,781.284546 635.981934,779.815796 
z"/>
<path fill="#FAFCFD" opacity="1.000000" stroke="none" 
	d="
M1113.531128,844.480835 
	C1106.205444,852.998962 1097.308960,855.862305 1086.867188,853.027344 
	C1079.714600,851.085510 1075.776367,846.002136 1075.203125,839.096558 
	C1074.611816,831.974304 1077.868286,826.125305 1084.550903,822.927307 
	C1095.767822,817.559387 1107.752808,818.347839 1119.860718,818.370300 
	C1120.808228,828.018066 1119.747803,836.686218 1113.531128,844.480835 
z"/>
<path fill="#FDFEFB" opacity="1.000000" stroke="none" 
	d="
M1583.010498,818.263000 
	C1585.790894,818.261963 1588.095703,818.261963 1590.281006,818.261963 
	C1595.675049,836.701233 1580.954346,855.264343 1562.379028,853.987122 
	C1554.061646,853.415222 1547.989014,848.232727 1546.629150,840.546326 
	C1545.193359,832.429810 1548.833862,824.830505 1557.127441,822.446472 
	C1565.320312,820.091309 1574.044067,819.582703 1583.010498,818.263000 
z"/>
<path fill="#FDFEFB" opacity="1.000000" stroke="none" 
	d="
M1369.233154,853.610718 
	C1364.878174,853.481445 1360.760864,853.890320 1357.034790,852.870361 
	C1349.948608,850.930664 1346.253784,845.857117 1345.789673,839.266785 
	C1345.265991,831.828491 1348.139771,826.302368 1354.859497,823.002441 
	C1365.562500,817.746399 1377.112549,818.243164 1388.567627,818.415833 
	C1389.325195,818.427246 1390.656128,820.030029 1390.713379,820.954834 
	C1391.688721,836.734924 1383.852783,850.309387 1369.233154,853.610718 
z"/>
<path fill="#EDF9FB" opacity="1.000000" stroke="none" 
	d="
M1417.426514,932.205811 
	C1420.627319,932.317932 1423.670166,931.941467 1426.094971,932.991577 
	C1427.943848,933.792175 1430.105347,936.392639 1430.120728,938.209412 
	C1430.136841,940.100891 1428.136841,942.786255 1426.304077,943.715271 
	C1424.129761,944.817322 1421.191040,944.587097 1418.587891,944.557678 
	C1417.829102,944.549072 1416.446777,943.256775 1416.442871,942.546814 
	C1416.424072,939.142639 1416.779907,935.736328 1417.426514,932.205811 
z"/>
<path fill="#EDF9FB" opacity="1.000000" stroke="none" 
	d="
M1416.299072,922.471008 
	C1416.296509,920.391235 1416.435425,918.721558 1416.266602,917.083679 
	C1415.939697,913.913696 1417.581909,912.587463 1420.340088,913.270020 
	C1423.205811,913.979065 1426.188965,915.009277 1428.492310,916.737122 
	C1429.237305,917.296021 1428.625122,921.701904 1427.542114,922.271240 
	C1424.516113,923.861755 1420.929810,924.414062 1417.521851,925.187927 
	C1417.300171,925.238403 1416.716919,923.696655 1416.299072,922.471008 
z"/>
<path fill="#FAFCFD" opacity="1.000000" stroke="none" 
	d="
M1221.128174,932.975159 
	C1221.128296,926.517517 1221.128296,920.556274 1221.128296,914.355103 
	C1226.791016,913.414185 1231.798462,913.296448 1235.488159,918.077026 
	C1239.078491,922.728882 1239.275635,933.771484 1235.922729,939.078796 
	C1232.524902,944.457214 1227.367676,944.711548 1221.128174,943.806335 
	C1221.128174,940.348267 1221.128174,936.909912 1221.128174,932.975159 
z"/>
<path fill="#EDF9FB" opacity="1.000000" stroke="none" 
	d="
M854.566650,926.322266 
	C854.328491,922.181763 854.328491,918.417297 854.328491,913.117981 
	C858.151245,914.156372 861.786621,914.439758 864.477783,916.181763 
	C865.760498,917.012207 866.141968,920.975647 865.371582,922.893250 
	C863.468201,927.631653 859.031128,927.309753 854.566650,926.322266 
z"/>
<path fill="#EDF9FB" opacity="1.000000" stroke="none" 
	d="
M758.195740,921.875488 
	C758.195923,919.110352 758.195923,916.806763 758.195923,914.294250 
	C762.897156,913.241638 767.533752,912.445435 770.095154,916.871582 
	C771.318054,918.984802 771.376465,923.673523 769.939392,924.993835 
	C767.584167,927.157654 763.578674,927.525391 760.269226,928.650635 
	C759.578003,926.546143 758.886780,924.441589 758.195740,921.875488 
z"/>
<path fill="#EDF9FB" opacity="1.000000" stroke="none" 
	d="
M1474.621460,919.861267 
	C1475.967041,924.633179 1477.126343,929.087830 1478.421753,934.064941 
	C1475.559448,934.064941 1472.910034,934.064941 1469.454346,934.064941 
	C1471.163452,929.082458 1472.799316,924.313232 1474.621460,919.861267 
z"/>
<path fill="#EDF9FB" opacity="1.000000" stroke="none" 
	d="
M1280.058350,934.564575 
	C1278.541626,934.457031 1277.436523,934.349976 1275.919800,934.203125 
	C1277.439087,928.870422 1278.867065,923.857849 1280.406494,918.453796 
	C1281.950928,923.834351 1283.378296,928.807312 1284.931030,934.217102 
	C1283.286865,934.345337 1281.878296,934.455200 1280.058350,934.564575 
z"/>
<path fill="#EDF9FB" opacity="1.000000" stroke="none" 
	d="
M1372.847900,923.199890 
	C1373.928589,927.014404 1374.941040,930.450989 1376.067749,934.275635 
	C1372.894653,934.275635 1370.181274,934.275635 1367.059570,934.275635 
	C1368.512939,929.030579 1369.901123,924.020569 1371.447754,918.438660 
	C1371.989746,920.222473 1372.384644,921.522217 1372.847900,923.199890 
z"/>
<path fill="#A7CE3B" opacity="1.000000" stroke="none" 
	d="
M970.260864,517.584290 
	C973.802246,528.929199 977.333923,539.836487 980.607910,550.820618 
	C981.157288,552.663757 981.255249,555.174377 980.431824,556.806396 
	C975.501099,566.579712 970.239746,576.186218 964.937378,586.133423 
	C921.543152,528.598755 918.401489,432.971710 964.945129,369.276489 
	C970.633545,380.128052 976.102295,390.435181 981.376038,400.841156 
	C981.836060,401.748901 981.235229,403.399353 980.754272,404.548828 
	C970.384460,429.332001 965.487610,455.219604 966.287354,481.992096 
	C966.638550,493.747009 968.816162,505.447357 970.260864,517.584290 
z"/>
</svg>