<?xml version="1.0" encoding="UTF-8" standalone="no"?>
<!-- Created with Inkscape (http://www.inkscape.org/) -->

<svg
   width="127.75633mm"
   height="21.719969mm"
   viewBox="0 0 127.75633 21.719969"
   version="1.1"
   id="svg1"
   xmlns:inkscape="http://www.inkscape.org/namespaces/inkscape"
   xmlns:sodipodi="http://sodipodi.sourceforge.net/DTD/sodipodi-0.dtd"
   xmlns="http://www.w3.org/2000/svg"
   xmlns:svg="http://www.w3.org/2000/svg">
  <sodipodi:namedview
     id="namedview1"
     pagecolor="#ffffff"
     bordercolor="#000000"
     borderopacity="0.25"
     inkscape:showpageshadow="2"
     inkscape:pageopacity="0.0"
     inkscape:pagecheckerboard="0"
     inkscape:deskcolor="#d1d1d1"
     inkscape:document-units="mm">
    <inkscape:page
       x="0"
       y="7.4045743e-21"
       width="127.75633"
       height="21.719969"
       id="page2"
       margin="0"
       bleed="0" />
  </sodipodi:namedview>
  <defs
     id="defs1" />
  <g
     inkscape:label="Layer 1"
     inkscape:groupmode="layer"
     id="layer1"
     transform="translate(-21.364495,-34.857309)">
    <path
       style="font-size:15.5222px;line-height:1.25;font-family:'Futura (Light)';-inkscape-font-specification:'Futura (Light)';letter-spacing:0px;word-spacing:0px;fill:#37373c;stroke-width:0.264583"
       d="m 51.43161,38.502902 q 0,0.75034 -0.265272,1.394572 -0.257693,0.636653 -0.727603,1.106563 -0.583598,0.583599 -1.379414,0.879187 -0.795816,0.28801 -2.008488,0.28801 h -1.500681 v 4.206455 H 44.04947 V 35.092262 h 3.061997 q 1.015612,0 1.720478,0.174322 0.704865,0.166742 1.250568,0.530544 0.644232,0.432014 0.992875,1.076246 0.356222,0.644232 0.356222,1.629528 z m -1.561315,0.0379 q 0,-0.583599 -0.204638,-1.015613 Q 49.461018,37.093175 49.044162,36.820323 48.680361,36.585368 48.21045,36.486839 47.748119,36.38073 47.035675,36.38073 h -1.485523 v 4.509623 h 1.265726 q 0.909504,0 1.477944,-0.159163 0.56844,-0.166742 0.924662,-0.522965 0.356222,-0.363801 0.500227,-0.765499 0.151584,-0.401697 0.151584,-0.901924 z m 12.952851,7.003179 q -0.924662,0.424436 -2.023646,0.742762 -1.091405,0.310747 -2.114597,0.310747 -1.31878,0 -2.417764,-0.363801 -1.098984,-0.363802 -1.872062,-1.091405 -0.780658,-0.735182 -1.205093,-1.834166 -0.424435,-1.106563 -0.424435,-2.584507 0,-2.705774 1.576473,-4.267089 1.584053,-1.568894 4.342881,-1.568894 0.962559,0 1.963013,0.234955 1.008033,0.227376 2.167651,0.780657 v 1.781112 h -0.136426 q -0.234955,-0.181901 -0.682128,-0.477489 -0.447172,-0.295589 -0.879187,-0.492648 -0.522965,-0.234956 -1.189934,-0.38654 -0.65939,-0.159163 -1.500682,-0.159163 -1.894799,0 -3.001362,1.220251 -1.098984,1.212672 -1.098984,3.289373 0,2.190388 1.152038,3.410639 1.152038,1.212672 3.137788,1.212672 0.727604,0 1.447627,-0.144005 0.727604,-0.144004 1.273306,-0.37138 V 42.01965 h -3.0241 v -1.318781 h 4.509623 z M 79.103265,43.15653 q 0,0.65939 -0.310747,1.303622 -0.303168,0.644232 -0.856449,1.091405 -0.606336,0.485068 -1.417311,0.75792 -0.803395,0.272851 -1.940275,0.272851 -1.220251,0 -2.197967,-0.227376 -0.970138,-0.227376 -1.978171,-0.674549 v -1.879641 h 0.106109 q 0.856449,0.712444 1.978171,1.098984 1.121721,0.386539 2.107017,0.386539 1.394572,0 2.167651,-0.522965 0.780657,-0.522965 0.780657,-1.394573 0,-0.75034 -0.37138,-1.106563 -0.363802,-0.356222 -1.114143,-0.553281 -0.56844,-0.151584 -1.235409,-0.250114 -0.659391,-0.09853 -1.402152,-0.250113 -1.500681,-0.318327 -2.228285,-1.083826 -0.720023,-0.773078 -0.720023,-2.008488 0,-1.41731 1.197513,-2.319234 1.197513,-0.909504 3.039259,-0.909504 1.189934,0 2.182809,0.227376 0.992875,0.227376 1.758374,0.56086 v 1.773533 h -0.106108 q -0.644232,-0.545702 -1.697741,-0.901925 -1.04593,-0.363801 -2.144913,-0.363801 -1.205093,0 -1.940275,0.500227 -0.727603,0.500227 -0.727603,1.288464 0,0.704865 0.363801,1.106563 0.363802,0.401697 1.280885,0.613915 0.485068,0.106109 1.379414,0.257693 0.894345,0.151584 1.51584,0.310747 1.258147,0.333484 1.8948,1.008033 0.636652,0.674549 0.636652,1.887221 z m 10.906469,-1.311202 q 0,1.227831 -0.272851,2.144914 -0.265272,0.909504 -0.879187,1.515839 -0.583599,0.57602 -1.364256,0.841292 -0.780658,0.265272 -1.819008,0.265272 -1.061088,0 -1.849324,-0.280431 -0.788237,-0.28043 -1.32636,-0.826133 -0.613915,-0.621494 -0.886767,-1.500681 -0.265272,-0.879187 -0.265272,-2.160072 v -6.753066 h 1.500682 v 6.828858 q 0,0.917083 0.121267,1.447627 0.128846,0.530544 0.424435,0.962559 0.333485,0.492648 0.901925,0.742761 0.576019,0.250114 1.379414,0.250114 0.810974,0 1.379414,-0.242535 0.56844,-0.250113 0.909504,-0.75034 0.295589,-0.432015 0.416856,-0.985296 0.128847,-0.560861 0.128847,-1.386994 v -6.866754 h 1.500681 z m 10.247076,-3.342426 q 0,0.75034 -0.265273,1.394572 -0.257693,0.636653 -0.727603,1.106563 -0.583598,0.583599 -1.379414,0.879187 -0.795816,0.28801 -2.008488,0.28801 h -1.500681 v 4.206455 H 92.874669 V 35.092262 h 3.061997 q 1.015612,0 1.720478,0.174322 0.704865,0.166742 1.250568,0.530544 0.644232,0.432014 0.992875,1.076246 0.356223,0.644232 0.356223,1.629528 z m -1.561316,0.0379 q 0,-0.583599 -0.204638,-1.015613 Q 98.286217,37.093175 97.869361,36.820323 97.50556,36.585368 97.03565,36.486839 96.573318,36.38073 95.860874,36.38073 h -1.485523 v 4.509623 h 1.265726 q 0.909504,0 1.477944,-0.159163 0.56844,-0.166742 0.924662,-0.522965 0.356222,-0.363801 0.500227,-0.765499 0.151584,-0.401697 0.151584,-0.901924 z m 10.921626,-0.0379 q 0,0.75034 -0.26527,1.394572 -0.25769,0.636653 -0.7276,1.106563 -0.5836,0.583599 -1.37942,0.879187 -0.79581,0.28801 -2.00848,0.28801 h -1.50069 v 4.206455 h -1.50068 V 35.092262 h 3.062 q 1.01561,0 1.72048,0.174322 0.70486,0.166742 1.25057,0.530544 0.64423,0.432014 0.99287,1.076246 0.35622,0.644232 0.35622,1.629528 z m -1.56131,0.0379 q 0,-0.583599 -0.20464,-1.015613 -0.20464,-0.432014 -0.6215,-0.704866 -0.3638,-0.234955 -0.83371,-0.333484 -0.46233,-0.106109 -1.17477,-0.106109 h -1.48553 v 4.509623 h 1.26573 q 0.9095,0 1.47794,-0.159163 0.56844,-0.166742 0.92467,-0.522965 0.35622,-0.363801 0.50022,-0.765499 0.15159,-0.401697 0.15159,-0.901924 z m 11.95239,-2.152493 q 0.68971,0.75792 1.05351,1.856904 0.37138,1.098984 0.37138,2.493556 0,1.394573 -0.37896,2.501136 -0.37138,1.098984 -1.04593,1.834166 -0.69728,0.765499 -1.65226,1.152038 -0.9474,0.38654 -2.16765,0.38654 -1.18994,0 -2.16765,-0.394119 -0.97014,-0.394118 -1.65227,-1.144459 -0.68213,-0.750341 -1.05351,-1.841745 -0.3638,-1.091405 -0.3638,-2.493557 0,-1.379414 0.3638,-2.470819 0.3638,-1.098983 1.06109,-1.879641 0.66697,-0.742761 1.65227,-1.13688 0.99287,-0.394118 2.16007,-0.394118 1.21267,0 2.17523,0.401697 0.97013,0.394119 1.64468,1.129301 z m -0.13642,4.35046 q 0,-2.197967 -0.9853,-3.387902 -0.98529,-1.197513 -2.69061,-1.197513 -1.72048,0 -2.70578,1.197513 -0.97771,1.189935 -0.97771,3.387902 0,2.220706 1.00045,3.403061 1.00045,1.174775 2.68304,1.174775 1.68258,0 2.67545,-1.174775 1.00046,-1.182355 1.00046,-3.403061 z m 13.27875,5.638924 h -1.94785 l -3.77444,-4.486885 h -2.1146 v 4.486885 h -1.50068 V 35.092262 h 3.16052 q 1.0232,0 1.70532,0.136426 0.68213,0.128846 1.22783,0.46991 0.61392,0.386539 0.95498,0.977717 0.34865,0.583598 0.34865,1.485523 0,1.220251 -0.61392,2.046383 -0.61391,0.818554 -1.69016,1.23541 z m -3.50917,-8.109743 q 0,-0.485068 -0.17432,-0.856449 -0.16674,-0.37896 -0.56086,-0.636653 -0.3259,-0.219797 -0.77308,-0.303168 -0.44717,-0.09095 -1.05351,-0.09095 h -1.76595 v 4.25951 h 1.51584 q 0.71244,0 1.24299,-0.121267 0.53054,-0.128847 0.90192,-0.469911 0.34107,-0.318326 0.50023,-0.727603 0.16674,-0.416856 0.16674,-1.053509 z m 12.55874,-1.841745 h -4.03214 v 9.951488 h -1.50068 v -9.951488 h -4.03213 v -1.333939 h 9.56495 z"
       id="text3154-1-8-4-4-9-5-8-3-6-2"
       aria-label="PG SUPPORT"
       inkscape:export-filename="text3154-1-8-4-4-9-5-8-3-6-2.svg"
       inkscape:export-xdpi="899.44"
       inkscape:export-ydpi="899.44" />
    <path
       style="font-size:6.35px;line-height:125%;font-family:'Futura (Light)';-inkscape-font-specification:'Futura (Light)';letter-spacing:0px;word-spacing:0px;stroke-width:0.264583px"
       d="m 46.965821,52.044227 q 0,0.306958 -0.10852,0.570508 -0.10542,0.260449 -0.297657,0.452685 -0.238745,0.238745 -0.564306,0.359668 -0.325562,0.117822 -0.821656,0.117822 h -0.613916 v 1.720826 H 43.94585 v -4.616773 h 1.252637 q 0.415479,0 0.703833,0.07131 0.288355,0.06821 0.511597,0.217041 0.26355,0.176733 0.406176,0.440283 0.145728,0.26355 0.145728,0.666626 z m -0.638721,0.0155 q 0,-0.238745 -0.08371,-0.415479 -0.08372,-0.176733 -0.254249,-0.288354 -0.148828,-0.09612 -0.341064,-0.136426 -0.189136,-0.04341 -0.480591,-0.04341 h -0.607715 v 1.844848 h 0.517798 q 0.372071,0 0.604614,-0.06511 0.232544,-0.06821 0.378272,-0.21394 0.145727,-0.148828 0.204639,-0.313159 0.06201,-0.164332 0.06201,-0.36897 z m 4.198194,1.475879 q 0,0.84646 -0.434082,1.336352 -0.434082,0.489893 -1.16272,0.489893 -0.734839,0 -1.168921,-0.489893 -0.430981,-0.489892 -0.430981,-1.336352 0,-0.84646 0.430981,-1.336353 0.434082,-0.492993 1.168921,-0.492993 0.728638,0 1.16272,0.492993 0.434082,0.489893 0.434082,1.336353 z m -0.601514,0 q 0,-0.672827 -0.26355,-0.998389 -0.26355,-0.328662 -0.731738,-0.328662 -0.47439,0 -0.737939,0.328662 -0.26045,0.325562 -0.26045,0.998389 0,0.651123 0.26355,0.989087 0.26355,0.334863 0.734839,0.334863 0.465088,0 0.728638,-0.331763 0.26665,-0.334863 0.26665,-0.992187 z m 3.978052,0.731738 q 0,0.47439 -0.393775,0.778247 -0.390674,0.303857 -1.069702,0.303857 -0.384473,0 -0.706933,-0.08992 -0.319361,-0.09302 -0.536402,-0.201538 v -0.654223 h 0.03101 q 0.275952,0.207739 0.613916,0.331762 0.337964,0.120923 0.648023,0.120923 0.384472,0 0.601513,-0.124023 0.217041,-0.124024 0.217041,-0.390674 0,-0.204639 -0.117822,-0.310059 -0.117822,-0.105419 -0.452686,-0.179834 -0.124023,-0.02791 -0.325561,-0.06511 -0.198438,-0.03721 -0.362769,-0.08061 -0.455786,-0.120923 -0.648022,-0.353467 -0.189136,-0.235644 -0.189136,-0.576709 0,-0.21394 0.08682,-0.403076 0.08992,-0.189136 0.269751,-0.337964 0.173632,-0.145727 0.440283,-0.229443 0.269751,-0.08682 0.601513,-0.08682 0.310059,0 0.626319,0.07751 0.31936,0.07441 0.5302,0.182935 v 0.623217 H 53.7344 q -0.223242,-0.164331 -0.542602,-0.275952 -0.319361,-0.114721 -0.626319,-0.114721 -0.31936,0 -0.539502,0.124023 -0.220141,0.120923 -0.220141,0.362769 0,0.21394 0.133325,0.32246 0.130224,0.108521 0.421679,0.176734 0.161231,0.03721 0.359668,0.07441 0.201539,0.03721 0.334864,0.06821 0.406176,0.09302 0.626318,0.31936 0.220142,0.229443 0.220142,0.607715 z m 2.632397,0.967383 q -0.164331,0.04341 -0.359668,0.07131 -0.192236,0.02791 -0.344165,0.02791 -0.5302,0 -0.806152,-0.285254 -0.275952,-0.285254 -0.275952,-0.914673 v -1.841748 h -0.393775 v -0.489893 h 0.393775 v -0.995288 h 0.58291 v 0.995288 h 1.203027 v 0.489893 h -1.203027 v 1.578198 q 0,0.272852 0.0124,0.427881 0.0124,0.151929 0.08682,0.285254 0.06821,0.124023 0.186035,0.182934 0.120923,0.05581 0.365869,0.05581 0.142627,0 0.297656,-0.04031 0.155029,-0.04341 0.223242,-0.07131 h 0.03101 z m 3.512964,-0.362769 q 0,0.880567 -0.399976,1.292945 -0.399975,0.412377 -1.230932,0.412377 -0.275953,0 -0.539502,-0.04031 -0.26045,-0.03721 -0.514698,-0.108521 v -0.595312 h 0.03101 q 0.142627,0.05581 0.452686,0.136426 0.310058,0.08371 0.620117,0.08371 0.297656,0 0.492993,-0.07131 0.195337,-0.07131 0.303857,-0.198438 0.108521,-0.120922 0.15503,-0.291455 0.04651,-0.170532 0.04651,-0.381372 v -0.316259 q -0.26355,0.210839 -0.505396,0.316259 -0.238745,0.10232 -0.610815,0.10232 -0.620118,0 -0.985987,-0.446485 -0.362768,-0.449585 -0.362768,-1.265039 0,-0.446484 0.124023,-0.768945 0.127124,-0.325562 0.344165,-0.561206 0.201538,-0.220142 0.489893,-0.341065 0.288354,-0.124023 0.573608,-0.124023 0.300757,0 0.502295,0.06201 0.204639,0.05891 0.430982,0.182934 l 0.03721,-0.148828 h 0.545703 z m -0.58291,-0.558105 v -1.888257 q -0.232544,-0.10542 -0.434082,-0.148828 -0.198438,-0.04651 -0.396875,-0.04651 -0.480591,0 -0.756543,0.322461 -0.275953,0.322461 -0.275953,0.936377 0,0.58291 0.204639,0.883667 0.204639,0.300757 0.679028,0.300757 0.254248,0 0.508497,-0.09612 0.257348,-0.09922 0.471289,-0.26355 z m 3.891236,-1.875855 h -0.03101 q -0.130225,-0.03101 -0.254248,-0.04341 -0.120923,-0.0155 -0.288355,-0.0155 -0.269751,0 -0.520898,0.120923 -0.251148,0.117822 -0.483692,0.306958 v 2.458765 h -0.58291 v -3.463355 h 0.58291 v 0.511597 q 0.347266,-0.279053 0.610816,-0.393775 0.26665,-0.117822 0.542602,-0.117822 0.151929,0 0.220142,0.0093 0.06821,0.0062 0.204639,0.0279 z m 3.44785,1.156519 h -2.551782 q 0,0.31936 0.09612,0.558105 0.09612,0.235645 0.26355,0.387574 0.161231,0.148828 0.381372,0.223242 0.223242,0.07441 0.489893,0.07441 0.353467,0 0.710034,-0.139527 0.359668,-0.142627 0.511597,-0.279052 h 0.03101 v 0.63562 q -0.294556,0.124023 -0.601514,0.207739 -0.306958,0.08372 -0.644922,0.08372 -0.861963,0 -1.345654,-0.465088 -0.483692,-0.468188 -0.483692,-1.327051 0,-0.84956 0.461988,-1.348755 0.465088,-0.499194 1.221631,-0.499194 0.700732,0 1.079003,0.409277 0.381372,0.409278 0.381372,1.16272 z m -0.567407,-0.446485 q -0.0031,-0.458886 -0.232544,-0.710034 -0.226342,-0.251147 -0.69143,-0.251147 -0.468189,0 -0.747242,0.275952 -0.275952,0.275952 -0.313159,0.685229 z m 4.852417,0.799952 q 0,0.269751 -0.127124,0.5333 -0.124023,0.26355 -0.350366,0.446485 -0.248047,0.198437 -0.57981,0.310058 -0.328662,0.111621 -0.79375,0.111621 -0.499194,0 -0.899169,-0.09302 -0.396875,-0.09302 -0.809253,-0.275952 V 54.21153 h 0.04341 q 0.350366,0.291455 0.809253,0.449585 0.458886,0.15813 0.861963,0.15813 0.570507,0 0.886767,-0.21394 0.319361,-0.213941 0.319361,-0.570508 0,-0.306958 -0.151929,-0.452686 -0.148828,-0.145727 -0.455786,-0.226342 -0.232544,-0.06201 -0.505396,-0.10232 -0.269751,-0.04031 -0.573608,-0.102319 -0.613916,-0.130225 -0.911572,-0.443384 -0.294556,-0.316259 -0.294556,-0.821655 0,-0.57981 0.489892,-0.948779 0.489893,-0.372071 1.243335,-0.372071 0.486792,0 0.892969,0.09302 0.406177,0.09302 0.719336,0.229443 v 0.725537 h -0.04341 q -0.26355,-0.223242 -0.694531,-0.368969 -0.427881,-0.148828 -0.877466,-0.148828 -0.492993,0 -0.79375,0.204638 -0.297656,0.204639 -0.297656,0.5271 0,0.288354 0.148828,0.452685 0.148828,0.164331 0.523999,0.251148 0.198437,0.04341 0.564306,0.10542 0.365869,0.06201 0.620118,0.127124 0.514697,0.136426 0.775146,0.412378 0.260449,0.275952 0.260449,0.772047 z m 5.103565,2.449462 q -0.186035,0.04651 -0.36897,0.06511 -0.179834,0.0217 -0.36897,0.0217 -0.539502,0 -0.868164,-0.297656 -0.325561,-0.294556 -0.353467,-0.84646 -0.07441,0.0124 -0.145727,0.0155 -0.06821,0.0062 -0.133325,0.0062 -0.486792,0 -0.886768,-0.161231 -0.396875,-0.16123 -0.675928,-0.468188 -0.279052,-0.306958 -0.430981,-0.753443 -0.148828,-0.446484 -0.148828,-1.020092 0,-0.564307 0.148828,-1.010791 0.148828,-0.449585 0.434082,-0.768946 0.272852,-0.303857 0.675928,-0.465087 0.406176,-0.161231 0.883667,-0.161231 0.496093,0 0.889868,0.164331 0.396875,0.161231 0.672827,0.461987 0.282153,0.310059 0.430981,0.759644 0.151929,0.449585 0.151929,1.020093 0,0.84646 -0.347266,1.426269 -0.344165,0.57981 -0.927075,0.812354 0.0124,0.353467 0.167432,0.548803 0.155029,0.195337 0.564307,0.195337 0.127124,0 0.300756,-0.04031 0.176734,-0.03721 0.251148,-0.06821 h 0.08372 z M 75.460205,52.9589 q 0,-0.89917 -0.403076,-1.385962 -0.403076,-0.489893 -1.100708,-0.489893 -0.703833,0 -1.106909,0.489893 -0.399976,0.486792 -0.399976,1.385962 0,0.908471 0.409278,1.392163 0.409277,0.480591 1.097607,0.480591 0.68833,0 1.094507,-0.480591 0.409277,-0.483692 0.409277,-1.392163 z m 4.533057,2.306836 H 77.07251 v -4.616773 h 0.613916 v 4.07107 h 2.306836 z m 5.866308,-3.221509 q 0,0.306958 -0.10852,0.570508 -0.10542,0.260449 -0.297656,0.452685 -0.238746,0.238745 -0.564307,0.359668 -0.325562,0.117822 -0.821655,0.117822 h -0.613916 v 1.720826 H 82.8396 v -4.616773 h 1.252636 q 0.415479,0 0.703833,0.07131 0.288355,0.06821 0.511597,0.217041 0.26355,0.176733 0.406177,0.440283 0.145727,0.26355 0.145727,0.666626 z m -0.63872,0.0155 q 0,-0.238745 -0.08372,-0.415479 -0.08372,-0.176733 -0.254248,-0.288354 -0.148828,-0.09612 -0.341065,-0.136426 -0.189135,-0.04341 -0.480591,-0.04341 h -0.607714 v 1.844848 h 0.517797 q 0.372071,0 0.604615,-0.06511 0.232544,-0.06821 0.378271,-0.21394 0.145728,-0.148828 0.204639,-0.313159 0.06201,-0.164332 0.06201,-0.36897 z m 3.562573,0.378271 h -0.03101 q -0.130225,-0.03101 -0.254248,-0.04341 -0.120923,-0.0155 -0.288355,-0.0155 -0.269751,0 -0.520898,0.120923 -0.251147,0.117822 -0.483691,0.306958 v 2.458765 H 86.62231 v -3.463355 h 0.582911 v 0.511597 q 0.347265,-0.279053 0.610815,-0.393775 0.26665,-0.117822 0.542603,-0.117822 0.151928,0 0.220141,0.0093 0.06821,0.0062 0.204639,0.0279 z m 3.500561,1.097608 q 0,0.84646 -0.434082,1.336352 -0.434082,0.489893 -1.16272,0.489893 -0.734839,0 -1.168921,-0.489893 -0.430981,-0.489892 -0.430981,-1.336352 0,-0.84646 0.430981,-1.336353 0.434082,-0.492993 1.168921,-0.492993 0.728638,0 1.16272,0.492993 0.434082,0.489893 0.434082,1.336353 z m -0.601514,0 q 0,-0.672827 -0.26355,-0.998389 -0.26355,-0.328662 -0.731738,-0.328662 -0.47439,0 -0.73794,0.328662 -0.260449,0.325562 -0.260449,0.998389 0,0.651123 0.26355,0.989087 0.26355,0.334863 0.734839,0.334863 0.465088,0 0.728638,-0.331763 0.26665,-0.334863 0.26665,-0.992187 z m 3.367239,-2.530078 h -0.03101 q -0.09612,-0.02791 -0.251148,-0.05581 -0.155029,-0.03101 -0.272851,-0.03101 -0.375171,0 -0.545703,0.167432 -0.167432,0.164331 -0.167432,0.598413 v 0.117822 h 1.051099 v 0.489893 h -1.032496 v 2.973462 h -0.58291 v -2.973462 h -0.393774 v -0.489893 h 0.393774 V 51.68766 q 0,-0.617017 0.306958,-0.945679 0.306958,-0.331763 0.886768,-0.331763 0.195337,0 0.350366,0.0186 0.15813,0.0186 0.288355,0.04341 z m 3.268017,2.588989 h -2.551782 q 0,0.31936 0.09612,0.558105 0.09612,0.235645 0.26355,0.387574 0.16123,0.148828 0.381372,0.223242 0.223242,0.07441 0.489892,0.07441 0.353467,0 0.710035,-0.139527 0.359668,-0.142627 0.511596,-0.279052 h 0.03101 v 0.63562 q -0.294555,0.124023 -0.601513,0.207739 -0.306958,0.08372 -0.644922,0.08372 -0.861963,0 -1.345655,-0.465088 -0.483691,-0.468188 -0.483691,-1.327051 0,-0.84956 0.461987,-1.348755 0.465088,-0.499194 1.221631,-0.499194 0.700733,0 1.079004,0.409277 0.381372,0.409278 0.381372,1.16272 z m -0.567407,-0.446485 q -0.0031,-0.458886 -0.232544,-0.710034 -0.226343,-0.251147 -0.691431,-0.251147 -0.468188,0 -0.747241,0.275952 -0.275952,0.275952 -0.313159,0.685229 z m 3.925341,1.119312 q 0,0.47439 -0.39377,0.778247 -0.39068,0.303857 -1.06971,0.303857 -0.384469,0 -0.706929,-0.08992 -0.319361,-0.09302 -0.536402,-0.201538 v -0.654223 h 0.03101 q 0.275952,0.207739 0.613916,0.331762 0.337964,0.120923 0.648015,0.120923 0.38448,0 0.60152,-0.124023 0.21704,-0.124024 0.21704,-0.390674 0,-0.204639 -0.11782,-0.310059 -0.11783,-0.105419 -0.45269,-0.179834 -0.12402,-0.02791 -0.32556,-0.06511 -0.198435,-0.03721 -0.362766,-0.08061 -0.455786,-0.120923 -0.648022,-0.353467 -0.189136,-0.235644 -0.189136,-0.576709 0,-0.21394 0.08682,-0.403076 0.08992,-0.189136 0.26975,-0.337964 0.173633,-0.145727 0.440284,-0.229443 0.26975,-0.08682 0.60152,-0.08682 0.31005,0 0.62631,0.07751 0.31937,0.07441 0.5302,0.182935 v 0.623217 h -0.031 q -0.22324,-0.164331 -0.5426,-0.275952 -0.31936,-0.114721 -0.62632,-0.114721 -0.31936,0 -0.539507,0.124023 -0.220141,0.120923 -0.220141,0.362769 0,0.21394 0.133325,0.32246 0.130224,0.108521 0.421683,0.176734 0.16123,0.03721 0.35967,0.07441 0.20154,0.03721 0.33486,0.06821 0.40618,0.09302 0.62632,0.31936 0.22014,0.229443 0.22014,0.607715 z m 3.30832,0 q 0,0.47439 -0.39377,0.778247 -0.39067,0.303857 -1.0697,0.303857 -0.38448,0 -0.70694,-0.08992 -0.31936,-0.09302 -0.5364,-0.201538 v -0.654223 h 0.031 q 0.27595,0.207739 0.61391,0.331762 0.33797,0.120923 0.64803,0.120923 0.38447,0 0.60151,-0.124023 0.21704,-0.124024 0.21704,-0.390674 0,-0.204639 -0.11782,-0.310059 -0.11782,-0.105419 -0.45269,-0.179834 -0.12402,-0.02791 -0.32556,-0.06511 -0.19844,-0.03721 -0.36277,-0.08061 -0.45578,-0.120923 -0.64802,-0.353467 -0.18913,-0.235644 -0.18913,-0.576709 0,-0.21394 0.0868,-0.403076 0.0899,-0.189136 0.26975,-0.337964 0.17364,-0.145727 0.44029,-0.229443 0.26975,-0.08682 0.60151,-0.08682 0.31006,0 0.62632,0.07751 0.31936,0.07441 0.5302,0.182935 v 0.623217 h -0.031 q -0.22324,-0.164331 -0.5426,-0.275952 -0.31936,-0.114721 -0.62632,-0.114721 -0.31936,0 -0.5395,0.124023 -0.22014,0.120923 -0.22014,0.362769 0,0.21394 0.13332,0.32246 0.13023,0.108521 0.42168,0.176734 0.16123,0.03721 0.35967,0.07441 0.20154,0.03721 0.33486,0.06821 0.40618,0.09302 0.62632,0.31936 0.22014,0.229443 0.22014,0.607715 z m 1.46038,-3.044775 h -0.65732 v -0.604615 h 0.65732 z m -0.0372,4.043164 h -0.58291 v -3.463355 h 0.58291 z m 4.10518,-1.730127 q 0,0.84646 -0.43408,1.336352 -0.43409,0.489893 -1.16272,0.489893 -0.73484,0 -1.16893,-0.489893 -0.43098,-0.489892 -0.43098,-1.336352 0,-0.84646 0.43098,-1.336353 0.43409,-0.492993 1.16893,-0.492993 0.72863,0 1.16272,0.492993 0.43408,0.489893 0.43408,1.336353 z m -0.60152,0 q 0,-0.672827 -0.26355,-0.998389 -0.26355,-0.328662 -0.73173,-0.328662 -0.47439,0 -0.73794,0.328662 -0.26045,0.325562 -0.26045,0.998389 0,0.651123 0.26355,0.989087 0.26355,0.334863 0.73484,0.334863 0.46508,0 0.72863,-0.331763 0.26665,-0.334863 0.26665,-0.992187 z m 4.39974,1.730127 h -0.58291 V 53.29376 q 0,-0.238745 -0.0279,-0.446484 -0.0279,-0.21084 -0.10232,-0.328662 -0.0775,-0.130225 -0.22324,-0.192237 -0.14573,-0.06511 -0.37827,-0.06511 -0.23875,0 -0.4992,0.117822 -0.26044,0.117822 -0.49919,0.300757 v 2.585889 h -0.58291 V 51.80238 h 0.58291 v 0.384473 q 0.27285,-0.226343 0.56431,-0.353467 0.29145,-0.127124 0.59841,-0.127124 0.56121,0 0.85576,0.337964 0.29456,0.337964 0.29456,0.973584 z m 3.81372,0 h -0.57981 v -0.36897 q -0.0775,0.05271 -0.21084,0.148828 -0.13023,0.09302 -0.25425,0.148828 -0.14573,0.07131 -0.33487,0.117822 -0.18913,0.04961 -0.44338,0.04961 -0.46819,0 -0.79375,-0.310059 -0.32556,-0.310058 -0.32556,-0.790649 0,-0.393775 0.16743,-0.63562 0.17053,-0.244947 0.48369,-0.384473 0.31626,-0.139526 0.75965,-0.189136 0.44338,-0.04961 0.95188,-0.07441 v -0.08992 q 0,-0.198437 -0.0713,-0.328662 -0.0682,-0.130224 -0.19844,-0.204639 -0.12402,-0.07131 -0.29765,-0.09612 -0.17363,-0.0248 -0.36277,-0.0248 -0.22944,0 -0.5116,0.06201 -0.28215,0.05891 -0.58291,0.173633 h -0.031 v -0.592212 q 0.17053,-0.04651 0.49299,-0.102319 0.32246,-0.05581 0.63562,-0.05581 0.36587,0 0.63562,0.06201 0.27285,0.05891 0.47129,0.204639 0.19534,0.142627 0.29766,0.368969 0.10232,0.226343 0.10232,0.561207 z m -0.57981,-0.852661 v -0.964283 q -0.26665,0.0155 -0.62942,0.04651 -0.35967,0.03101 -0.57051,0.08992 -0.25115,0.07131 -0.40618,0.223242 -0.15503,0.148828 -0.15503,0.412378 0,0.297656 0.17984,0.449585 0.17983,0.148828 0.5488,0.148828 0.30696,0 0.56121,-0.117822 0.25424,-0.120923 0.47129,-0.288354 z m 2.29133,0.852661 h -0.58291 v -4.824512 h 0.58291 z m 6.78718,-1.317749 q 0,0.269751 -0.12712,0.5333 -0.12402,0.26355 -0.35037,0.446485 -0.24804,0.198437 -0.57981,0.310058 -0.32866,0.111621 -0.79375,0.111621 -0.49919,0 -0.89917,-0.09302 -0.39687,-0.09302 -0.80925,-0.275952 V 54.21153 h 0.0434 q 0.35036,0.291455 0.80925,0.449585 0.45889,0.15813 0.86196,0.15813 0.57051,0 0.88677,-0.21394 0.31936,-0.213941 0.31936,-0.570508 0,-0.306958 -0.15193,-0.452686 -0.14882,-0.145727 -0.45578,-0.226342 -0.23255,-0.06201 -0.5054,-0.10232 -0.26975,-0.04031 -0.57361,-0.102319 -0.61391,-0.130225 -0.91157,-0.443384 -0.29455,-0.316259 -0.29455,-0.821655 0,-0.57981 0.48989,-0.948779 0.48989,-0.372071 1.24333,-0.372071 0.48679,0 0.89297,0.09302 0.40618,0.09302 0.71934,0.229443 v 0.725537 h -0.0434 q -0.26355,-0.223242 -0.69453,-0.368969 -0.42788,-0.148828 -0.87747,-0.148828 -0.49299,0 -0.79375,0.204638 -0.29765,0.204639 -0.29765,0.5271 0,0.288354 0.14882,0.452685 0.14883,0.164331 0.524,0.251148 0.19844,0.04341 0.56431,0.10542 0.36587,0.06201 0.62012,0.127124 0.51469,0.136426 0.77514,0.412378 0.26045,0.275952 0.26045,0.772047 z m 3.83853,-0.353467 h -2.55178 q 0,0.31936 0.0961,0.558105 0.0961,0.235645 0.26355,0.387574 0.16123,0.148828 0.38138,0.223242 0.22324,0.07441 0.48989,0.07441 0.35347,0 0.71003,-0.139527 0.35967,-0.142627 0.5116,-0.279052 h 0.031 v 0.63562 q -0.29456,0.124023 -0.60152,0.207739 -0.30696,0.08372 -0.64492,0.08372 -0.86196,0 -1.34565,-0.465088 -0.4837,-0.468188 -0.4837,-1.327051 0,-0.84956 0.46199,-1.348755 0.46509,-0.499194 1.22163,-0.499194 0.70073,0 1.07901,0.409277 0.38137,0.409278 0.38137,1.16272 z m -0.56741,-0.446485 q -0.003,-0.458886 -0.23254,-0.710034 -0.22635,-0.251147 -0.69143,-0.251147 -0.46819,0 -0.74724,0.275952 -0.27596,0.275952 -0.31316,0.685229 z m 3.61218,-0.710034 h -0.031 q -0.13023,-0.03101 -0.25425,-0.04341 -0.12092,-0.0155 -0.28835,-0.0155 -0.26976,0 -0.5209,0.120923 -0.25115,0.117822 -0.48369,0.306958 v 2.458765 h -0.58291 v -3.463355 h 0.58291 v 0.511597 q 0.34726,-0.279053 0.61081,-0.393775 0.26665,-0.117822 0.5426,-0.117822 0.15193,0 0.22014,0.0093 0.0682,0.0062 0.20464,0.0279 z m 3.54398,-0.63562 -1.40147,3.463355 h -0.58601 l -1.39216,-3.463355 h 0.63252 l 1.0728,2.756421 1.0635,-2.756421 z m 1.38905,-0.579809 h -0.65732 v -0.604615 h 0.65732 z m -0.0372,4.043164 h -0.58291 v -3.463355 h 0.58291 z m 3.7145,-0.217041 q -0.29146,0.139526 -0.55501,0.217041 -0.26044,0.07751 -0.555,0.07751 -0.37517,0 -0.68833,-0.10852 -0.31316,-0.111621 -0.5364,-0.334864 -0.22634,-0.223242 -0.35037,-0.564306 -0.12402,-0.341065 -0.12402,-0.796851 0,-0.84956 0.46509,-1.333252 0.46818,-0.483691 1.23403,-0.483691 0.29766,0 0.58291,0.08372 0.28835,0.08372 0.5271,0.204638 v 0.648023 h -0.031 q -0.26665,-0.207739 -0.5519,-0.31936 -0.28215,-0.111622 -0.55191,-0.111622 -0.49609,0 -0.78444,0.334864 -0.28526,0.331762 -0.28526,0.976684 0,0.626319 0.27906,0.964282 0.28215,0.334864 0.79064,0.334864 0.17674,0 0.35967,-0.04651 0.18294,-0.04651 0.32866,-0.120923 0.12713,-0.06511 0.23875,-0.136426 0.11162,-0.07441 0.17673,-0.127124 h 0.031 z m 3.64629,-1.454175 h -2.55178 q 0,0.31936 0.0961,0.558105 0.0961,0.235645 0.26355,0.387574 0.16123,0.148828 0.38137,0.223242 0.22324,0.07441 0.48989,0.07441 0.35347,0 0.71003,-0.139527 0.35967,-0.142627 0.5116,-0.279052 h 0.031 v 0.63562 q -0.29456,0.124023 -0.60152,0.207739 -0.30695,0.08372 -0.64492,0.08372 -0.86196,0 -1.34565,-0.465088 -0.48369,-0.468188 -0.48369,-1.327051 0,-0.84956 0.46198,-1.348755 0.46509,-0.499194 1.22163,-0.499194 0.70074,0 1.07901,0.409277 0.38137,0.409278 0.38137,1.16272 z m -0.56741,-0.446485 q -0.003,-0.458886 -0.23254,-0.710034 -0.22634,-0.251147 -0.69143,-0.251147 -0.46819,0 -0.74724,0.275952 -0.27596,0.275952 -0.31316,0.685229 z m 3.92534,1.119312 q 0,0.47439 -0.39377,0.778247 -0.39067,0.303857 -1.0697,0.303857 -0.38447,0 -0.70694,-0.08992 -0.31936,-0.09302 -0.5364,-0.201538 v -0.654223 h 0.031 q 0.27595,0.207739 0.61391,0.331762 0.33797,0.120923 0.64803,0.120923 0.38447,0 0.60151,-0.124023 0.21704,-0.124024 0.21704,-0.390674 0,-0.204639 -0.11782,-0.310059 -0.11782,-0.105419 -0.45269,-0.179834 -0.12402,-0.02791 -0.32556,-0.06511 -0.19843,-0.03721 -0.36277,-0.08061 -0.45578,-0.120923 -0.64802,-0.353467 -0.18913,-0.235644 -0.18913,-0.576709 0,-0.21394 0.0868,-0.403076 0.0899,-0.189136 0.26975,-0.337964 0.17364,-0.145727 0.44029,-0.229443 0.26975,-0.08682 0.60151,-0.08682 0.31006,0 0.62632,0.07751 0.31936,0.07441 0.5302,0.182935 v 0.623217 h -0.031 q -0.22324,-0.164331 -0.5426,-0.275952 -0.31936,-0.114721 -0.62632,-0.114721 -0.31936,0 -0.5395,0.124023 -0.22014,0.120923 -0.22014,0.362769 0,0.21394 0.13332,0.32246 0.13023,0.108521 0.42168,0.176734 0.16123,0.03721 0.35967,0.07441 0.20154,0.03721 0.33486,0.06821 0.40618,0.09302 0.62632,0.31936 0.22014,0.229443 0.22014,0.607715 z"
       id="text961-0"
       aria-label="PostgreSQL Professional Services " />
    <g
       id="g4116-3-9-6"
       transform="matrix(0.29748829,0,0,0.29748829,-459.96081,-277.26687)"
       inkscape:export-filename="pgsupport.svg"
       inkscape:export-xdpi="233.89"
       inkscape:export-ydpi="233.89"
       style="stroke:none">
      <rect
         rx="3.5433071"
         y="1096.7275"
         x="1664.0269"
         height="21.259842"
         width="21.259842"
         id="rect5699-82-1-6-4-8-0"
         style="fill:#045476;fill-opacity:1;stroke:none" />
      <rect
         rx="3.5433071"
         y="1096.7275"
         x="1640.9954"
         height="21.259842"
         width="21.259842"
         id="rect5699-4-4-1-1-1-4-7"
         style="fill:#0b8aa8;fill-opacity:1;stroke:none" />
      <rect
         rx="3.5433071"
         y="1096.7275"
         x="1617.9639"
         height="21.259842"
         width="21.259842"
         id="rect5699-4-5-5-5-4-1-1-0"
         style="fill:#27c4d9;fill-opacity:1;stroke:none" />
      <rect
         rx="3.5433071"
         y="1073.696"
         x="1664.0269"
         height="21.259842"
         width="21.259842"
         id="rect5699-2-51-2-2-3-4-1"
         style="fill:#045476;fill-opacity:1;stroke:none" />
      <rect
         rx="3.5433071"
         y="1050.6646"
         x="1640.9954"
         height="21.259842"
         width="21.259842"
         id="rect5699-2-9-7-7-3-8-3-0"
         style="fill:#0b8aa8;fill-opacity:1;stroke:none" />
    </g>
  </g>
</svg>
