<?xml version="1.0" encoding="UTF-8" standalone="no"?>
<svg
   id="logo"
   fill="currentColor"
   width="100mm"
   height="20mm"
   viewBox="0 0 100 20"
   version="1.1"
   xmlns="http://www.w3.org/2000/svg"
   xmlns:svg="http://www.w3.org/2000/svg">
  <g
     id="logo"
     transform="translate(-7.9469584,-13.101045)"
     style="display:inline">
    <g
       aria-label="VeritoDigital"
       id="text"
       style="font-size:16.0298px;display:inline;stroke-width:0.187849">
      <path
         id="digital"
         d="m 32.17258,17.025912 4.327902,11.333159 4.327901,-11.333159 h -1.314132 l -3.013769,8.159192 -3.01377,-8.159192 z m 22.409485,0.705384 c -0.448834,0 -0.817521,0.368687 -0.817521,0.817521 0,0.448834 0.368687,0.817521 0.817521,0.817521 0.448833,0 0.817521,-0.368687 0.817521,-0.817521 0,-0.448834 -0.368688,-0.817521 -0.817521,-0.817521 z m 2.788977,0.929659 v 2.404504 h -0.705383 v 1.058333 h 0.705383 v 5.593974 h 1.154451 v -5.593974 h 1.153935 v -1.058333 h -1.153935 v -2.404504 z m -13.01626,2.244307 c -2.003723,0 -3.222025,1.538707 -3.222025,3.5264 0,2.468586 1.683643,3.478857 3.286621,3.478857 0.849579,0 1.602619,-0.272509 2.211751,-0.817521 0.336626,-0.304566 0.625164,-0.705667 0.817521,-1.074353 l -0.961698,-0.52865 c -0.144269,0.320596 -0.384798,0.657163 -0.689364,0.913639 -0.384714,0.320596 -0.817178,0.480591 -1.36219,0.480591 -1.154144,0 -2.100121,-0.881249 -2.11615,-2.25981 h 5.177461 c 0.03206,-0.881638 -0.20851,-1.907521 -0.625284,-2.500623 -0.400745,-0.577072 -1.21823,-1.21853 -2.516643,-1.21853 z m 7.566463,0 c -0.897668,0 -1.394676,0.705272 -1.506884,0.8816 v -0.721403 h -1.154452 v 6.652307 h 1.154452 v -3.51038 c 0,-1.090026 0.192115,-1.538762 0.384472,-1.795239 0.176328,-0.224417 0.464796,-0.417029 0.929659,-0.417029 0.176328,0 0.416868,0.04847 0.673344,0.224792 l 0.545187,-1.042313 c -0.288536,-0.144269 -0.673122,-0.272335 -1.025778,-0.272335 z m 11.957927,0 c -2.035783,0 -3.5264,1.490627 -3.5264,3.51038 0,2.019753 1.506647,3.494877 3.5264,3.494877 2.019753,0 3.526916,-1.475124 3.526916,-3.494877 0,-2.019753 -1.491134,-3.51038 -3.526916,-3.51038 z m -9.874333,0.160197 v 6.652307 h 1.154452 v -6.652307 z m -9.650057,0.86558 c 0.977817,0 1.763595,0.689225 1.955953,1.731161 h -3.911389 c 0.176327,-0.993847 0.977619,-1.731161 1.955436,-1.731161 z m 19.52439,0 c 1.218263,0 2.340425,0.849566 2.340425,2.484603 0,1.619008 -1.138191,2.468583 -2.340425,2.468583 -1.186204,0 -2.340426,-0.833545 -2.340426,-2.468583 0,-1.619008 1.122162,-2.484603 2.340426,-2.484603 z" />
      <path
         id="verito"
         d="m 104.75523,16.032175 v 11.685591 h 0.6413 V 16.032175 Z m -35.233509,0.993737 v 10.691854 h 2.11615 c 0.945757,0 2.596927,-0.143847 3.943429,-1.490348 1.138114,-1.138115 1.538407,-2.677137 1.538407,-3.847311 0,-1.170174 -0.400293,-2.725215 -1.538407,-3.86333 -1.346502,-1.346502 -2.997672,-1.490865 -3.943429,-1.490865 z m 0.705384,0.641305 h 1.394746 c 2.805213,0 4.76095,1.971797 4.76095,4.71289 0,2.773153 -1.939707,4.696871 -4.76095,4.696871 h -1.394746 z m 9.233028,0.737423 c -0.320596,0 -0.576709,0.240589 -0.576709,0.593245 0,0.352655 0.256113,0.593245 0.576709,0.593245 0.320595,0 0.577225,-0.24059 0.577225,-0.593245 0,-0.352656 -0.25663,-0.593245 -0.577225,-0.593245 z m 11.285099,0 c -0.320596,0 -0.577226,0.240589 -0.577226,0.593245 0,0.352655 0.25663,0.593245 0.577226,0.593245 0.320595,0 0.577225,-0.24059 0.577225,-0.593245 0,-0.352656 -0.25663,-0.593245 -0.577225,-0.593245 z m 2.676839,0.433048 v 2.339909 h -0.721403 v 0.609265 h 0.721403 v 5.930904 h 0.641304 v -5.930904 h 1.138432 v -0.609265 h -1.138432 v -2.339909 z m -8.447546,2.195732 c -2.051813,0 -3.302124,1.522746 -3.302124,3.414261 0,2.27623 1.619047,3.446818 3.222025,3.446818 0.929727,0 1.923501,-0.38493 2.580721,-1.298628 v 0.929659 c 0,0.67325 -0.06401,3.270084 -2.6448,3.270084 -1.39459,0 -2.420453,-0.833716 -2.532662,-2.196248 h -0.673343 c 0.08015,1.811366 1.506849,2.805513 3.206005,2.805513 2.051813,0 3.286105,-1.410763 3.286105,-3.879349 v -6.347933 h -0.641305 v 1.138432 C 86.914105,21.514539 86.04852,21.03342 84.974525,21.03342 Z m 14.282332,0 c -1.907545,0 -3.18947,1.394508 -3.18947,3.414261 0,2.147991 1.474282,3.446818 3.18947,3.446818 0.849573,0 1.891983,-0.336811 2.549203,-1.346687 v 1.169954 h 0.64078 v -6.540169 h -0.64078 v 1.138432 C 101.1809,21.43439 100.28276,21.03342 99.256857,21.03342 Z m -20.117118,0.144177 v 6.540169 h 0.641304 v -6.540169 z m 11.285099,0 v 6.540169 h 0.640788 v -6.540169 z m -5.514392,0.465088 c 1.602978,0 2.59674,1.250128 2.59674,2.772957 0,1.602978 -1.009771,2.869592 -2.62878,2.869592 -1.538859,0 -2.532661,-1.234594 -2.532661,-2.805513 0,-1.5068 0.945693,-2.837036 2.564701,-2.837036 z m 14.378967,0 c 1.122087,0 2.548677,0.817334 2.548677,2.756937 0,1.506801 -0.89762,2.885612 -2.532657,2.885612 -1.651068,0 -2.565218,-1.410871 -2.565218,-2.885612 0,-1.779305 1.250785,-2.756937 2.549198,-2.756937 z" />
    </g>
    <g
       id="icon"
       style="display:inline"
       transform="matrix(0.99686013,0,0,0.99686013,5.8402156,-10.755532)">
      <path
         style="display:inline;stroke-width:0.0123579"
         d="M 7.849512,37.683669 C 7.3827689,37.615735 7.0891671,37.528149 6.7829448,37.365297 6.6356005,37.287015 6.4723137,37.168781 6.3799645,37.073571 6.1329262,36.818871 6.0142722,36.483674 6.0386369,36.109268 6.0542619,35.868953 6.1616552,35.517571 6.3071388,35.230893 6.6201441,34.613923 7.2253203,33.903239 8.020476,33.218875 8.2824806,32.993396 8.64601,32.70438 8.8803458,32.535319 c 0.053983,-0.03869 0.1244282,-0.08986 0.1567474,-0.113465 0.1658461,-0.120764 0.2580609,-0.183964 0.5941831,-0.406877 0.9636327,-0.639048 2.2991007,-1.341096 3.5075457,-1.843814 0.248851,-0.103476 0.739835,-0.295718 0.895059,-0.350371 0.0571,-0.0199 0.182089,-0.06468 0.277987,-0.09898 0.593012,-0.212431 1.359709,-0.436898 2.006126,-0.587266 0.22459,-0.05219 0.276609,-0.06805 0.25414,-0.07772 -0.0089,-0.0045 -0.377807,0.02609 -0.534775,0.04308 -0.564963,0.06163 -1.12668,0.162617 -1.757211,0.316371 -0.2853,0.06951 -0.656962,0.170355 -0.906512,0.245892 -0.04876,0.01485 -0.121045,0.03678 -0.160711,0.04847 -0.37096,0.111914 -0.982512,0.330867 -1.503442,0.538171 -1.8732817,0.806995 -3.8875482,1.893142 -5.1373181,3.008456 -0.00332,0.01125 -0.081295,0.08986 -0.1732553,0.174347 -1.2086472,1.109825 -1.7977108,2.109401 -1.7203223,2.919321 0.015907,0.166441 0.098443,0.396868 0.1911059,0.533525 0.2813751,0.414741 0.7996522,0.681644 1.5551191,0.800857 0.2044333,0.03228 0.5601334,0.06129 0.7868213,0.06411 0.3025461,0.0045 0.7661905,-0.01405 0.8004104,-0.03059 0.00989,-0.0045 -0.063262,-0.02047 -0.162355,-0.03487 z"
         id="orbit-h" />
      <path
         opacity="1"
         stroke="none"
         d="m 21.824515,28.799776 c -0.206304,-0.05175 -0.404884,-0.116372 -0.595233,-0.205203 -0.419432,-0.195732 -0.691624,-0.523355 -0.85188,-0.950883 -0.114392,-0.305168 -0.183579,-0.621916 -0.239278,-0.942127 -0.03262,-0.187551 -0.0607,-0.375786 -0.08647,-0.564342 -0.02212,-0.161837 -0.04039,-0.324204 -0.06046,-0.486324 -5.89e-4,-0.0057 -0.0024,-0.01134 -0.0038,-0.01767 -0.01502,0.0063 -0.01366,0.01852 -0.01478,0.02904 -0.03024,0.288322 -0.0675,0.575807 -0.113368,0.861981 -0.05781,0.360676 -0.125386,0.719506 -0.24934,1.064798 -0.112594,0.31365 -0.27593,0.593434 -0.542848,0.802863 -0.206548,0.16206 -0.442619,0.264918 -0.691046,0.342382 -0.330869,0.103164 -0.670981,0.162906 -1.012707,0.215475 -0.232072,0.0357 -0.464965,0.06495 -0.697864,0.09433 -0.03603,0.0046 -0.07223,0.0077 -0.108132,0.01154 0.0012,0.01734 0.01131,0.0157 0.01926,0.01661 0.408085,0.04628 0.815066,0.100513 1.218608,0.177607 0.309801,0.05918 0.614925,0.134844 0.904663,0.263993 0.401795,0.1791 0.68344,0.473214 0.853146,0.877945 0.09941,0.237072 0.165759,0.483618 0.218831,0.734201 0.05554,0.262232 0.09686,0.526927 0.133375,0.792399 0.02527,0.183841 0.05055,0.367679 0.06816,0.552468 5.89e-4,0.0072 8.83e-4,0.01493 0.01204,0.02114 0.01399,-0.03821 0.01316,-0.07818 0.01832,-0.116592 0.0217,-0.161976 0.0401,-0.324393 0.06222,-0.486303 0.02712,-0.198404 0.05789,-0.396289 0.09537,-0.593043 0.04698,-0.246575 0.10228,-0.491156 0.185172,-0.728523 0.09603,-0.274989 0.228376,-0.528341 0.440602,-0.734074 0.183034,-0.177435 0.401683,-0.295091 0.637583,-0.384067 0.294788,-0.111188 0.601591,-0.17505 0.91075,-0.229609 0.184033,-0.03248 0.368689,-0.06099 0.553823,-0.0861 0.164429,-0.02229 0.329346,-0.04099 0.494046,-0.06129 0.0094,-0.0012 0.01997,0.0021 0.03285,-0.0149 -0.535868,-0.06583 -1.067533,-0.129626 -1.591534,-0.257721 z"
         id="sparkle"
         style="display:inline;stroke-width:0.00738959" />
      <path
         style="display:inline;stroke-width:0.0142715"
         d="m 17.179267,38.570051 c 0.13424,-0.06355 0.409969,-0.216061 0.573577,-0.31826 0.448968,-0.280263 0.797266,-0.576627 1.153373,-0.981165 0.617935,-0.70196 0.996278,-1.517378 1.135906,-2.448002 0.05772,-0.384843 0.06766,-0.9073 0.0142,-1.310064 -0.03249,-0.36545 -0.04964,-0.415567 -0.05437,-0.141142 0.009,0.721214 -0.12056,1.418492 -0.42715,2.047563 -0.174668,0.358496 -0.381016,0.66482 -0.657349,0.975977 -0.335298,0.3775 -0.689603,0.664272 -1.152373,0.93273 -0.948371,0.550125 -2.132122,0.806814 -3.336811,0.723643 -0.815803,-0.05641 -1.529873,-0.233114 -2.316226,-0.573509 -1.001077,-0.433289 -1.879392,-1.098644 -2.5255371,-1.913169 -0.392407,-0.494706 -0.712641,-1.065954 -0.894098,-1.595016 -0.04591,-0.134449 -0.0843,-0.252643 -0.08494,-0.26302 -0.0026,-0.04248 -0.06412,8.57e-4 -0.38276,0.270922 -0.313002,0.265161 -0.753722,0.683753 -0.792612,0.752774 -0.02386,0.04213 0.260843,0.636307 0.467959,0.974203 1.174563,1.922773 3.3538301,3.23292 5.7505261,3.457062 0.747979,0.06985 1.578735,0.01333 2.280812,-0.156263 0.375559,-0.09056 0.91516,-0.278835 1.247905,-0.435287 z M 8.4351019,32.176592 c -0.0064,-0.01559 0.01579,-0.236518 0.03819,-0.380297 0.08794,-0.56431 0.273518,-1.076521 0.562409,-1.552127 0.407342,-0.670663 0.9452271,-1.176019 1.7282521,-1.623778 0.193903,-0.110792 0.89462,-0.393197 1.131015,-0.455185 0.888716,-0.234792 1.723678,-0.28375 2.604561,-0.152645 0.111553,0.01666 0.205974,0.02892 0.209844,0.02713 0.03054,-0.0119 -0.437414,-0.113529 -0.765232,-0.164997 -0.478366,-0.07521 -1.19241,-0.101391 -1.685625,-0.06176 -0.414105,0.0332 -0.887158,0.118289 -1.319686,0.236887 -0.241653,0.06628 -0.80765,0.285416 -1.0516571,0.407072 -0.464029,0.23146 -0.888056,0.518233 -1.231711,0.833137 -0.157826,0.144541 -0.16564,0.152205 -0.297495,0.290248 -0.310566,0.32502 -0.584925,0.716038 -0.803233,1.144698 -0.07466,0.146611 -0.239096,0.562418 -0.288062,0.728474 -0.140933,0.4777 -0.212334,0.973691 -0.204717,1.421748 1.3712053,-0.707959 -7.579e-4,-0.0064 1.373147,-0.698605 z"
         id="orbit-v" />
    </g>
  </g>
</svg>
