<svg width="258" height="42" viewBox="0 0 258 42" fill="none" xmlns="http://www.w3.org/2000/svg">
<path d="M41.5563 14.9603C41.4254 14.5747 41.1843 14.2357 40.863 13.9855C40.5416 13.7352 40.154 13.5845 39.748 13.552L27.8709 12.6083L22.7313 1.23118C22.5676 0.86475 22.3014 0.553519 21.9647 0.335052C21.6281 0.116586 21.2354 0.000220581 20.8341 3.13289e-07C20.4327 -0.000219955 20.0399 0.115714 19.703 0.333811C19.3661 0.551908 19.0996 0.862847 18.9355 1.2291L13.7959 12.6083L1.91881 13.552C1.51975 13.5836 1.13826 13.7295 0.819961 13.9723C0.501663 14.215 0.26004 14.5444 0.123999 14.9208C-0.0120425 15.2973 -0.0367416 15.705 0.0528567 16.0951C0.142455 16.4853 0.342556 16.8414 0.629222 17.1208L9.40631 25.677L6.30214 39.1187C6.20788 39.5256 6.23809 39.9514 6.38885 40.3409C6.5396 40.7304 6.80394 41.0655 7.14756 41.3029C7.49118 41.5403 7.89822 41.669 8.31586 41.6721C8.73349 41.6753 9.14244 41.5529 9.48964 41.3208L20.8334 33.7583L32.1771 41.3208C32.532 41.5564 32.9505 41.6777 33.3764 41.6683C33.8022 41.659 34.215 41.5195 34.5592 41.2685C34.9034 41.0176 35.1625 40.6673 35.3017 40.2647C35.4408 39.8621 35.4533 39.4265 35.3376 39.0166L31.5271 25.6833L40.9771 17.1791C41.5959 16.6208 41.823 15.7499 41.5563 14.9603V14.9603Z" fill="#F6F6F6"/>
<path d="M95.5563 14.9603C95.4254 14.5747 95.1843 14.2357 94.863 13.9855C94.5416 13.7352 94.154 13.5845 93.748 13.552L81.8709 12.6083L76.7313 1.23118C76.5676 0.86475 76.3014 0.553519 75.9647 0.335052C75.6281 0.116586 75.2354 0.000220581 74.8341 3.13289e-07C74.4327 -0.000219955 74.0399 0.115714 73.703 0.333811C73.3661 0.551908 73.0996 0.862847 72.9355 1.2291L67.7959 12.6083L55.9188 13.552C55.5198 13.5836 55.1383 13.7295 54.82 13.9723C54.5017 14.215 54.26 14.5444 54.124 14.9208C53.988 15.2973 53.9633 15.705 54.0529 16.0951C54.1425 16.4853 54.3426 16.8414 54.6292 17.1208L63.4063 25.677L60.3021 39.1187C60.2079 39.5256 60.2381 39.9514 60.3888 40.3409C60.5396 40.7304 60.8039 41.0655 61.1476 41.3029C61.4912 41.5403 61.8982 41.669 62.3159 41.6721C62.7335 41.6753 63.1424 41.5529 63.4896 41.3208L74.8334 33.7583L86.1771 41.3208C86.532 41.5564 86.9505 41.6777 87.3764 41.6683C87.8022 41.659 88.215 41.5195 88.5592 41.2685C88.9034 41.0176 89.1625 40.6673 89.3017 40.2647C89.4408 39.8621 89.4533 39.4265 89.3376 39.0166L85.5271 25.6833L94.9771 17.1791C95.5959 16.6208 95.823 15.7499 95.5563 14.9603V14.9603Z" fill="#F6F6F6"/>
<path d="M149.556 14.9603C149.425 14.5747 149.184 14.2357 148.863 13.9855C148.542 13.7352 148.154 13.5845 147.748 13.552L135.871 12.6083L130.731 1.23118C130.568 0.86475 130.301 0.553519 129.965 0.335052C129.628 0.116586 129.235 0.000220581 128.834 3.13289e-07C128.433 -0.000219955 128.04 0.115714 127.703 0.333811C127.366 0.551908 127.1 0.862847 126.935 1.2291L121.796 12.6083L109.919 13.552C109.52 13.5836 109.138 13.7295 108.82 13.9723C108.502 14.215 108.26 14.5444 108.124 14.9208C107.988 15.2973 107.963 15.705 108.053 16.0951C108.142 16.4853 108.343 16.8414 108.629 17.1208L117.406 25.677L114.302 39.1187C114.208 39.5256 114.238 39.9514 114.389 40.3409C114.54 40.7304 114.804 41.0655 115.148 41.3029C115.491 41.5403 115.898 41.669 116.316 41.6721C116.733 41.6753 117.142 41.5529 117.49 41.3208L128.833 33.7583L140.177 41.3208C140.532 41.5564 140.951 41.6777 141.376 41.6683C141.802 41.659 142.215 41.5195 142.559 41.2685C142.903 41.0176 143.163 40.6673 143.302 40.2647C143.441 39.8621 143.453 39.4265 143.338 39.0166L139.527 25.6833L148.977 17.1791C149.596 16.6208 149.823 15.7499 149.556 14.9603V14.9603Z" fill="#F6F6F6"/>
<path d="M203.556 14.9603C203.425 14.5747 203.184 14.2357 202.863 13.9855C202.542 13.7352 202.154 13.5845 201.748 13.552L189.871 12.6083L184.731 1.23118C184.568 0.86475 184.301 0.553519 183.965 0.335052C183.628 0.116586 183.235 0.000220581 182.834 3.13289e-07C182.433 -0.000219955 182.04 0.115714 181.703 0.333811C181.366 0.551908 181.1 0.862847 180.935 1.2291L175.796 12.6083L163.919 13.552C163.52 13.5836 163.138 13.7295 162.82 13.9723C162.502 14.215 162.26 14.5444 162.124 14.9208C161.988 15.2973 161.963 15.705 162.053 16.0951C162.142 16.4853 162.343 16.8414 162.629 17.1208L171.406 25.677L168.302 39.1187C168.208 39.5256 168.238 39.9514 168.389 40.3409C168.54 40.7304 168.804 41.0655 169.148 41.3029C169.491 41.5403 169.898 41.669 170.316 41.6721C170.733 41.6753 171.142 41.5529 171.49 41.3208L182.833 33.7583L194.177 41.3208C194.532 41.5564 194.951 41.6777 195.376 41.6683C195.802 41.659 196.215 41.5195 196.559 41.2685C196.903 41.0176 197.163 40.6673 197.302 40.2647C197.441 39.8621 197.453 39.4265 197.338 39.0166L193.527 25.6833L202.977 17.1791C203.596 16.6208 203.823 15.7499 203.556 14.9603V14.9603Z" fill="#F6F6F6"/>
<path d="M222.302 39.1187C222.231 39.4243 222.229 39.742 222.298 40.0482C222.367 40.3543 222.505 40.6409 222.7 40.8864C222.895 41.1319 223.144 41.33 223.427 41.4659C223.71 41.6017 224.02 41.6718 224.333 41.6708C224.745 41.6709 225.147 41.5491 225.49 41.3208L236.833 33.7583L248.177 41.3208C248.532 41.5564 248.951 41.6777 249.376 41.6683C249.802 41.659 250.215 41.5195 250.559 41.2685C250.903 41.0176 251.163 40.6673 251.302 40.2647C251.441 39.8621 251.453 39.4265 251.338 39.0166L247.527 25.6833L256.977 17.1791C257.28 16.9066 257.496 16.5513 257.599 16.1572C257.702 15.7632 257.687 15.3476 257.556 14.9619C257.425 14.5762 257.184 14.2373 256.863 13.9871C256.542 13.7369 256.154 13.5863 255.748 13.5541L243.871 12.6083L238.731 1.23118C238.568 0.86475 238.301 0.553519 237.965 0.335052C237.628 0.116586 237.235 0.000220581 236.834 3.13289e-07C236.433 -0.000219955 236.04 0.115714 235.703 0.333811C235.366 0.551908 235.1 0.862847 234.935 1.2291L229.796 12.6083L217.919 13.552C217.52 13.5836 217.138 13.7295 216.82 13.9723C216.502 14.215 216.26 14.5444 216.124 14.9208C215.988 15.2973 215.963 15.705 216.053 16.0951C216.142 16.4853 216.343 16.8414 216.629 17.1208L225.408 25.677L222.302 39.1187ZM236.833 7.14785L241.088 16.5666L242.313 16.6645H242.315L250.59 17.3208L243.775 23.4541L243.773 23.4583L242.808 24.3249L243.165 25.5687V25.5749L245.775 34.7104L236.833 28.7499V7.14785Z" fill="#F6F6F6"/>
</svg>
