<svg width="150" height="50" viewBox="0 0 150 50" fill="none" xmlns="http://www.w3.org/2000/svg">
<path d="M48.9646 24.4825C48.9646 38.0036 38.0036 48.9648 24.4823 48.9648C10.9611 48.9648 0 38.0036 0 24.4825C0 10.9614 10.9611 0.000177738 24.4823 0.000177738C38.0036 0.000177738 48.9646 10.9614 48.9646 24.4825Z" fill="#F03D26"/>
<path d="M39.1719 23.2835C40.0919 22.3784 40.6712 21.14 40.6712 19.8262C40.6712 17.3767 38.6588 15.5939 36.1762 15.8446L32.4016 16.2256C32.0038 16.2658 31.6812 16.6166 31.6812 17.0091V23.621V24.4582V31.07C31.6812 31.4626 32.0038 31.7483 32.4016 31.7082L36.1762 31.3271C38.6588 31.0765 40.6712 28.8876 40.6712 26.4379C40.6712 25.1241 40.0919 24.0027 39.1719 23.2835" fill="white"/>
<path d="M16.6661 16.2263L12.8915 15.845C10.4089 15.5942 8.39648 17.3783 8.39648 19.83C8.39648 21.145 8.97588 22.3845 9.89574 23.2902C8.97588 24.0101 8.39648 25.1326 8.39648 26.4476C8.39648 28.8992 10.4089 31.0901 12.8915 31.3409L16.6661 31.7223C17.064 31.7624 17.3866 31.4765 17.3866 31.0835V24.4661V23.6281V17.0106C17.3866 16.6177 17.064 16.2665 16.6661 16.2263" fill="white"/>
<path d="M24.4919 19.3674H20.7185C20.3206 19.3674 19.998 19.6907 19.998 20.0893V29.9104V30.9079C19.998 31.3292 20.288 31.7523 20.7061 31.7523H24.4931C24.4532 32.5398 23.3751 33.4938 20.8466 33.7753L20.56 33.8008C20.3894 33.8193 19.998 33.8008 19.998 34.541V34.7373C19.998 35.1363 20.3102 35.4868 20.7083 35.4868H24.4824C26.9649 35.4868 28.9882 33.0827 28.9882 30.594V23.8746C28.9882 21.3853 26.9751 19.3674 24.4919 19.3674Z" fill="white"/>
<path d="M149.448 12.9072L149.346 11.178C149.337 10.951 149.337 10.6699 149.327 10.3565H149.295C149.225 10.6159 149.144 10.9618 149.061 11.2321L148.562 12.8641H147.991L147.491 11.1886C147.44 10.9618 147.358 10.6159 147.298 10.3565H147.266C147.266 10.6266 147.256 10.9078 147.247 11.178L147.145 12.9072H146.614L146.818 9.9673H147.644L148.124 11.4049C148.184 11.6317 148.235 11.848 148.307 12.1508H148.317C148.388 11.8804 148.45 11.6317 148.511 11.4157L148.991 9.9673H149.785L150 12.9072H149.448ZM146.451 9.9673V10.4537H145.563V12.9072H145.013V10.4537H144.125V9.9673H146.451" fill="#1B2040"/>
<path d="M64.4316 27.5442V34.3713H80.8207C81.1049 34.3713 81.4837 34.773 81.4837 35.0742V39.3916C81.4837 39.6927 81.1049 40.0942 80.8207 40.0942H58.5582C58.274 40.0942 57.9897 39.793 57.9897 39.4918V10.5765C57.9897 10.2753 58.274 9.97402 58.5582 9.97402H80.8207C81.1049 9.97402 81.4837 10.3756 81.4837 10.6768V14.994C81.4837 15.2952 81.1049 15.6968 80.8207 15.6968H64.4316V21.8212H79.3996C79.6838 21.8212 80.0628 22.223 80.0628 22.5242V26.8414C80.0628 27.1426 79.6838 27.5442 79.3996 27.5442H64.4316" fill="#1B2040"/>
<path d="M92.0703 15.6968V34.3713H98.2753C104.291 34.3713 107.465 30.7569 107.465 25.034C107.465 19.3113 103.581 15.6968 98.1806 15.6968H92.0703ZM86.1968 40.0942C85.9127 40.0942 85.6284 39.793 85.6284 39.4918V10.5765C85.6284 10.2753 85.9127 9.97402 86.1968 9.97402H98.1806C107.18 9.97402 113.906 15.8475 113.906 25.034C113.906 34.1205 108.222 40.0942 98.2753 40.0942H86.1968" fill="#1B2040"/>
<path d="M132.66 34.3713C136.26 34.3713 137.681 33.1665 137.681 30.7569C137.681 28.5481 136.07 27.0421 132.518 27.0421H124.513V34.3713H132.66ZM124.513 15.6968V21.8212H132.755C135.597 21.8212 136.591 20.4157 136.591 18.8092C136.591 17.1025 135.313 15.6968 132.281 15.6968H124.513ZM118.639 40.0942C118.355 40.0942 118.071 39.793 118.071 39.4918V10.5765C118.071 10.2753 118.355 9.97402 118.639 9.97402H133.181C139.623 9.97402 143.034 13.5884 143.034 18.2571C143.034 20.6666 142.133 22.5744 140.57 23.9299V24.0302C142.797 25.5361 144.123 27.9456 144.123 31.0582C144.123 36.8313 140.144 40.0942 133.323 40.0942H118.639" fill="#1B2040"/>
</svg>
