<svg width="38" height="38" viewBox="0 0 38 38" fill="none" xmlns="http://www.w3.org/2000/svg">
<circle cx="19" cy="19" r="19" fill="#40228C"/>
<path d="M19.64 27.2C18 27.2 16.7 26.7467 15.74 25.84C14.78 24.92 14.3 23.6133 14.3 21.92V18.1C14.3 16.4067 14.7933 15.1 15.78 14.18C16.7667 13.26 18.1133 12.8 19.82 12.8C21.2733 12.8 22.42 13.1733 23.26 13.92C24.1133 14.6533 24.5867 15.6533 24.68 16.92H22.3C22.1933 16.2267 21.9267 15.72 21.5 15.4C21.0867 15.0667 20.4733 14.9 19.66 14.9C18.7133 14.9 17.9933 15.1933 17.5 15.78C17.0067 16.3533 16.76 17.1533 16.76 18.18V21.86C16.76 22.8733 17.0133 23.6667 17.52 24.24C18.0267 24.8133 18.7733 25.1 19.76 25.1C20.6533 25.1 21.3133 24.8667 21.74 24.4C22.18 23.92 22.4 23.26 22.4 22.42V21.74H19.46V19.66H24.68V22.08C24.68 23.8533 24.2733 25.1533 23.46 25.98C22.6467 26.7933 21.3733 27.2 19.64 27.2Z" fill="white"/>
</svg>
