<svg width="45" height="43" viewBox="0 0 45 43" fill="none" xmlns="http://www.w3.org/2000/svg">
<path d="M22.414 8.60034C15.2099 8.59743 9.375 14.4294 9.375 21.6277C9.375 27.3198 13.0251 32.1585 18.1084 33.9354C18.793 34.1073 18.6881 33.6208 18.6881 33.2887V31.0311C14.7351 31.4943 14.5749 28.8783 14.3098 28.4414C13.7738 27.5266 12.5066 27.2936 12.8853 26.8566C13.7854 26.3935 14.703 26.9732 15.7663 28.5433C16.5354 29.6823 18.0356 29.4901 18.7959 29.3007C18.962 28.6161 19.3174 28.0044 19.8068 27.5296C15.711 26.7955 14.0039 24.296 14.0039 21.3247C14.0039 19.8827 14.4787 18.5573 15.4109 17.4882C14.8166 15.7257 15.4663 14.2168 15.5537 13.9925C17.2462 13.841 19.0057 15.2043 19.1426 15.3121C20.1039 15.0528 21.2021 14.9159 22.4314 14.9159C23.6666 14.9159 24.7677 15.0586 25.7378 15.3208C26.067 15.0703 27.6983 13.8992 29.2714 14.042C29.3558 14.2663 29.9909 15.7403 29.4316 17.4794C30.3754 18.5514 30.8561 19.8885 30.8561 21.3334C30.8561 24.3106 29.1374 26.8129 25.0299 27.5354C25.3817 27.8814 25.6611 28.294 25.8516 28.7491C26.0422 29.2043 26.1402 29.6929 26.1398 30.1863V33.4635C26.1631 33.7257 26.1398 33.985 26.5768 33.985C31.7358 32.2458 35.45 27.3723 35.45 21.6306C35.45 14.4294 29.6122 8.60034 22.414 8.60034V8.60034Z" fill="#121646"/>
</svg>
