<svg width="21" height="22" viewBox="0 0 21 22" fill="none" xmlns="http://www.w3.org/2000/svg">
<path d="M8.36719 9.56445H18.2109C18.3012 9.56445 18.375 9.49062 18.375 9.40039V8.25195C18.375 8.16172 18.3012 8.08789 18.2109 8.08789H8.36719C8.27695 8.08789 8.20312 8.16172 8.20312 8.25195V9.40039C8.20312 9.49062 8.27695 9.56445 8.36719 9.56445ZM8.20312 13.748C8.20312 13.8383 8.27695 13.9121 8.36719 13.9121H18.2109C18.3012 13.9121 18.375 13.8383 18.375 13.748V12.5996C18.375 12.5094 18.3012 12.4355 18.2109 12.4355H8.36719C8.27695 12.4355 8.20312 12.5094 8.20312 12.5996V13.748ZM18.5391 3.78125H2.46094C2.3707 3.78125 2.29688 3.85508 2.29688 3.94531V5.09375C2.29688 5.18398 2.3707 5.25781 2.46094 5.25781H18.5391C18.6293 5.25781 18.7031 5.18398 18.7031 5.09375V3.94531C18.7031 3.85508 18.6293 3.78125 18.5391 3.78125ZM18.5391 16.7422H2.46094C2.3707 16.7422 2.29688 16.816 2.29688 16.9062V18.0547C2.29688 18.1449 2.3707 18.2188 2.46094 18.2188H18.5391C18.6293 18.2188 18.7031 18.1449 18.7031 18.0547V16.9062C18.7031 16.816 18.6293 16.7422 18.5391 16.7422ZM2.92031 13.6681L6.12568 11.1436C6.14727 11.1266 6.16471 11.1049 6.17671 11.0803C6.18871 11.0556 6.19494 11.0285 6.19494 11.001C6.19494 10.9736 6.18871 10.9465 6.17671 10.9218C6.16471 10.8971 6.14727 10.8755 6.12568 10.8585L2.92031 8.33193C2.80137 8.2376 2.625 8.32168 2.625 8.47344V13.5245C2.62499 13.5588 2.63462 13.5923 2.65278 13.6214C2.67095 13.6504 2.69692 13.6737 2.72772 13.6887C2.75853 13.7037 2.79293 13.7097 2.82698 13.706C2.86104 13.7024 2.89338 13.6892 2.92031 13.6681Z" fill="black"/>
</svg>
