<svg width="45" height="43" viewBox="0 0 45 43" fill="none" xmlns="http://www.w3.org/2000/svg">
<path d="M16.122 24.2672C16.122 25.5391 15.0829 26.5782 13.811 26.5782C12.5391 26.5782 11.5 25.5391 11.5 24.2672C11.5 22.9953 12.5391 21.9562 13.811 21.9562H16.122V24.2672ZM17.2868 24.2672C17.2868 22.9953 18.3259 21.9562 19.5978 21.9562C20.8696 21.9562 21.9088 22.9953 21.9088 24.2672V30.054C21.9088 31.3259 20.8696 32.365 19.5978 32.365C18.3259 32.365 17.2868 31.3259 17.2868 30.054V24.2672ZM19.5978 14.987C18.3259 14.987 17.2868 13.9478 17.2868 12.676C17.2868 11.4041 18.3259 10.365 19.5978 10.365C20.8696 10.365 21.9088 11.4041 21.9088 12.676V14.987H19.5978V14.987ZM19.5978 16.1518C20.8696 16.1518 21.9088 17.1909 21.9088 18.4628C21.9088 19.7346 20.8696 20.7737 19.5978 20.7737H13.811C12.5391 20.7737 11.5 19.7346 11.5 18.4628C11.5 17.1909 12.5391 16.1518 13.811 16.1518H19.5978V16.1518ZM28.878 18.4628C28.878 17.1909 29.9171 16.1518 31.189 16.1518C32.4609 16.1518 33.5 17.1909 33.5 18.4628C33.5 19.7346 32.4609 20.7737 31.189 20.7737H28.878V18.4628V18.4628ZM27.7132 18.4628C27.7132 19.7346 26.6741 20.7737 25.4022 20.7737C24.1304 20.7737 23.0912 19.7346 23.0912 18.4628V12.676C23.0912 11.4041 24.1304 10.365 25.4022 10.365C26.6741 10.365 27.7132 11.4041 27.7132 12.676V18.4628V18.4628ZM25.4022 27.743C26.6741 27.743 27.7132 28.7821 27.7132 30.054C27.7132 31.3259 26.6741 32.365 25.4022 32.365C24.1304 32.365 23.0912 31.3259 23.0912 30.054V27.743H25.4022ZM25.4022 26.5782C24.1304 26.5782 23.0912 25.5391 23.0912 24.2672C23.0912 22.9953 24.1304 21.9562 25.4022 21.9562H31.189C32.4609 21.9562 33.5 22.9953 33.5 24.2672C33.5 25.5391 32.4609 26.5782 31.189 26.5782H25.4022Z" fill="#121646"/>
</svg>
