<svg width="45" height="43" viewBox="0 0 45 43" fill="none" xmlns="http://www.w3.org/2000/svg">
<path d="M32.4302 16.2729C32.446 16.495 32.446 16.7171 32.446 16.9392C32.446 23.7126 27.2906 31.5172 17.868 31.5172C14.9651 31.5172 12.2684 30.6764 10 29.2171C10.4125 29.2646 10.809 29.2805 11.2373 29.2805C13.6326 29.2805 15.8375 28.4715 17.5983 27.0915C15.3458 27.0438 13.4581 25.5686 12.8077 23.5381C13.125 23.5857 13.4422 23.6174 13.7754 23.6174C14.2354 23.6174 14.6955 23.554 15.1237 23.443C12.776 22.967 11.0152 20.9049 11.0152 18.4144V18.351C11.6973 18.7317 12.4905 18.9696 13.3312 19.0013C11.9511 18.0812 11.0469 16.5108 11.0469 14.7342C11.0469 13.7824 11.3007 12.91 11.7449 12.1485C14.2671 15.2577 18.0583 17.2881 22.3096 17.5102C22.2303 17.1295 22.1827 16.733 22.1827 16.3364C22.1827 13.5127 24.4669 11.2126 27.3064 11.2126C28.7816 11.2126 30.1141 11.8313 31.05 12.8307C32.208 12.6086 33.3184 12.1803 34.302 11.5934C33.9212 12.7831 33.1122 13.7825 32.0494 14.4169C33.0805 14.306 34.0799 14.0204 34.9999 13.6238C34.3021 14.639 33.4295 15.5432 32.4302 16.2729V16.2729Z" fill="#121646"/>
</svg>
