<svg width="45" height="43" viewBox="0 0 45 43" fill="none" xmlns="http://www.w3.org/2000/svg">
<path d="M32.4302 16.273C32.446 16.495 32.446 16.7172 32.446 16.9392C32.446 23.7127 27.2906 31.5172 17.868 31.5172C14.9651 31.5172 12.2684 30.6765 10 29.2172C10.4125 29.2647 10.809 29.2806 11.2373 29.2806C13.6326 29.2806 15.8375 28.4716 17.5983 27.0915C15.3458 27.0439 13.4581 25.5687 12.8077 23.5382C13.125 23.5858 13.4422 23.6175 13.7754 23.6175C14.2354 23.6175 14.6955 23.554 15.1237 23.443C12.776 22.9671 11.0152 20.9049 11.0152 18.4145V18.351C11.6973 18.7318 12.4905 18.9697 13.3312 19.0014C11.9511 18.0813 11.0469 16.5109 11.0469 14.7342C11.0469 13.7825 11.3007 12.91 11.7449 12.1486C14.2671 15.2577 18.0583 17.2881 22.3096 17.5103C22.2303 17.1296 22.1827 16.733 22.1827 16.3364C22.1827 13.5128 24.4669 11.2127 27.3064 11.2127C28.7816 11.2127 30.1141 11.8314 31.05 12.8307C32.208 12.6087 33.3184 12.1803 34.302 11.5934C33.9212 12.7832 33.1122 13.7825 32.0494 14.417C33.0805 14.306 34.0799 14.0204 34.9999 13.6239C34.3021 14.6391 33.4295 15.5432 32.4302 16.273V16.273Z" fill="black"/>
</svg>
