<svg width="45" height="43" viewBox="0 0 45 43" fill="none" xmlns="http://www.w3.org/2000/svg">
<path d="M34.4776 15.1814C34.1901 14.0728 33.3429 13.1997 32.2673 12.9034C30.3177 12.365 22.5 12.365 22.5 12.365C22.5 12.365 14.6823 12.365 12.7327 12.9034C11.6571 13.1997 10.8099 14.0728 10.5224 15.1814C10 17.1908 10 21.3832 10 21.3832C10 21.3832 10 25.5756 10.5224 27.585C10.8099 28.6936 11.6571 29.5303 12.7327 29.8266C14.6823 30.365 22.5 30.365 22.5 30.365C22.5 30.365 30.3177 30.365 32.2673 29.8266C33.3429 29.5303 34.1901 28.6936 34.4776 27.585C35 25.5756 35 21.3832 35 21.3832C35 21.3832 35 17.1908 34.4776 15.1814V15.1814ZM19.9432 25.1896V17.5768L26.4772 21.3833L19.9432 25.1896V25.1896Z" fill="#121646"/>
</svg>
